<?xml version="1.0" encoding="utf-8"?>
<!DOCTYPE svg PUBLIC "-//W3C//DTD SVG 1.1//EN" "http://www.w3.org/Graphics/SVG/1.1/DTD/svg11.dtd">
<svg version="1.1" id="Layer_1" xmlns="http://www.w3.org/2000/svg" xmlns:xlink="http://www.w3.org/1999/xlink" x="0px" y="0px"
	 width="4950px" height="3065px" viewBox="0 0 4950 3065" enable-background="new 0 0 4950 3065" xml:space="preserve">
<defs>
<style type="text/css"><![CDATA[
g path {
  stroke-linejoin: round;
  stroke-linecap: round;
  fill-rule: evenodd;
  stroke: #fff;
  stroke-opacity: 1;
  stroke-width: 2;
  stroke-dasharray: 3;
  fill: #FFEDA0;
  fill-opacity: 0.7;
}

/** COLORS **/

]]></style>
</defs>

<g id="ksh-country-1">
  <path d="
  M10,1869l3,6l3-1l2,2l2,6l3-1l6,3l7-1l4,2l7-7l9,3l2-5l4-4l9-1l5-3h12l4-2v-2l5-4l23,6l18-2l4,3l4,12h6l-1,3h8l2,6h2l4,6l8-2l-1,3
  l6,4l2,8v2l-4,1l-1,8l-2,2v17l-5,3l-10,2l-2-1l-1,3h-2l-2,12l2,10h12v4l-2,6l-4,4v8l-2,2l10,8l1,4l3,1l8,10l1,7l-2,2h4l1,8l2,2l2-2
  l2,1l6-6l1,3h2v2l3,2l-1,6l-7,6l9,6l17,1l6,2l5-1l5,1l2,2l-2,2l-3,11v2l3,1l-3,1l-1,2v2l4,2l-1,5l-4,3l1,6h-12v-3h-2l-3-3l-3,1
  l-1,1l2,1l-2,6l-3,3l-2-1l1,11l4,3v8l5-1l7,4v2l3,2l9,14h7l8,3l5,11h2l6,6l4,10l4-2l4,4l3,6l-1,11l2,2h4l3,3l10-2l4,5l4,7v8l-2,3
  l1,7l7,1l1,3l3,1l-2,2v4l-2,2l1,1l-3,4l2,4l4,1l-2,7l-4-1l-1,4l24,15l9,3l1,4l4,1l4,6l11,2l7-1l1,4l6,6l1,3l4-4h2l2,1v5l2,1h2l1-3
  h9l13,5l1,6l-7,7l4,2l4-4l5,1v4l7,11l4,11l8,11l5,11l6,5v4l2,3l3-1l1-6l3-3h6l3,3v12l4,1l4-3l2,1l4,9h2l2-5l3-2l2,1l3,6h2l5-6l7-2
  l6,4v6l6,1l2,6l6-3l1,4l4,2l1-5l4-2l2,2l-3,7l3,2h4l5,4l-1,6l4,2l5-3l2,1l1,3l-4,5l10,5v2l-3,3l2,2h5l-1,4l-4,5v4l3,5l-2,6l1,5l3,5
  l4,3v20l3,3l9,4l8,14l10,1l3,4l4,2l1,5l12,11l2-2l7,1l5-2l1,5l-1,3h-2l2,8l-1,3h6l2,2l5-2l4,5l3-3h3l37,22h7l1,5l4,5l3,3h3l2,3h2
  l1-3h3l6,2l9,11h2l3-3l5,2l-1,8l2,2h5l5-5l3,3l7-1l4,2l1,1l-2,3l1,1l-2,1v5l4,4l5-2l9,7l-3,5l2,1l2,10h2l1,2l-4,2l-2,3h-3l2,6l3,1
  l1,3l-4,7h-2l1,4l7,2l7-5h4l4,1l3,3l2-7l4,3v2l-6,10l6,2l8-2l3,1l-1,3l-6,1l-4,8l1,5h-12l-2,5l1,2h6l2-3l7-2l13,5l-1,9l3,3h4l3-2
  l-1,3l-2,2h-5l-7-5l-3,3l1,3l7,4l9-2l7,1l2,2l4-2l2,4l-8,8l-3,1l2,14l-4,1l2,1l9-3l8,2l8-1l4,4l-3,6l-13,3l-2-1l-1,4l-8,3l-1,3l7,3
  l3,4l5,3l6,2l8-4l5,2v6l-7,4l-1,2l1,4l3,3l6,1l3-7l3-2h3l3,3l-1,6l-4,3v4l-6,4l-1,3l4,3l7-1l5-3l5-11v-3l-7-6v-3l5-4h3l2,2l2,10
  l7,11l6-2v-13l2-3h6l2,3v7l-6,7l1,2l6,3l-2,3l-4-2l-6,1l-1,4l4,4h8l8-6l4,4l-1,5l-3,2l-19-3l-4,7l-4-4v-5h-4l-2,12l5,7h12l7-5h7
  l3,1v5l-2,4l3,6l5,2l11-10l1,3l-2,4l2,3l10,3l7-1l1-5l-7-10l1-5l7-3l10,1l14,6l31,4l13,6l25-4l9,6l17,17l10,6l9,13l11,26l4,6v12
  l2,7l7,10l9,5l12-5l9,3l4,5l6-1l3,2l16,1l4,3l8,15l2,1h2l6-6h7l4,1l7,9l9,4l6-2v-2l3-3l4,1l4,7v10l6,8l7,1l2,2v8l2,5l7,4l3-2l3-9
  l6-6l15-10l8,1l8,5h8l4-4l9-3l14,5l12-7h8l15,16l11,5l15,2l19,9l12-2l8-6l6-14l4-4l7,2h14l5,7l7,5h2l10-11l5-1l6,3l2,3l19,2l3,3
  l3,9l5,8l12-1l11,6l6-1l5-4h5l9,5h7l6,2l2-1l5,4l1,4l4-2l1-5l6-10h2l1-4l2,2l4-1l-2-7l13,10l3-1l5,4v4l1-1l2,5l2-2l1,2l-3,5l1,3
  l8,7l8-3l19,5l3-9l-2-3l1-10l-3-3l8-9l6,3l13,1v-8l6-22h9l2,2v4l4,4l6-1l2,3v-5l8-6h5l2-2l5,2l4-1l4-10l11,4l-1-14l15-8l6-6l1-2
  l-2-5l16-7l-6-13l6-2l3-11v-9h2l1-3l5,9l12-7l-9-10l-1-5l10-7h5l3-4l-4-5v-13h2l5,6l4-4l21-3l13,13l12,5h9l-1,1l2,2l4,1l2,7l10,2
  l8,8l4,2h9l4-1l2-3l1-15l-4-7l11-12l4,10l30-6l-3-9l6,4l5-1l4-4h2l-1-1h2l12-14l39,9l21-6v2l5,6l10,1l-8-24l6-13l9-5l8-1l19-1l6,2
  h11l-4-20l-6-18l29-42l6,2l15,1l10,30v13h13v2l29,1l-4-5l24-1l2,4l36-2l8,9l5-4l-15-24l60-39l11,17l11-7l15-3l6-10l11-12l20-16l1-8
  l-2-6l11-7l1-3h6l14-6l13-11l-14-13l2-4l-6-6l11-10l7,4l3-2l21-17l-1-2l3-2l-2-4l6-5l46,10l22-22l6,6v-2l10,7h2v-2l9-7l14,13v4l6,4
  l4-2l7,5l5,9l10,11l10,3l4-1l8,6l2-2l7,8l6,2l3,3l20-14l7-9l14-1l31-14l5-3l8-9l59-1l7,6l3,18l2,6l4,4h6l11-4l3,5l7-13l15-21l5-1
  l4,2v2l-2,1l2,10l14,11l5,2l3,6h8l16-9l9-7l19,16l2,9l14,7l2,6l11-7l3,4l-2,3v4l4,4l5-9l7-4v-4l5-4l14-17l9-4l2,6l32-20l9,17l9-5
  l10,6l2-5l4,1l5,5l12,7l14,3l10-1l25-28v-5l2-4l-3-3l4-4l-2-2l1-2l4-2l14,9l16,2l7,4l2,5l9,4l2,4l3,1v2h4l2,4l6,3l2,5l11,3l8,8v2
  l3,2l4,7l3,2h4l6-7l2-7l-1-3l4-7l4-2l1,1l2-2l5,2l4,5l5,1l6-6l2-9l3-2h5l2-4l5-2l6-22l8-5v-2l-6-3l2-9l-1-2l25,3l-9-49l19-26l6,2
  l12-1l53-14l13,18l23,10l2-16l16-3l4,15l3,2l10,3l15,1l8-1l17-6l8,19l18,3l4,3l3-12l7,2l1-4l1-1l2,2l1-4h2l3-4l5-2l2,2l9-41l22-4
  l1,6l3,2h12l5-3l1-3l3-1l-5-15l3-5l-1-7l2-1l-2-5l10-4l7-9l-2-23l7-36l7,2l2-10l5-2l10,3l26,4l6,3l10-3l-6-7l5-11l12-17l1-10l2-2
  l-14-27h-16l-11-27l12-35l-2-6l5-5l6,1l4-8l8-9l-1-4l12-19l-3-3l-2,1l-4-4l-1,2l-4-5l4-9l5-19l12-15l4,3l2-2h11l9-8l9,5l2,4l21,8
  l5-22l4-4l14-5l7-9l3-1v-7l-6,2l-3-1l-9-14l1-3l-3-8l3-5l2-1l12,7l16-7l8,4l3,5l3,1l7-12l4-1v-7l3-3v-4l6-2l7-8l1-6l-3-13l-11-7
  l-13-13l-6-1l-1-6l4-12l3,1l11-9l2-8l3-4l-1-1l6-14v-7l-3-9l2-4v-11l3-2l5,1l4-5v-5l8-1l6-5l18-4l2-3h8l2-5l4-4l-2-11l2-6l2-2h6
  l-5-19h-4l-2-5l-1-16l4-9l25-1l2-6l6-4l7-14l10,2l3-6l2-1l2-7l-4-3l-6-1l2-10l2-2l-1-1l4-5l-1-5l2-6l6-1l1-3l-5-4l-3-13l-12-3
  l-8-15v-7l5,1l7-4l11-2l2-7l5-2l-1-2l6-2l-2-3l7-3l-2-5l3-2l-1-2l2,1l6-4l-2-8l10-17l19-8l14-4l14,4l1-1v-4l-3-3l2-3l-2-1l3-3l-1-5
  l7-7l2-17l6-20l4-8h5l4-2l1-4l5,1l7-7l8-3v-36l-6-1l-3-3l4-16l4-4v-3l9-17l7-4l6-6v-7l-7-8l1-3l4-2l3-6l5-23l7-7l12-20l2-13l7-7
  l4-8l-1-6l4-2l5,1l4-2l4-6l10,2v2l7-2l1-2h3l4,2l2,3l10,1l2-7l6-9l9-24l-4-10l3-2l-2-2l3-1l-7-16l5-10l-9-3l-9-23l-1-9l3-7l1-11
  l3-5l3-11l8-10l4-9l6-7l12,11l7-10l-12-9v-2l6-6l7-4l1-3l4-2l10,5l6-8l2-8l6-2l5-5l1-5l3-4l3-1l-1-10h8l11,5l11,2l6-3l4-13l5-5
  l3-18l2-8l2-2l3-20l6,1l3-5l4-3l-1-2l4-19l-2-2l6-11l7-2h10l2-3h2l2-21h-2l3-15l16,2l8-7l4-1l3-5l8-2l3-12l-3-13l5-1l5,3l19,17
  l10,2l4-1l10,4l5-4l4,2l6-1v5l15,2v-5l-2-5l-2-1l1-5l3-5l3-11l4-24l3-7l5-5l11-2l10-7l5,6l38,26l7,10l45,1l3-6l7,1l8-5l8,2l11-4
  l3-5h10l1-3h2l12-28l-1-2l4-3v-3l4-1l1-10l5-5h4l4,3l7-1l2,2h10l8-8l8-1l1-8l-2-9l-3-1l1-5l-8-1v-3l5-11l-8-9v-9h7l2,2l9-1l7,3l6-6
  l10-4l8-8l5-2l5,2l6-1l7-9v-4l7-5v-4l4-4v-5l5-7l4-1l1-8l8-2v-3l-3-1v-4l-2-2l3-1l-1-4h-5l-4,4h-2v-6l-2,3l-1-3l-2,3l-2-3h2l2-6
  l-3-3h-2v3h-3l1-3l-1-1l-2,2v-4l-3,1v-2l-1,1l-5-3l-4,2l-1-1l3-3l-2-4l-5-3l7-7v-2h4l-2-3l3-1l4-6l6-3v-12l6-3l5-13l1-20l-3,1l-3-2
  v5h-2l-7-7l3-1v-2l-3,1l2-2l-3-4l1-3l-2-1l2-1v-5l-4-5l-4-2l-1-3l-4,1l-1,3l-2,1l-2-1v-3l3-3l-3-3v-6l-6-2v-6l3-9l-6-10h-7l-4,13
  h-3l-2-1v-4l4-8l-4-4h-2l-6,6l-4-1l-4-4l-6-1l-1,5l5,4v3l-4,2h-3l-4-3l-3-9h-6l-4,3l-6-3l-3,2l-1,3h-7l-7,6h-4l-5,6l-9,6l-8,8h-6
  l-6-4h-18l-8-10l-3,1v-2l-4,2h-8l-8-4v-6l6-4l-6-7l1-10l2-3l-6-5l1-3l5-1l2-2l-5-7h-2l-4-8l-4,1l-2-2l-8-19l1-2l-3-3v-3h5l2-13
  l-10-2l-10-11l-5-3l-4,2l-1-4l-5-4l-1-4l-7-8l3-7v-5l-14-1l5-6l-4-2l2-3l-8-4l-14,6l-1-3l-3,6h-3l-4,3v-2h-5l-6-7l-6-2l-2,1l2,5
  l-9-2l-1-2l-13,1l-5,9l-5,3l-2,5l-11-12l1-2l-3-5l-5-16l-6-7l-2,1l-8-9l2-3l-3-9l3-6l-3-10l1-3l-5-2l-9-8l1-6l-4-1l-1-2l5-15l-2-6
  l2-6l-2-5h-14l-3-3l-18-4l-9-14l-2-6l-10-9l2-3l8-2l2-2l6-12v-5l-4-2l-16,1l-8-5l-10-12l-8,1l-13,11l-11,1l-8,4l-2,2v11l-6,5l-9,1
  l-3,2l4,7v4h-8l-3,3l-3-3h-6l-5,5l-6-2l-5,7l-3-8l1-3l-5-5l-4,2v3h-9l-3,5l-8-8l-7-3l-5-6h-4l-1,1l2,4l-3-1l-1,3l-6,2l-2,4h-5l-4,4
  l-3-2l-3,2v2l-2-5l-4,2l-12-2l-1,3l-3-3l-5,1l-2,5l-1-1l-5,2l-3,4h-6l1,3l4,3l-3,3l-8-2l-2-3l-3-1v-2l-6,5l-2-2v-4l-2,1l2,4l-1,3
  l-7-1l-1-1l3-4l-3-1l-3,3v4l4,4l-3,3h-2l-1-7l-5,3l2,4l-1,1l-3-1l-3-4h-2l1,5h-2l-2-2v-5l-3-5l-7,3h-6l-2,2l2,10l-2,8l2,3l-4,4l2,2
  l-1,3h-6l-2,2l-4-1l1-3l-2-2h-7l-6-5l-2,2l-9,2l-5-2l-8,2l-3-1v-2l-6-5l-6-3l-16-1l-1-3l-7-5l2-9l-2-2l-5,1l-2-6l3-5l-2-4l-14-9
  l-1-3l-10,2l-3-3l2-8l-2-2l1-12l-2-7l-3,1l-5-17h-2l2-3l-7-7l1-1l-3-3v-2h-6l1-1l-3-5l1-7l-5-5l-3-7l3-3l-1-15l-3-12h-2l-1-2V94
  l-3-1l-3,3h-2l-4-5l-4-1l-3,1l-7,8h-8l-5-7l-5,3h-8l-1-5l-3-3h-2l-7-8l1-2l-4-8v-4l-4-4l2-8l-1-3l-4-2v-2h-3l1-3l-5,1l-2-2l1-4h-2
  v2h-6l-6-7l-3,1l-3-2l-11-11l-5,1l-2-2l-1-5h-2l-3-5l-2,2h-6l-5,7v15l-5,6l-5-1l-2-4l-3-1l-7,1l-9,5l-10-2h-17l-11,1l-3,2l2-4l-3-1
  l-5,6h8l1,3l-3,3l-4-2l-3,3l6,2l-1,4l-3,1l2,4l-7,1v2h2l3,5l-4,4h-4l-2,2l-1,3l5-2l1,1l-3,4h-8l-5-3l-1,1l-10-4l-4,2l-4-4l-6-2
  l-9-9h-6v6l-7-4l-3,2l-2,5l-5-2v6h-3l-3,3h-4l-2-2l-1,3h-2l-2,4l-4,2l-3-1l-1-3h-9l-2,4l-5,2l-5,6v2l-3,1l-5,10v4l-5,4l-7,1l-12-3
  l-6-7l1-3l2-1v-8l-2-3l-5-5l-10-2l-6-6l-9,4l-1-4h-8l-2-2h-4l-3-4l-4,2l-6-3l-5,4l-12,2l-2,2l1,2l-7,6l-4-8l-7,5l-6-1l-1-14l-8-3
  l-2,2l-1-9l-5,5l-4-12v-6l-6-5h-7l-23,9h-2l-1-3l-5,2l-7-8l-4-8h-6l2-2l2-14l-9,8l-2-3l3-4l-3-3l-13,5l-1-1v2l-10,3l-50,5l1,4h-4
  l-2,2l-2-5l-8-1l-14,5l-11,7l-3-3h-4l-2,2l-9-1l-4,4l-2,5l-2,1l1-1l-3-3l-1,3l-3,2h-8l-7,9h-11l-4,4h-4l-2,4l-19-8l-5,1l-5-2l-4,8
  l-2,10l-8-3l-5-7l-10,2l2,3l-3-1l-1,2l-1,5l2,1l-2,3h2l-2,3l5,5l1,3l-2,4l-2,17v4h2l-1,2l-8,1l-3,5l-2,8l-11,11l-6,2l4,5v6l-6,4
  l-7,1l-1,3l-5,3v4l-6,7v2l-3,3h-2l-1,5l-8,6l-2,10l3,1l2,6l-3,3v8l-2,2v4l-4,4l-1-1l-3,4l3,3l3,8l-1,7l-8,8v2l-4,1l-7,5l2,1l-1,5
  l-3,3v2l-10,10l5,5l-6,11l-7,5l1,3l-5,2l-8,7h-2l1,1l-2,4h-2v6h2v4h-6l-1,15l-7,2l-5-1l-2,1l-1,3l3,1v4l-16,4l-3-1l-2-5l-7-1l-1-3
  l-6-3v-2h-4l-5-5l-2,2l-3-3h-2l-7,4l-1-1v2l5,5l-5,6l-1,4l-5-1l-4,5l-8-4l-1,3l4,7l-9,5l-8,1l-2-2l-3,1l-5-3l-12,1l-5-5h-8l-2,2
  l-1,7l5,3v4l-4,6v10l-4,5h-4l-4,5l-4,1v2l-9,7l1,3l-5,2v4l-3,3h-8l-3,3h-2l-3,6l2,2l3-1l3,4l-1,1l-5,4l-7,1l-8,12l-5-1l-1-7l-7-1
  l-3-3l-8,2l-1,3l-6,2l-3-1l-2,3l-4,2l-3-1l-2,7h-2l-4-4h-4l-8,15l-9,1l-3,9l-6,5v2l-1-1l1,5l-2,2l-1-1l-6,3l-7,1l-7-1v2l-3,3h-4v-4
  l2-4l1,1v-6l6-4l3-8l-6-4l-5-16l-12,2l-2-7h-17l1-5l-2-3h-2l-1,7l-5,5l1,5l-13-1l2-4l-7-2l-10,7l1,5l-2,4l-1-1l-6,2l-10-12l5-5
  l-1-5l13-11l-3-6v-4l-2-2l-9,2l-1-6l-5-5l-9-4l-4-8l-7-1l-2-2l-9,1l-3,3l-4,10l-3,2l-8-1l-4,2l-3-3l-7-1v-2l-9-8l1-3l-4-3l-1-3l2-2
  l-2-2v-7l-2-2l-1-6l-2-2h-6l-5,4l-4-2l-1-3l-6-4l-4-5l-9,9l-8,3l-2,6l-6,5h-2l-2,4l-11,11h-6l-4,2l-11,9l-4-4h-2l-3,4h-4l-3,3l3,6
  v6l-7,10l-1-1l-3,3l-1-2l-2,6l-2-2v4h2l-4,2l3,3v4l2,2l-1,7l2,4l-3,4v4l-6,2v4l-3-1v2l-3,1l2,2l-1,1h2v8h-2l2,8h-2l1,3l-2,2l2,4
  l-3,3h2v4l-7,3l2,6l-6,6h-6l-2,4v8h-5v-4h-2l-3-3v-2h-2v-6l3,1l1-3l-1,1l-1-3h-8l-3,2l-2-1l-2,4l1,1l-4,2l-4,5l-1-1l-5,3v-2h-4
  l-4,4h-2l-1,3h-2l1-1h-2l-2-4l-3,1l2-2h-2l-2-4h-4l-5,3l-1-1l-2,4h-2l-1-3l-3,1l-5-3v2l-22-1l-6,3l-9-2l-15,7l-5,10l-8-1l-6,2l-6,8
  v6l-6,7l-11-5l-2-5l-9-2l-8,1l-2,2l-5,1l-7-1l-12-5l-5,1l-6-2l-4-3l-1-3l-4-2l-7,1l-6,8l-5-1l-4,2l-2-2h-4l-6-6h-4l-4,3l-1,3l-8,3
  l-6,8l-9-10l-5,1l-2-2l-1,3h-2l1-3l-2-2v2l-5-6l-3,2l1-3l-3-1v-2l-2,1l3-3h-2l-3,3h-2l2,2l-3,1l1,3l-7,1l-6,5v7h-2l-1,3l-4,2l-4-3
  h-4l-2-3v2l-5-2h-16l-23,8l-10-4l-1,1l-4-5l-3,7l2,2l-2-1l-6,5l-10-4l-4,3l-7-5l-4,2l-2,4l-3-1l-3,7l-5-2l-2,4l2,2l-1,1l4,3v4l-2,4
  l-6,5l1,12l3,3l-3,8h2l-3,4h2l-2,5l-10,8l-10-2l-7,3l-7-1l-10,10v4l2,3l11,9l3,6l-4,7l2,12l-2,6h2l-12,14v4l4,7l-3,2v4l3,1l-5,6
  l1,2h2l3,15l-1,11h3l2,4h7l1,3h8l3,8l2,1l11,2l6,5v10l4,4l1,5l7,5l9-1l4,4l-6,6v4l-24-2l-4-3l-12-2l-9,1l-9,5l-20,4l-6,6l-1,13
  l-2,6l-7,7l-7,2l-19,16l-27,10l-6-1l-20,2l-22-7l-15-2l-6,2l-7-1l-13,8l-15,5h-11l-10-9l-6-3l-10-1l-10,5l-7,6h-8l-7,3h-11l-17,9
  l-15,3l-20,7l-12,1l-7,3l-13-2l-8-5l-9-2l-23-3l-16,2l-20-1l-20-8l-31-5l-12-4l-34-1l-9,2l-15,10h-7l-13-10l-7-2l-7,4l-10,10l-22,1
  l-12,5h-5l-18-7l-27,6h-6l-9-4h-8l-6,4l-9,1l-12-11l-14-1l-10-4h-8l-8-3l-4-4l-7-13l-30-23l-16-10l-17-21l-15,2l-9,7h-4l-14-19
  l-5-15l1-7l-9-9l-2-4l-4-4h-19l-12-11l-14-4l-4-3l-3-3l-1-6l-7-11l-7-21l-5-7l-9-7l-4-6l-1-6l-5-6l-12-5l-5-4l-8-13l-8-6l-12-17
  l-8-3l-11-1h-8l-15,3l-20-8l-3-5v-12l-4-6l-4,4l-6,2l-19-4l-3,3h-6l-19,10l-5,5l-14,9l-4,5l-9,6l-5,6l-13,10l1,2l8,4l1,2h3l3,3
  l-6,8v4l-12,16l15,8l-7,18l-5,5v2l6,6l-14,27l-3-1l-2-3l-21,6v2l-7,4l-15-2l-2,1l-5,10l31,22l-4,6l3,1l-3,4l10,6l1,5l9,9l-9,7
  l-8,10l4,5l3,13l2-1l3,12l-1,3l4,16l-1,22l3,7l14,16l-39,4l-46,11l-46,7l-28-1l-2-2l-1-6l-1-28h-2l-9,12l-10,5l-9,25l-58,2l-20-45
  v-14l-36-5l-10-3l-1,2l-13-9v-6l-3-3l-2-1l-3,2h-4l-9-4l-8,5l-3-3h-2l-5,4l-14,4h-13v2h-2l2,6l-2,3l-3-1l-4,6l12,15l-6,6l-2,4l1,1
  l-7,2l-9-1l-3,5l-2-1l-7,5l-3-2l-5,7l-5,1v5l-3,3l-5,1l-1,9h-6l-4-3l-4-13h-5l-1,10l-3,8l1,5l-6,5l-8,3l-2,2l1,3l11,6l9,1l3,3l18,4
  l6,9l3-1l3,3l5-1l2,2l6-6v-2l6,3l1,2l3-1l6,5l10,5l18,15l13,2l15-5l3-3l9-4l15,5l4,6l3,13h8l2,2l-5,9l3,4l4,13l-3,6v4l-6,2v2l6,8
  l9-2l3,2l2,2l-1,3l3,3l3,7h4l3,4l3-1l2,4l-8,7l2,11l-8,5l-4,9l-5,1l-10,6l-5-6l-7,9l3,10l10,17v2l-6,8v4h-2l2,7l-3,3l-5,1v4l-3,2
  l-12,3l-6,8l-1,6l-4-2l-1,3h-5l-3,5l-1-1l-3,3l-1-1l1,2h-6l-1,1h2l-2,3l-5-1l-1,1l2,3l-5,4l1,5l-2,2h-20l-5-5h-7l-2,2l-1-2h-6l-3,5
  h-4l1,9l-9,9l-1-7l-1-1l-1,2h-4l1-5l-3,2l-1-1l1-5h2v-2l2-1h-2l-1-3h-8l-9-5h-5l-8,7l4,16l4,4l-1,1l3,3h2l-5,1l-3,5l5,9l-1,6l-4,4
  l1,3l-13,5l8,9l1,5l2,2h6l4,3v5l5,10l-1,3l5,8l1,7l4,8v8l5,10l-2,3l-1-1l-5,3l1,15l-9,10l-4-3l-11,3l2,3l-13-3l-1,3l9,2v16l-3,5
  l-1,7l2,4l-3,3v6h-6l-3,3l-1-3h-2l-2,5l4,9l-2,2l7,11h8l6-3l5,1v6l5,11l2,1v2l-3,2l2,5l-3,4h-4l-1,5l-2,2v6l4,4l12-1l12-6l21-1
  l4,10l3,4l2-1v11l-10,3l-11,1v14l-13,2l2,6l-5,2l-2-4l-3,3l1,1l-6,2l1,4h-2l3,5l-1,1h2v2l5,3l-3,5l1,7l6-1l5,6l3-2l12,4l9,7v5
  l-10,7l-4-1l-2,2l-3-1l-6,3l-4-1l-4,1l-5,4h-7l-3,3l-7,1l-4,4l3,1l-4,5l7,8l11-11l5,5l4,1l2,6l3-1l1,5l7,8l7,3l7,6h-6l-5,4l-6-2v2
  l-7,5l-4-4h-8l-2-5l-3,1l-1-3l-1,1l-2-2l1,1h-4l-1,11l-11,1l-7-4l-2-5l-4-4l-13,1l-8,5l-6-1l-2,2l-5-10l-4,2l-7-5l-2,1l-3,6l1,3
  l-2,2v3l-7-4h-3l-3-3l-15,5l-4-4l1-7l-5-6h-2l-4,7l-2,7v9l-4,7v25l-5,1l-3-2l-7-1l-9,9l3,7h-2l1,3l-6-1v2h-2l-2,4l-3-1l1,1h-2v2
  l-3,1v4l-4-2v-4v2l-3-1l1-1l-2,1l-1-3l-2,4l-1-3h-5v2l-1-1v2h-2l-1,2v4l-3,5l-1,7l-5,7l-2,10h-3l-3,3l-5-1l-3,3l-1,4l-3,1l-2,4h-2
  v4l-3,4h-3l-2,2l-3,9l-7,4l-3-1l-3,2L10,1869z"/>
</g>

</svg>
