<?xml version="1.0" encoding="utf-8"?>
<!DOCTYPE svg PUBLIC "-//W3C//DTD SVG 1.1//EN" "http://www.w3.org/Graphics/SVG/1.1/DTD/svg11.dtd">
<svg version="1.1" id="Layer_1" xmlns="http://www.w3.org/2000/svg" xmlns:xlink="http://www.w3.org/1999/xlink" x="0px" y="0px"
   width="4950px" height="3065px" viewBox="0 0 4950 3065" enable-background="new 0 0 4950 3065" xml:space="preserve">
<defs>
<style type="text/css"><![CDATA[
g path {
  stroke-linejoin: round;
  stroke-linecap: round;
  fill-rule: evenodd;
  stroke: #fff;
  stroke-opacity: 1;
  stroke-width: 2;
  stroke-dasharray: 3;
  fill: #FFEDA0;
  fill-opacity: 0.7;
}

/** COLORS **/

]]></style>
</defs>

<g id="ksh-country-1">

  <g id="ksh-region-1">
    <path d="
      M1885,1109l7,13l1,5l-4,6l-2,7l2,4v13l26,45l3-1l6,3l6-3l9,15l13,14l3,9v15l4,9l-3,2l2,7l-9,8l-4,1l-6,5l-4,11l4,3l3,5l8,6l9,19
      l10,9l5,11l15,16l1-1l12,9l10,13l3,5l-5,9l-2,1l2,1l3-2l12,5l-6,16l5,10l1-1l27,4l1,13l-6,19l-1,14l-21,38l-2,22l-4,12l1,20l17,75
      l3,5l8,4l25,20l14,20l3-2l5-10l-7-10l-4-2l-3-4l-1-9l27,8l19,3v3h2l1,3l29,11l4,4l1-3l18-9l2-7v-11l4-4l23-7l6-11l11-8l4-5l28-2
      l5,9l20-45l10-3l13-1l10,7l12,2l9,6l12,12l8,11l7,6l-12,17l-13,11l-14,33l18,25l4-10l6-5l16-6h14l9-6l31-27l8,5l11,3l5,3l9-2
      l10-23l5-26l8-19l19,8l21,4l6-1l10-9l3-5l24,42l7,21l5,26l33,41l12,12l20,11l39,32l16-7l19,11h9l3-3l13-25l1-7l4-6l6-16l12,10
      l24,15l6,2l14,1l22,10l-1-22l12-16l20-10l25-6l6-7h2l16,13l14-27l-4-7l-4-3l-8-2l-8-34l-4-9l-7-5l1-5l-10-13l4-3l-2-7l-6-11l6-18
      v-4l6-4l15-17l11-18l-9-20l-2-8l-3-2v-12h-3l-8-4l-15-14l-10-6l-31-10l8-24l12-25l1-6l-4-3l-16-31l2-6l-1-5l-7-6l-11-16l-14-9
      l-18-8l-49-33l-11-11v-2l-13-4l1-9l-8-20l-39-27l-8-8l11-13l6-18l4-3l3-5l2,1l5-8l-10-8l-7,9l-7-6l-8,4l-6-7l-8,8l-6,2l-8,12l-5,1
      l-12-17l-23-16l4-12l-5-4l3-3l1-12l7-13l-10-11l3-19l-7-13l-3-2l-1-5l-4-3l6-9l-3-2l-10-2l-6-3l-5-5l-4-6l1-4l-12-24l7-5l-4-3l3-8
      l2,2l2-4l-1-3l2-4l-14-13l-6-8l-10-8l-17-9l-5,5l-6,12l-5,3l-1,4l-2,2l-7,1l-9,6l-2,4l-1,6h8l5,3l3,6l-2,3l-3-1l-20,10l-7-16l-2-8
      l1-2l-4-3l-5-1l-3-3l-4-11l-3-2l-5-9l1-12l7-7l2-7l-2-7h-8l-7-4l-6,1v-7l4-3l4-17l14-6l-15-16l-10,1l-3-3h-5l-5-4l-9,1l-2,3h-17
      l-18-14l-4-1l-36,8l-11-3l-6,3l-13-2l-2,2l-7-7l-1-4l-7-3l-4-5l-15-5l-2-2l-2,2l-7-2l-4,5l-16-5l-24-2l-6,4l-3,7h-4l-4,3v-3h-2
      l-7-6l1-6l-2-3h-2l-3-4l-5-2v2h-4l-4-4l-2-4l1-5l-2-2l2-6l-2-3h-3l-6-9l-13-3l-10-10l-9-16l-10-3l-9-9l-2-9l-11-10l4-4v-2l-6-4
      l14-12l11-6l14-11l-4-9l12-4v-11h-2v-3l4-4v-2h-5l3-7l-3-2l-4-10l-4-2l-6,1l-5,4l-5-4h-4l-3,2l-8-15l-4-2l-10-16l-15,6l-10-4l-1,1
      l-4-5l-3,7l2,2l-2-1l-6,5l-10-4l-4,3l-7-5l-4,2l-2,4l-3-1l-3,7l-5-2l-2,4l2,2l-1,1l4,3v4l-2,4l-6,5l1,12l3,3l-3,8h2l-3,4h2l-2,5
      l-10,8l-10-2l-7,3l-7-1l-10,10v4l2,3l11,9l3,6l-4,7l2,12l-2,6h2l-12,14v4l4,7l-3,2v4l3,1l-5,6l1,2h2l3,15l-1,11h3l2,4h7l1,3h8l3,8
      l13,3l6,5v10l4,4l1,5l7,5l9-1l4,4l-6,6l2,7l13,1l11,3l12,7l4,8v9l3,16l3,4l9,5l-3,10l2,7l-4,7v3l4,5l4,2l3,4l-1,2l6,4l-4,5l-2,6
      l-9,5l-1-3l-11-7l-8-2h-4l-4,5l-5,1l-5-2l-2,2l-3-1l-4,3l-2-1l-2,3l1,3l2,1v3l-3,7l3,2l-6,5l5,6v3l6,12v18l2,1v3l-11-2l-5-3l-2,2
      l-8,2l-6-4h-7l-7-8l-6-4l-10-3l1,4l-3,7h-8l-4,2l-8-2l9,8l6,3l6,10l3,2l-7,2l-1-1l-5,3l-4,5l-11,8l-4,10l-13,6l-1,9l2,4l-3,4l-7,3
      l-10,9L1885,1109z"/>
  </g>

  <g id="ksh-region-2">
    <path d="
      M710,1677l-1-15l2-3l12,1l3-2h4l21-8l10-7l6,2l4,7l5-8v2l5,5l10,7h6l2-6l6-7l2-2l5-1l1-3l-4-17l2-2l-2-10l1,1l7-4l-9-5l-5-12l-2-8
      l1-6l-2-3l1-1l-3-2l1-7l-2-5l1-7l5-3l-1-3l6-6l-2-9l2-4l-2-3l3-12l2-2v-3h-4v-27l-3-23l-2-4h-2v-8l4-11l3-4l4,6l4-7l-1-12l-4-8
      l6-3l5-9l9-7l4-1l20,1l9-6l-1-1l8-6l-19-17l-7,2l-17-12l-7-1l-5-9l-5,2l-17-21l14-12l-10-4l-7-11l-6-19l1-7l-4-2l3-1l-1-3l4-2
      l-1-1l2-3l4-2l1,1l2-2l1,2v-3l6,11l15,4v-8l2,2l4-2l1,3l1-4h2v6l3-1l4,3l12-3l2,6l4-2l2,2v-4l5,4l8-2l2,3l3-2l2-3l-1-1l9-2v-3l9-4
      h2l2,3l9-1l2,2v-2l4-3h8l3-2l14-16l-1-1l2-7h-2v-6l5-13h2l-1,3l13,1l10,4l-3,12l4,3l6,12l4,2h5l-1,4l3,6l-2,11l10,8l3-5l15,7l3-5
      l7-6h2l1-3l1,1l3-4l1-2l-3-5l16-26l2,1v5l2,4l6,7l11,8l3,5l15-9l2-3l-3-7l3-6l5-5l8,7l3,6l12-9l7,11l2-1l1,2l6-4l1,2l-2,5l11-6
      l5,1v-12l5-5l3-1l6,7l4-4l2,2l5-2l-1-1l5-3v2l7,7l-2,1v3l-6,8l2,5l5-4l1,2l5-3l3,6l6-3l-7-11l3-2v-5l1-1l1,3l2-1l-1-3l5-3l13,17
      l5,13l-1,6l13,19l6,14v4l-6,6v2l5,6v3l-4,1l-8,6l-2-2l-1,1l1,6l-9,14l-9,7l-1-1l-3,2h-5l-3,6l1,6l-6,6l6,6l3,10l-2,2l3,4h2l3,3
      l6-1l5,3l3,4l-1,2l3,5l-1,17l6,10l-2,7l3,1l4-2v-2l1,1l3-3l1,1l3-2l-4-8l2-9l-3-4l1-12l-2-8l3-6l5-5l2,4l6-1l6,2l4-2h6v-7l6-7l1-5
      l4-2l-2-3v-4l-6-8v-2l23-22h15l5-10l-6-3l1-12l5-14l5-4l-1-4l3-6l-5-9l2-4l-5-12l-5,2l-4-7l10-6l-5-3l-3-4l3-4l-2-5l6-2l5,2l-4-6
      v-5l12-10h7l-3-6l4-3l-5-4l-9-19h-3v-2l-3-3l2-7v-3l-2-2v-7h3v4l11,2l4,3l20-8v-2l-6-6l-2,5l-4-1l-11-8l13-23l-8-4l5-3l3-5l4-17
      l4-9l-15-5l-5-4l-8-2l-6-12l5-9l5-28l-3-7l-5-5l3-4l2-9l4-6l-2-27l-4-15h5l12-5l21-1l4-2l5-7l8-5l8,2l13,10l9-1l13-9l7-2l36,1
      l12,4l34,6l17,7l20,1l16-2l32,5l7,5l14,2l7-3l12-1l20-7l15-3l17-9h11l7-3h8l7-6l10-5l10,1l6,3l10,9h10l16-5l12-8l8,1l5-2l16,2
      l22,7l19-2l7,1l5-3l21-7l20-16l6-2l6-5l4-7l1-14l4-5l22-5l5-4l4-1l11-1l10,2l4,3l18,2h6v-2l2,5l13,1l11,3l12,7l2,3l2,5v9l3,16l3,4
      l9,5l-3,10l2,7l-4,7v3l4,5l4,2l3,4l-1,2l6,4l-4,5l-2,6l-9,5l-1-3l-11-7l-8-2h-4l-4,5l-5,1l-5-2l-2,2l-3-1l-4,3l-2-1l-2,3l1,3l2,1
      v3l-3,7l3,2l-6,5l5,6v3l6,12v18l2,1v3l-11-2l-5-3l-2,2l-8,2l-6-4h-7l-7-8l-6-4l-10-3l1,4l-3,7h-8l-4,2l-8-2l9,8l6,3l6,10l3,2l-7,2
      l-1-1l-5,3l-4,5l-11,8l-4,10l-13,6l-1,9l2,4l-2,3l-12,7l-10,11l7,13l1,5l-4,6l-2,7l2,4v13l26,45l3-1l6,3l6-3l9,15l13,14l3,9v15
      l4,9l-3,2l2,7l-9,8l-4,1l-6,5l-4,11l4,3l3,5l8,6l9,19l10,9l5,11l15,16l1-1l12,9l10,13l3,5l-5,9l-2,1l2,1l3-2l12,5l-6,16l5,10l1-1
      l27,4l1,13l-6,19l-1,14l-21,38l-2,22l-4,12v10l1,10l17,75l3,5l8,4l25,20l11,14l4,9v16l-3,7l-9,13l-1,13l3,17l8,24v14l-4,23l-9,18
      l-11,16l-5,20h-5l-1-2l-8,1l-1-2h-2l2,4h-12l-20,7l9,12h2l-2,1l1,1l-4,1l2,2l-3,2l-4,10l-19,19l-12,9l-18,9l-2,3l4,15l-1,1l-6-1
      l-4,2l-17,3l-8-2l-6,8l-6-1l-14,7l14,31l-5,2l2,3l-5,2l-3-1l-7,4l-12,15l-12,9h-8l-7,4h-5l-7,3l-2-1l2-2l-3-2l1-1h-4l1-1l-2-4l2,1
      l1-6h-3v-2l-1,1l-1-2h2l3-3h-2l-2-6l-2,1v-7h-2l2-5l3,1l2-2l-4-1l-1-3l-3-1l-1-6l-2-2l1-2h2l-3-1v-2h3l-3-4l1-1h-2l-1-2l-3,2h-5
      l-11-11l-3,1l-7-4l-11-27l-3,3l-15,6l-8,8l-13,5l7,20l-4,1l-2-3v2h-2v-3l-8,4l-6-5h-2l-11,8l3,3l-16-4l-20-10l3-13l2-2l-3-10l-3-4
      v-5l3-6l-4-9l-6-6l-4,36h-5l-1-8l2-4l-4-5l-3,1v3h-2l1-3l-3-6l-8,5l-2,4l1,1l-2,2l3,2l-4,3l-14-10l-20-7l-8-8l1-17l-4-3l-16,9
      l-13,11v5l-5,5h-4v4l-17,6l-5-2l-8,3l-5-11v-13l-4-12v-10l5-17l-1-10l-4-8l-1-11l6-3l-12-6l18-15l-2-2l-2-7l1-2l-5-8l-8-19l-1-3
      l2-2l-14-20l23-27l-3-7l-9-12l-6,1l-4-5l-6-4l-73,29l-25,18l-41,21l-22,6l-28,12l4,10l-2,14l-6,9l-9,6l-8,2l-18-7l-47,33l-18,7
      l-23,6l-25,13l-23,18l-31,11l-26,14l-40,18l-18,14l-12,6h-20l-8,5l-6,1l-19-4l-2-7l-26-26l-15-12l-5-21l-3-4l-6-4l-6-7l-6-2l2-8
      l-2-3v-7l2-1l2-8l3-2v-2l-2-2l1-3l-2-5l-6-2l-4-7l7-5v-7l-3-5l-3-3l-6-1l-4-3v-8l-2-4l-13-11l-6-1l-6,5l-4-2l-3,2l-5-4l-5,2l-7-1
      l-5-5l-1-8l2-4h2l1-5l4-2l2-4l-2-10l8-2l-3-10l-2-1l2-1v-2l-3-6l-3-3l-2,1l-3-4l-1-10h-2l-3-5l-9-4l-3-7l-1,4l-4,3h-6l-5,3l-3-3
      l-1,3h-2l-1-3h-13l-4-2l-6,1v-16l-3,1l-2-2h-5l-5-3l-7-10l-11-7l-8-7l-5-7L710,1677z"/>
  </g>

  <g id="ksh-region-3">
    <path d="
      M10,1869l3,6l3-1l2,2l2,6l3-1l6,3l7-1l4,2l7-7l9,3l2-5l4-4l9-1l5-3h12l4-2v-2l5-4l23,6l18-2l4,3l4,12h6l-1,3h8l2,6h2l4,6l8-2l-1,3
      l6,4l2,8v2l-4,1l-1,8l-2,2v17l-5,3l-10,2l-2-1l-1,3h-2l-2,12l2,10h12v4l-2,6l-4,4v8l-2,2l10,8l1,4l3,1l8,10l1,7l-2,2h4l1,8l2,2
      l2-2l2,1l6-6l1,3h2v2l3,2l-1,6l-7,6l9,6l17,1l6,2l5-1l5,1l2,2l-2,2l-3,11v2l3,1l-3,1l-1,2v2l4,2l-1,5l-4,3l1,6h-12v-3h-2l-3-3
      l-3,1l-1,1l2,1l-2,6l-3,3l-2-1l1,11l4,3v8l5-1l7,4v2l3,2l9,14h7l8,3l5,11h2l6,6l4,10l4-2l4,4l3,6l-1,11l2,2h4l3,3l10-2l4,5l4,7v8
      l-2,3l1,7l7,1l1,3l3,1l-2,2v4l-2,2l1,1l-3,4l2,4l4,1l-2,7l-4-1l-1,4l24,15l9,3l1,4l4,1l4,6l11,2l7-1l1,4l6,6l1,3l4-4h2l2,1v5l2,1
      h2l1-3h9l13,5l1,6l-7,7l4,2l4-4l5,1v4l7,11l4,11l8,11l5,11l6,5v4l2,3l3-1l1-6l3-3h6l3,3v12l4,1l4-3l2,1l4,9h2l2-5l3-2l2,1l3,6h2
      l5-6l7-2l6,4v6l6,1l2,6l6-3l1,4l4,2l1-5l4-2l2,2l-3,7l3,2h4l5,4l-1,6l4,2l5-3l3,2l-1,4l-3,3l10,5v2l-3,3l2,2h5l-1,4l-4,5v4l3,3
      l-1-5l7,1v4l3,3h3l3,5l16-3l6-3l5,1l1,9l-2,7h4v12l3-3h2v2l4-2l6-6l2-5l11-1l3-8l3-3l4,3l6-1v2h5l1,5l3,2l11-5l-1-1l3-3l6-1l1-4
      l-2-3v-8l4-3l3-8l8-1l1-10l-4-17l1-2l-6-1l-2-4l2-8l-2-7l-7-5l-3-5l1-9l4-4v-8l8,1l2-2h3v10h3l1,3l5,1l1,2l7-4l1-9l4-6h10l2,3l4,2
      h5l1,9l8,1l9-2l2-21l28-5l6,3l2-12l3-5v-21l-4-7l1-7l3-5l-3-3l5-1l-1,2h4l2-9l7-1l3-6l1,1l5-13v-17l-3-5l-2-56l-3-27l5-25l-3-15
      l2-7l-1-9l6-12l5-5l6-1l1-3l7-7l3-9l-1-2l2-4l4-2l9-30l16-1l19,3l26,1l8-3l10-10l9-5l16-3l-2-7l-26-26l-15-12l-5-21l-3-4l-6-4
      l-6-7l-6-2l2-8l-2-3v-7l2-1l2-8l3-2v-2l-2-2l1-3l-2-5l-6-2l-4-7l7-5v-7l-3-5l-3-3l-6-1l-4-3v-8l-2-4l-13-11l-6-1l-6,5l-4-2l-3,2
      l-5-4l-5,2l-7-1l-5-5l-1-8l2-4h2l1-5l4-2l2-4l-2-10l8-2l-3-10l-2-1l2-1v-2l-3-6l-3-3l-2,1l-3-4l-1-10h-2l-3-5l-9-4l-3-7l-1,4l-4,3
      h-6l-5,3l-3-3l-1,3h-2l-1-3h-13l-4-2l-6,1v-16l-3,1l-2-2h-5l-5-3l-7-10l-5-2l-23-21v-14l2-3l12,1l3-2h4l21-8l10-7l6,2l4,7l5-8v2
      l5,5l10,7h6l2-6l6-7l2-2l5-1l1-3l-4-17l2-2l-2-10l1,1l7-4l-9-5l-5-12l-2-8l1-6l-2-3l1-1l-3-2l1-7l-2-5l1-7l5-3l-1-3l6-6l-2-9l2-4
      l-2-3l3-12l2-2v-3h-4v-27l-3-23l-2-4h-2v-8l4-11l3-4l4,6l4-7l-1-12l-4-8l6-3l5-9l9-7l4-1l20,1l9-6l-1-1l8-6l-19-17l-7,2l-17-12
      l-7-1l-5-9l-5,2l-17-21l14-12l-10-4l-7-11l-6-19l1-7l-4-2l3-1l-1-3l4-2l-1-1l2-3l4-2l1,1l2-2l1,2v-3l6,11l15,4v-8l2,2l4-2l1,3l1-4
      h2v6l3-1l4,3l12-3l2,6l4-2l2,2v-4l5,4l8-2l2,3l3-2l2-3l-1-1l9-2v-3l9-4h2l2,3l9-1l2,2v-2l4-3h8l3-2l13-14l2-10h-2v-6l5-13h2l-1,3
      l13,1l10,4l-3,12l4,3l6,12l4,2h5l-1,4l3,6l-2,11l10,8l3-5l15,7l3-5l7-6h2l1-3l1,1l3-4l1-2l-3-5l16-26l2,1v5l2,4l6,7l11,8l3,5l15-9
      l2-3l-3-7l3-6l5-5l8,7l3,6l12-9l7,11l2-1l1,2l6-4l1,2l-2,5l11-6l5,1v-12l5-5l3-1l6,7l4-4l2,2l5-2l-1-1l5-3v2l7,7l-2,1v3l-6,8l2,5
      l5-4l1,2l5-3l3,6l6-3l-7-11l3-2v-5l1-1l1,3l2-1l-1-3l5-3l13,17l5,13l-1,6l13,19l6,14v4l-6,6v2l5,6v3l-4,1l-8,6l-2-2l-1,1l1,6
      l-9,14l-9,7l-1-1l-3,2h-5l-3,6l1,6l-6,6l6,6l3,10l-2,2l3,4h2l3,3l6-1l5,3l3,4l-1,2l3,5l-1,17l6,10l-2,7l3,1l4-2v-2l1,1l3-3l1,1
      l3-2l-4-8l2-9l-3-4l1-12l-2-8l3-6l5-5l2,4l6-1l6,2l4-2h6v-7l6-7l1-5l4-2l-2-3v-4l-6-8v-2l23-22h15l4-6l1-4l-6-3l1-12l5-14l5-4
      l-1-4l3-6l-5-9l2-4l-5-12l-5,2l-4-7l10-6l-5-3l-3-4l3-4l-2-5l6-2l5,2l-4-6v-5l12-10h7l-3-6l4-3l-5-4l-9-19h-3v-2l-3-3l2-7v-3l-2-2
      v-7h3v4l11,2l4,3l20-8v-2l-6-6l-2,5l-4-1l-11-8l13-23l-8-4l5-3l3-5l4-17l4-9l-15-5l-5-4l-8-2l-6-12l5-9l5-28l-3-7l-5-5l3-4l2-9
      l4-6l-2-27l-4-15l-18-7l-27,6h-6l-9-4h-8l-6,4l-9,1l-12-11l-14-1l-10-4h-8l-8-3l-4-4l-7-13l-30-23l-16-10l-17-21l-15,2l-9,7h-4
      l-14-19l-5-15l1-7l-9-9l-2-4l-4-4h-19l-12-11l-14-4l-4-3l-3-3l-1-6l-7-11l-7-21l-5-7l-9-7l-4-6l-1-6l-5-6l-12-5l-5-4l-8-13l-8-6
      l-12-17l-8-3l-11-1h-8l-15,3l-19-7l-4-6v-12l-4-6l-4,4l-6,2l-19-4l-3,3l-3-1l-14,6l-22,15l-36,31l1,2l8,4l1,2h3l3,3l-6,8v4l-12,16
      l15,8l-7,18l-5,5v2l6,6l-8,16l-6,11l-3-1l-2-3l-21,6v2l-7,4l-15-2l-2,1l-5,10l31,22l-4,6l3,1l-3,4l10,6l1,5l9,9l-9,7l-8,10l4,5
      l3,13l2-1l3,12l-1,3l4,16l-1,22l3,7l14,16l-39,4l-46,11l-46,7l-28-1l-2-2l-1-6l-1-28h-2l-9,12l-10,5l-9,25l-58,2l-20-45v-14l-36-5
      l-10-3l-1,2l-13-9v-6l-3-3l-2-1l-3,2h-4l-7-4l-10,5l-3-3h-2l-5,4l-14,4h-13v2h-2l2,6l-2,3l-3-1l-4,6l12,15l-6,6l-2,4l1,1l-7,2
      l-9-1l-3,5l-2-1l-7,5l-3-2l-5,7l-5,1v5l-3,3l-5,1l-1,9h-6l-4-3l-4-13l-4-1l-5,19v7l-13,6l-2,2l1,3l11,6l9,1l3,3l18,4l6,9l3-1l3,3
      l5-1l2,2l6-6v-2l6,3l1,2l3-1l6,5l10,5l18,15l13,2l15-5l3-3l9-4l15,5l4,6l3,13h8l2,2l-5,9l3,4l4,13l-3,6v4l-6,2v2l6,8l9-2l3,2l2,2
      l-1,3l3,3l3,7h4l3,4l3-1l2,4l-8,7l2,11l-8,5l-4,9l-5,1l-10,6l-5-6l-7,9l3,10l10,17v2l-6,8v4h-2l2,7l-3,3l-5,1v4l-3,2l-12,3l-6,8
      l-1,6l-4-2l-1,3h-5l-3,5l-1-1l-3,3l-1-1l1,2h-6l-1,1h2l-2,3l-5-1l-1,1l2,3l-5,4l1,5l-2,2h-20l-5-5h-7l-2,2l-1-2h-6l-3,5h-4l1,9
      l-9,9l-1-7l-1-1l-1,2h-4l1-5l-3,2l-1-1l1-5h2v-2l2-1h-2l-1-3h-8l-9-5h-5l-8,7l4,16l4,4l-1,1l3,3h2l-5,1l-3,5l5,9l-1,6l-4,4l1,3
      l-13,5l8,9l1,5l2,2h6l4,3v5l5,10l-1,3l5,8l1,7l4,8v8l5,10l-2,3l-1-1l-5,3l1,15l-9,10l-4-3l-11,3l2,3l-13-3l-1,3l9,2v16l-3,5l-1,7
      l2,4l-3,3v6h-6l-3,3l-1-3h-2l-2,5l4,9l-2,2l7,11h8l6-3l5,1v6l5,11l2,1v2l-3,2l2,5l-3,4h-4l-1,5l-2,2v6l4,4l12-1l12-6l21-1l4,10
      l3,4l2-1v11l-10,3l-11,1v14l-13,2l2,6l-5,2l-2-4l-3,3l1,1l-6,2l1,4h-2l3,5l-1,1h2v2l5,3l-3,5l1,7l6-1l5,6l3-2l12,4l9,7v5l-10,7
      l-4-1l-2,2l-3-1l-6,3l-4-1l-4,1l-5,4h-7l-3,3l-7,1l-4,4l3,1l-4,5l7,8l11-11l5,5l4,1l2,6l3-1l1,5l7,8l7,3l7,6h-6l-5,4l-6-2v2l-7,5
      l-4-4h-8l-2-5l-3,1l-1-3l-1,1l-2-2l1,1h-4l-1,11l-11,1l-7-4l-2-5l-4-4l-13,1l-8,5l-6-1l-2,2l-5-10l-4,2l-7-5l-2,1l-3,6l1,3l-2,2v3
      l-7-4h-3l-3-3l-15,5l-4-4l1-7l-5-6h-2l-4,7l-2,7v9l-4,7v25l-5,1l-3-2l-7-1l-9,9l3,7h-2l1,3l-6-1v2h-2l-2,4l-3-1l1,1h-2v2l-3,1v4
      l-4-2v-4v2l-3-1l1-1l-2,1l-1-3l-2,4l-1-3h-5v2l-1-1v2h-2l-1,2v4l-3,5l-1,7l-5,7l-2,10h-3l-3,3l-5-1l-3,3l-1,4l-3,1l-2,4h-2v4l-3,4
      h-3l-2,2l-3,9l-7,4l-3-1l-3,2L10,1869z"/>
  </g>

  <g id="ksh-region-4">
    <path d="
      M565,2449v14l3,5l4,3l1,5v8l-2,5l1,2l3,3l9,4l8,14l10,1l3,4l4,2l1,5l12,11l2-2l7,1l5-2l1,5l-1,3h-2l2,8l-1,3h6l2,2l5-2l4,5l3-3h3
      l37,22h7l1,5l4,5l3,3h3l2,3h2l1-3h3l6,2l9,11h2l3-3l5,2l-1,8l2,2h5l5-5l3,3l7-1l5,3l-2,3l1,1l-2,1v5l4,4l5-2l9,7l-3,5l2,1l2,10h2
      l1,2l-4,2l-2,3h-3l2,6l3,1l1,3l-4,7h-2l1,4l7,2l7-5h4l4,1l3,3l2-7l4,3v2l-6,10l6,2l8-2l3,1l-1,3l-6,1l-4,8l1,5h-12l-2,5l1,2h6l2-3
      l7-2l13,5l-1,9l3,3h4l3-2l-1,3l-2,2h-5l-7-5l-3,3l1,3l7,4l9-2l7,1l2,2l4-2l2,4l-8,8l-3,1l2,14l-4,1l2,1l9-3l8,2l8-1l4,4l-3,6
      l-13,3l-2-1l-1,4l-8,3l-1,3l7,3l3,4l5,3l6,2l8-4l5,2v6l-7,4l-1,2l1,4l3,3l6,1l3-7l3-2h3l3,3l-1,6l-4,3v4l-6,4l-1,3l4,3l7-1l5-3
      l5-11v-3l-7-6v-3l5-4h3l2,2l2,10l7,11l6-2v-13l2-3h6l2,3v7l-6,7l1,2l6,3l-2,3l-4-2l-6,1l-1,4l4,4h8l8-6l4,4l-1,5l-3,2l-19-3l-4,7
      l-4-4v-5h-4l-2,12l5,7h12l7-5h7l3,1v5l-2,4l3,6l5,2l11-10l1,3l-2,4l2,3l10,3l7-1l1-5l-7-10l1-5l7-3l10,1l14,6l31,4l13,6l25-4l9,6
      l17,17l10,6l9,13l11,26l4,6v12l2,7l7,10l9,5l12-5l9,3l4,5l6-1l3,2l16,1l4,3l8,15l2,1h2l6-6h7l4,1l7,9l9,4l6-2v-2l3-3l4,1l4,7v10
      l6,8l7,1l2,2v8l2,5l7,4l3-2l3-9l6-6l15-10l8,1l8,5h8l4-4l9-3l14,5l12-7h8l15,16l11,5l15,2l19,9l12-2l8-6l6-14l4-4l7,2h14l5,7l7,5
      h2l10-11l5-1l6,3l2,3l19,2l3,3l3,9l5,8l12-1l11,6l6-1l5-4h5l9,5h7l6,2l2-1l5,4l1,4l4-2l1-5l6-10h2l1-4l2,2l4-1l-2-7l13,10l3-1l5,4
      v4l1-1l2,5l2-2l1,2l-3,5l1,3l8,7l8-3l19,5l3-9l-2-3l1-10l-3-3l8-9l6,3l13,1v-8l6-22h9l2,2v4l4,4l6-1l2,3v-5l8-6h5l2-2l5,2l4-1
      l4-10l11,4l-1-14l15-8l6-6l1-2l-2-5l16-7l-6-13l6-2l3-11v-9h2l1-3l5,9l12-7l-9-10l-1-5l10-7h5l3-4l-4-5v-13h2l5,6l4-4l21-3l13,13
      l12,5h9l-1,1l2,2l4,1l2,7l10,2l8,8l4,2h9l4-1l2-3l1-15l-4-7l11-12l-6-6l-1-3l-6-4l-1-4l3-4l2,1l12-4l1-3l5-1l1-5l1,3l1-3l4-2l2,3
      l-1,5l5-2l1,1l2-2l-7-6h-2l-3-3v-2l-8-3l-1,1l-2-5l2,1l7-12l2-5l-2-4l1-4l22-39l-19-10l3-5l-2-4l-5-3l-23,19l-10-3l-2-2l-4,2l-1-1
      l-6,4l-2-4l-5-4h-5l-4,3h-7l-2-9l-5-9l4-3l11-16l12-33l20-9l4-5h12l-6-6l8-17l4-4l3-10l5,1l1-3l1-8l-2-9l2-4l-1-2l3-17l5-1v-5l2-4
      h12v-5l-3-3v-8l4-5v-10h-3l-4,3l-9,12l-12,8l-6-3l-2-4l5-11l5-4h3l4-4l3-8l3-3l6,1l4,3l7-9v-5l-9-13l-2-9l1-2l8-3l10,11l7,2l10-2
      l-1-5l2-13l6-25l1-7l-2-8l-9-9l-6-10l-4-27l-1-20l-5-19v-7l3-9l8-10l1-5l13-26l3-11l-1-15l-4-18l-13-23l-3-10v-17l2-12l-3-14
      l-16-27l-6-7v-3l-3-5l1-12l6-7l10-17h25v-2l12-5l6-6l10-4l1,5l7-5l9-11l10-21l8-9l2-6l-1-17l-15-27l-1-11l-4-10l1-7l-6,1l-2-9
      l-13-28l3-2l-14-8l-6-10l-2-7l1-35h-5l-1-2l-8,1l-1-2h-2l2,4h-12l-20,7l9,12h2l-2,1l1,1l-4,1l2,2l-3,2l-4,10l-19,19l-12,9l-18,9
      l-2,3l4,15h-7l-4,2l-17,3l-8-2l-6,8l-6-1l-14,7l14,31l-5,2l2,3l-5,2l-3-1l-7,4l-12,15l-12,9h-8l-7,4h-5l-7,3l-2-1l2-2l-3-2l1-1h-4
      l1-1l-2-4l2,1l1-6h-3v-2l-1,1l-1-2h2l3-3h-2l-2-6l-2,1v-7h-2v-2l2-3l3,1l2-2l-4-1l-1-3l-3-1l-1-6l-2-2l1-2h2l-3-1v-2h3l-3-4l1-1
      h-2l-1-2l-3,2h-5l-11-11l-3,1l-7-4l-11-27l-3,3l-15,6l-8,8l-13,5l7,20l-4,1l-2-3v2h-2v-3l-8,4l-6-5h-2l-11,8l3,3l-16-4l-20-10
      l3-13l2-2l-3-10l-3-4v-5l3-6l-4-9l-6-6l-4,36h-5l-1-8l2-4l-4-5l-3,1v3h-2l1-3l-3-6l-8,5l-2,4l1,1l-2,2l3,2l-4,3l-14-10l-20-7l-8-8
      l1-17l-4-3l-16,9l-13,11v5l-5,5h-4v4l-17,6l-5-2l-8,3l-5-11v-13l-4-12v-10l5-17l-1-10l-4-8l-1-11l6-3l-12-6l18-15l-2-2l-2-7l1-2
      l-5-8l-8-19l-1-3l2-2l-14-20l23-27l-3-7l-9-12l-6,1l-4-5l-6-4l-73,29l-25,18l-41,21l-22,6l-28,12l4,10l-2,14l-6,9l-9,6l-8,2l-18-7
      l-47,33l-18,7l-23,6l-25,13l-23,18l-31,11l-26,14l-40,18l-18,14l-12,6h-20l-8,5l-6,1l-19-4l-8,1l-8,2l-9,5l-10,10l-8,3l-26-1
      l-19-3l-16,1l-9,30l-4,2l-2,4v7l-2,4l-9,10l-4,1l-6,5l-6,12l1,8l-2,7l3,16l-5,25l3,27l2,55l3,6v17l-5,13l-1-1l-3,6l-7,1l-2,8h-8
      l3,3l-3,5l-1,6l3,5l1,6l-1,20l-2,2l-2,13l-5-1l-1-2l-28,5l-2,11l1,10l-9,2l-9-1l-1-8l-9-2l-2-4l-8-1l-3,2l-3,4v10l-7,4l-11-6v-10
      h-3l-2,2l-8-1v8l-4,4l-1,9l3,5l7,4l2,8l-2,8l2,4l6,1l-1,2l4,17l-1,10h-6l-4,4l-2,6l-3,2v8l3,5l-2,2l-6,1l-3,3l1,1l-7,2l-3,3l-3-2
      l-2-5l-11-1l-3-3h-2l-3,4l-2,7l-11,1l-8,11l-4,2v-2h-2l-3,3l-1-12h-3l2-7l-1-8l-4-2l-7,3l-17,3l-2-5h-3l-3-3l-1-4l-6-1l1,5
      L565,2449z"/>
  </g>

  <g id="ksh-region-5">
    <path d="
      M2059,589l10,16l4,2l8,15l3-2h4l5,4l5-4l6-1l4,2l4,10l3,1l-3,8h4l1,2l-4,4v3h2v11l-12,4l4,9l-39,28l6,6l-4,5l2,4l9,6l2,9l7,7l6,4
      l5,1l10,16l10,10l13,3l3,6l3,3h3l2,3l-2,6l2,2l-1,5l2,4l4,4h4v-2l10,6l2,2l-1,7l7,6h2v2l9-3l2-6l6-4l24,2l16,5l3-2v-3l6,2h2l1-2
      l20,8v3l9,4l1,4l7,7l2-2l13,2l6-3l11,3l36-8l4,1l18,14h17l2-3l9-1l5,4h5l3,3l10-1l15,16l-14,6l-4,17l-4,3v7l6-1l7,4h8l2,7l-2,7
      l-7,7l-1,12l2,6l6,5l6,14l6,1l4,3l-1,2l2,8l7,16l20-10l3,1l2-3l-2-6l-6-3h-8l1-5l6-8l5-3l9-2l1-4l4-4l1,1l6-13l5-5l17,9l10,8l6,8
      l14,13l-2,4v7l-3-2l-3,7l4,4l-7,5l12,23l-1,5l5,7l10,7l13,4l-6,9l4,3l1,5l3,2l7,13l-3,19l10,11l9-3l4,1l8,6l7-1l-2-22l8-6l9-2
      l12-7l12-1l7,5h3l33,24l13-13l7-16l6-5l13-6l-2-10l4-27l2-3l6,3l1,3l18,9l14-8l23-6l6-10h2l2,3h10l6,3l4,11l-2,6l2,1l3,28l8,14
      l-7,17v4l-3,2l5,4l5,10l13,5l6,7h6l22,8l21,10l3-5l12-8l-11-7l-10-19l12-7l27-7l7-4l30-2l1,12l4,15l8,3l1,7l3,4l-2,3l2,6l3-1l10,6
      l8,1l-4,9l8,3l15,2l8,16l4,11v9l-11,25l8,12l28,35l11,3l8-1l13-5l1,2l-2,2l2,2l-1,3l-3,1l3,4v9l6,4h10l13-3l13-9l7-8l-1-7l3-8l5-6
      l8-6l5-1l8,3l4-1l11-8l6-13l4-19l19-8l8-1l12-5l9-9l9-4l10-10l38-19l2-3v-10l-4-5l1-1l3-1l12,2l4-1l11-7l2-3l1-10l-7-3l-2-2l-1-5
      l3-5l12-4l1-2l-1-6l3-5v-3l-4-8v-6l13-10l12,3h4l5-3l2-6l6-7l-6-9v-3l6-9l17-9h3l14,14l8,1l-2,7v4l2,2l2,1l2-2l1-5l4,6h6l2-2v6
      l4,8l9,4l3-1l4-6l-3-4l-10-4l-6-6l-2-15l18,3l4-1l3,3h5l4-2l2-6l-1-2h-2l-7,3l-3-12v-5l3-6l3,1l4,11l6,1l9-8l5-2l7,2v-12l7-6l5-7
      l1,1l11-4l8,2l12-1l4-5v-7l-3-4v-5l4-4l-4-5v-4l6-6l7-3l6,1l6,5v3l3,4l7-14l-2-3l2-3h2l4-9l-3-2v-2l4-2l1,1l4-9l-1-2l5-3l-1-3l2-3
      l-2-3l5-8l-2-2l9-13l-2-3l-2-12h-3v-2h-2l-6-7l-2-4h2v-2l-2-3l-4-1l3-2v-3l3-3l7,1v-3l3-3h6l1-17l2-7l-2-6l5-4l4-8l3-2l15-3l3-8
      l-2-5l-11,1l-3-6v4l-5,3l-2-2l-2,1l3-9l9-4l4-5l1-9l6-21l-10-10h-5l3-5l-1-5l-4-7l-10-11l-2-5h-3l3-8l7-2l-1-8l3-4l7-2l3,1l6-12
      l6-7l2,1l2-2l-2-4l2-4l1,3l3,2l4-2v2l7,5l4-5l9,2l2,2l-3,6l2,9l4-2l13-1l14,7h4l8-5v-2l-6-7l1-3l14-15l7-3l4-5h2l-1,13l5,10l5,3
      l2-1l8,3l6-5v11l15-4l5,2l4,8l2,1h5l6-3l3-3v-5l2-2l12,2l7,8l2-2l-3-4v-5h5l11,5l10-3l2-6l-5-5l1-9l2-2l3,2l2,6l4,4l6-1l3-6v-21
      l5,1l5-4l8-1l-8-9l-4-1l-5,3l-2-1l-3-10l1-1l9,4l4-2v-4l-20-17l-5-8l-2-7v-2l7-6l5-7l-4-3v-3l3-4l-2-15l-2-1l6-5v-2l2,1l3-3l2-6
      l-1-1l3-6l6-2l6,2l2,6l-1,2l6,4l3-1v-10l4-4l5-1l11,4v4l4,2l-1-5l14-3l-1-2l-6-3l10-4l4-4l-1-5l10-1l2,3v-3l3-1l1-3l11,1l3-10l3-1
      l6,3l2,4l9,7l19,4l11-1l27,3l7-3l15,1v-2l3-3l5,7l-2,2l2,4l3-1l4-6l-5-1v-11h2l5,7l5-5l10-3l-1,14l7-3h6l1-1l-4-4l5-3l-2-6l9,5
      l2-8l7-1l3-3l-2-9l13-5l-3-6l2-8h3l3,8h2l1-6l-2-4l5-4l1,6l6,5l-5,5l7,8l1-1l-3-6l8-1v-11l15,3l8-3l10-7h2l-1-1h2l7,7l8,2l4-11
      l4-4l8-3l-2-2l-1-6h2l3,4l1-3l10-5l2-2l1-5l10-10l1-5l4-7l2-2l11-3l1-4l5-3l-1-4l3-4l8-1l-1,12l15-7l5,5l3,6h8l2-5l-3-11l12,4l4-2
      l-2-18l3-3v-2h7l1,1l-3,6l4,2l3-3v-2l-3-5l-4-1l3-4l9-5l-6-1l1-4l8-5l5,2l2-2v-3l-3-4l-4-3l-5-1v-2l10,2l2,3l2-1l1-6h-4l-4-3l2-13
      l-4-2h-4l-6,5l-6-2l-5,7l-3-8l1-3l-5-5l-4,2v3h-9l-3,5l-8-8l-7-3l-5-6h-4l-1,1l2,4l-3-1l-1,3l-6,2l-2,4h-5l-4,4l-3-2l-3,2v2l-2-5
      l-4,2l-12-2l-1,3l-3-3l-5,1l-2,5l-1-1l-5,2l-3,4h-6l1,3l4,3l-3,3l-8-2l-2-3l-3-1v-2l-6,5l-2-2v-4l-2,1l2,4l-1,3l-7-1l-1-1l3-4
      l-3-1l-3,3v4l4,4l-3,3h-2l-1-7l-5,3l2,4l-1,1l-3-1l-3-4h-2l1,5h-2l-2-2v-5l-3-5l-7,3h-6l-2,2l2,10l-2,8l2,3l-4,4l2,4l-7,1l-2,2
      l-4-1l1-3l-2-2h-7l-6-5l-2,2l-9,2l-5-2l-8,2l-3-1v-2l-6-5l-6-3l-16-1l-1-3l-7-5l2-9l-2-2l-5,1l-2-6l3-5l-2-4l-14-9l-1-3l-10,2
      l-3-3l2-8l-2-2l1-12l-2-7l-3,1l-5-17h-2l2-3l-7-7l1-1l-3-3v-2h-6l1-1l-3-5l1-7l-5-5l-3-7l3-3l-1-15l-3-12h-2l-1-2V94l-3-1l-3,3h-2
      l-4-5l-4-1l-3,1l-7,8h-8l-5-7l-5,3h-8l-1-5l-3-3h-2l-7-8l1-2l-4-8v-4l-4-4l2-8l-1-3l-4-2v-2h-3l1-3l-5,1l-2-2l1-4h-2v2h-6l-6-7
      l-3,1l-3-2l-11-11l-5,1l-2-2l-1-5h-2l-3-5l-2,2h-6l-5,7v15l-5,6l-5-1l-2-4l-3-1l-7,1l-9,5l-10-2h-17l-11,1l-3,2l2-4l-3-1l-5,6h8
      l1,3l-3,3l-4-2l-3,3l6,2l-1,4l-3,1l2,4l-7,1v2h2l3,5l-4,4h-4l-2,2l-1,3l5-2l1,1l-3,4h-8l-5-3l-1,1l-10-4l-4,2l-4-4l-6-2l-9-9h-6v6
      l-7-4l-3,2l-2,5l-5-2v6h-3l-3,3h-4l-2-2l-1,3h-2l-2,4l-4,2l-3-1l-1-3h-9l-2,4l-5,2l-5,6v2l-3,1l-5,10v4l-5,4l-7,1l-12-3l-6-7l1-3
      l2-1v-8l-2-3l-5-5l-10-2l-6-6l-9,4l-1-4h-8l-2-2h-4l-3-4l-4,2l-6-3l-5,4l-12,2l-2,2l1,2l-7,6l-4-8l-7,5l-6-1l-1-14l-8-3l-2,2l-1-9
      l-5,5l-4-12v-6l-6-5h-7l-23,9h-2l-1-3l-5,2l-7-8l-4-8h-6l2-2l2-14l-9,8l-2-3l3-4l-3-3l-13,5l-1-1v2l-10,3l-50,5l1,4h-4l-2,2l-2-5
      l-8-1l-14,5l-11,7l-3-3h-4l-2,2l-9-1l-4,4l-2,5l-2,1l1-1l-3-3l-1,3l-3,2h-8l-7,9h-11l-4,4h-4l-2,4l-19-8l-5,1l-5-2l-4,8l-2,10
      l-8-3l-5-7l-10,2l2,3l-3-1l-1,2l-1,5l2,1l-2,3h2l-2,3l5,5l1,3l-2,4l-2,17v4h2l-1,2l-8,1l-3,5l-2,8l-11,11l-6,2l4,5v6l-6,4l-7,1
      l-1,3l-5,3v4l-6,7v2l-3,3h-2l-1,5l-8,6l-2,10l3,1l2,6l-3,3v8l-2,2v4l-4,4l-1-1l-3,4l3,3l3,8l-1,7l-8,8v2l-4,1l-7,5l2,1l-1,5l-3,3
      v2l-10,10l5,5l-6,11l-7,5l1,3l-5,2l-8,7h-2l1,1l-2,4h-2v6h2v4h-6l-1,15l-7,2l-5-1l-2,1l-1,3l3,1v4l-16,4l-3-1l-2-5l-7-1l-1-3l-6-3
      v-2h-4l-5-5l-2,2l-3-3h-2l-7,4l-1-1v2l5,5l-5,6l-1,4l-5-1l-4,5l-8-4l-1,3l4,7l-9,5l-8,1l-2-2l-3,1l-5-3l-12,1l-5-5h-8l-2,2l-1,7
      l5,3v4l-4,6v10l-4,5h-4l-4,5l-4,1v2l-9,7l1,3l-5,2v4l-3,3h-8l-3,3h-2l-3,6l2,2l3-1l3,4l-1,1l-5,4l-7,1l-8,12l-5-1l-1-7l-7-1l-3-3
      l-8,2l-1,3l-6,2l-3-1l-2,3l-4,2l-3-1l-2,7h-2l-4-4h-4l-8,15l-9,1l-3,9l-6,5v2l-1-1l1,5l-2,2l-1-1l-6,3l-7,1l-7-1v2l-3,3h-4v-4l2-4
      l1,1v-6l6-4l3-8l-6-4l-5-16l-12,2l-2-7h-17l1-5l-2-3h-2l-1,7l-5,5l1,5l-13-1l2-4l-7-2l-10,7l1,5l-2,4l-1-1l-6,2l-10-12l5-5l-1-5
      l13-11l-3-6v-4l-2-2l-9,2l-1-6l-5-5l-9-4l-4-8l-7-1l-2-2l-9,1l-3,3l-4,10l-3,2l-8-1l-4,2l-3-3l-7-1v-2l-9-8l1-3l-4-3l-1-3l2-2
      l-2-2v-7l-2-2l-1-6l-2-2h-6l-5,4l-4-2l-1-3l-6-4l-4-5l-9,9l-8,3l-2,6l-6,5h-2l-2,4l-11,11h-6l-4,2l-11,9l-4-4h-2l-3,4h-4l-3,3l3,6
      v6l-7,10l-1-1l-3,3l-1-2l-2,6l-2-2v4h2l-4,2l3,3v4l2,2l-1,7l2,4l-3,4v4l-6,2v4l-3-1v2l-3,1l2,2l-1,1h2v8h-2l2,8h-2l1,3l-2,2l2,4
      l-3,3h2v4l-7,3l2,6l-6,6h-6l-2,4v8h-5v-4h-2l-3-3v-2h-2v-6h4l-2-4h-8l-3,2l-2-1l-2,4l1,1l-4,2l-4,5l-1-1l-5,3v-2h-4l-4,4h-2l-1,3
      h-2l1-1h-2l-2-4l-3,1l2-2h-2l-2-4h-4l-5,3l-1-1l-2,4h-2l-1-3l-3,1l-5-3v2l-22-1l-6,3l-9-2l-15,7l-5,10l-8-1l-6,2l-6,8v6l-6,7
      l-11-5l-2-5l-9-2l-8,1l-2,2l-5,1l-7-1l-12-5l-5,1l-6-2l-4-3l-1-3l-4-2l-7,1l-6,8l-5-1l-4,2l-2-2h-4l-6-6h-4l-4,3l-1,3l-8,3l-6,8
      l-9-10l-5,1l-2-2l-1,3h-2l1-3l-2-2v2l-5-6l-3,2l1-3l-3-1v-2l-2,1l3-3l-7,3l2,2l-3,1l1,3l-9,2l-4,4v7h-2l-1,3l-4,2l-4-3h-4l-2-3v2
      l-5-2h-16L2059,589z"/>
  </g>

  <g id="ksh-region-6">
    <path d="
      M2587,1141l4-12l-5-4l3-3l1-12l7-13l9-3l4,1l8,6l7-1l-2-22l8-6l9-2l12-7l12-1l7,5h3l33,24l13-13l7-16l6-5l13-6l-2-10l4-27l2-3l6,3
      l1,3l18,9l14-8l23-6l5-9l3-1l2,3h10l6,3l4,11l-2,6l2,1l3,28l8,14l-7,17v4l-3,2l5,4l5,10l13,5l6,7h6l22,8l21,10l3-5l12-8l-11-7
      l-10-19l12-7l27-7l7-4l30-2l1,12l4,15l8,3l1,7l3,4l-2,3l2,6l3-1l10,6l8,1l-4,9l8,3l15,2l12,27v9l-11,25l36,47l11,3l8-1l13-5l1,2
      l-2,2l2,2l-1,3l-3,1l3,4v9l6,4h10l17-5l9-7l7-8l-1-7l3-8l5-6l10-7l11,3l4-1l11-8l6-13l4-19l19-8l8-1l12-5l9-9l9-4l10-10l38-19l2-3
      v-10l-4-5l1-1l3-1l12,2l4-1l11-7l2-3l1-10l-7-3l-2-2l-1-5l3-5l12-4l1-2l-1-6l3-5v-3l-4-8v-6l13-10l12,3h4l5-3l2-6l6-7l-6-9v-3l6-9
      l17-9h3l14,14l8,1l-2,7v4l2,2l2,1l2-2l1-5l4,6h6l2-2v6l4,8l9,4l3-1l4-6l-3-4l-10-4l-6-6l-2-15l18,3l4-1l3,3h5l4-2l2-6l-1-2h-2
      l-7,3l-3-12v-5l3-6l3,1l4,11l6,1l9-8l5-2l7,2v-12l7-6l5-7l1,1l11-4l8,2l12-1l4-5v-7l-3-4v-5l4-4l-4-5v-4l6-6l7-3l6,1l6,5v3l3,4
      l7-14l-2-3l2-3h2l4-9l-3-2v-2l4-2l1,1l4-9l-1-2l5-3l-1-3l2-3l-2-3l5-8l-2-2l9-13l-2-3l-2-12h-3v-2h-2l-6-7l-2-4h2v-2l-2-3l-4-1
      l3-2v-3l3-3l7,1v-3l3-3h6l1-17l2-7l-2-6l5-4l4-8l3-2l15-3l3-8l-2-5l-11,1l-3-6v4l-5,3l-2-2l-2,1l3-9l9-4l4-5l1-9l6-21l-10-10h-5
      l3-5l-1-5l-4-7l-10-11l-2-5h-3l3-8l7-2l-1-8l3-4l7-2l3,1l6-12l6-7l2,1l2-2l-2-4l2-4l1,3l3,2l4-2v2l7,5l4-5l9,2l2,2l-3,6l2,9l4-2
      l13-1l14,7h4l8-5v-2l-6-7l1-3l14-15l7-3l4-5h2l-1,13l5,10l5,3l2-1l8,3l6-5v11l15-4l5,2l4,8l2,1h5l6-3l3-3v-5l2-2l12,2l7,8l2-2
      l-3-4v-5h5l11,5l10-3l2-6l-5-5l1-9l2-2l3,2l2,6l4,4l6-1l3-6v-21l5,1l5-4l8-1l-8-9l-4-1l-5,3l-2-1l-3-10l1-1l9,4l4-2v-4l-20-17
      l-5-8l-2-7v-2l7-6l5-7l-4-3v-3l3-4l-2-15l-2-1l6-5v-2l2,1l3-3l2-6l-1-1l3-6l6-2l6,2l2,6l-1,2l6,4l3-1v-10l4-4l5-1l11,4v4l4,2l-1-5
      l14-3l-1-2l-6-3l10-4l4-4l-1-5l10-1l2,3v-3l3-1l1-3l11,1l3-10l3-1l6,3l2,4l9,7l19,4l11-1l27,3l7-3l15,1v-2l3-3l5,7l-2,2l2,4l3-1
      l4-6l-5-1v-11h2l5,7l5-5l10-3l-1,14l7-3h6l1-1l-4-4l5-3l-2-6l9,5l2-8l7-1l3-3l-2-9l13-5l-3-6l2-8h3l3,8h2l1-6l-2-4l5-4l1,6l6,5
      l-5,5l7,8l1-1l-3-6l8-1v-11l15,3l8-3l10-7h2l-1-1h2l7,7l8,2l4-11l4-4l8-3l-2-2l-1-6h2l3,4l1-3l10-5l2-2l1-5l10-10l1-5l4-7l2-2
      l11-3l1-4l5-3l-1-4l3-4l8-1l-1,12l15-7l10,12l6-1l2-5l-3-11l12,4l4-2l-2-18l3-3v-2h7l1,1l-3,6l4,2l3-3v-2l-3-5l-4-1l3-4l9-5l-6-1
      l1-4l8-5l5,2l2-2v-3l-3-4l-4-3l-5-1v-2l10,2l2,3l2-1l1-6l-6-1l-2-4l2-11l3-2h8v-4l-4-6l1-2l11-2l5-3l1-13l2-2l8-4l11-1l13-11l4-1
      l6,1l8,11l8,5l16-1l4,2v5l-6,12l-12,6l1,3l6,3l3,4l10,20l19,4l3,3h14l2,4l-2,6l2,7l-5,15l1,2l3,1v5l2,4l5,2l3,4l4,1l-1,3l3,10
      l-3,6l3,9l-2,3l8,9l2-1l6,7l5,16l3,5l-1,2l11,12l1-5l6-3l5-9l13-1l1,2l9,2l-2-5l2-1l6,2l5,7h6v2l10-6v-3l1,3l14-6l8,4l-2,3l4,2
      l-5,6l14,1v5l-3,7l7,8l1,4l5,4l1,4l4-2l5,3l10,11l10,2l-2,13h-5v3l3,3l-1,2l8,19l2,2l4-1l4,8h2l5,7l-2,2l-5,1l-1,2l6,6l-2,3l-1,10
      l6,7l-6,4l-1,6h3l6,4h8l4-2v2l3-1l8,10h17l7,4h5l18-14l5-6h4l7-6l7,1l3-6l5,3l6-3h6l3,9l6,3l5-4l-5-5l1-5h3l9,6l4-1l3-5h3l4,4
      l-4,8v3l2,2l4-1v-5l3-7h7l6,10l-3,8v7l2,2h4v5l3,3l-3,3v4l2,1l4-5h3l3,5h2l4,5v5h-2l4,8l-2,3l3-1v2l-3,1l7,7h2v-5l3,2l3-1l-1,20
      l-5,13l-6,3v12l-6,3l-4,6h-3l2,4h-4v2l-7,7l7,6l-3,3l1,2l4-2l4,1l1,2l1-1v2h4l-2,2l1,1l2-2v3l3,1l1-3l4,3v3l-2,3h-2l1,3l2-3l2,3
      l2-3v6h2l4-4h5l1,4l-3,1l2,2l-1,4l4,1l-1,4l-3-1l-3,2l-2,8l-4,1l-5,7v5l-4,4v3l-7,6v4l-7,9l-6,1l-5-2l-5,2l-8,8l-10,4l-6,6l-7-3
      l-9,1l-3-2h-6v9l8,9l-5,11v3l8,1l-1,5l3,1l2,9l-1,8l-8,1l-8,8h-10l-2-2l-7,1l-1-2l-3-1h-4l-3,2l-3,7v6l-4,1v3l-3,1v4l-12,28h-2
      l-1,3h-10l-3,5l-11,4l-8-2l-8,5l-7-1l-3,6l-45-1l-7-10l-38-26l-5-6l-10,7l-11,2l-5,5l-3,7l-4,24l-7,21l2,1l2,5v5l-15-2v-5l-6,1
      l-4-2l-5,4l-10-4l-4,1l-10-2l-16-15l-8-5l-5,1l3,13l-3,12l-8,2l-3,5h-2l-10,8l-16-2l-3,15h2l-2,21h-2l-2,3h-10l-7,2l-6,11l2,2
      l-4,19l1,1l-7,9l-6-1l-3,20l-2,2l-5,26l-5,5l-4,13l-6,3l-11-2l-11-5h-8l1,10l-4,2l-6,12l-8,3l-1,6l-7,10l-2,1l-1-3l-7-3l-4,2v2
      l-3,3l-5,2l-6,6v2l12,9l-7,10l-12-11l-18,26l-3,11l-3,5l-1,11l-3,7l1,9l9,23l9,3l-5,9l7,17l-3,1l2,2l-3,2l4,10l-9,24l-3,3l-5,13
      l-9-1l-7-5h-3l-1,2l-5,2h-2v-2l-10-2v2l-7,6l-5-1l-4,2v6l-4,8l-7,7l-2,13l-10,14l-2,6l-7,7l-5,23l-3,4l1,2l-5,2l-1,2l2,4l5,4v8
      l-6,6l-7,4l-9,17l1,1l-5,6l-4,16l3,3l6,1v36l-8,3l-7,7l-5-1l-1,4l-4,2l-1-1l-2,2l-2-1l-10,28l-2,17l-7,7l1,5l-3,3l2,1l-2,3l3,2v5
      l-1,1l-14-4l-14,4l-19,8l-10,16l2,9l-6,4l-1-1v2l-3,2l2,5l-7,3l2,3l-6,2l1,2l-5,2l-2,7l-11,2l-7,4l-5-1v7l7,13l-1,1l-4,3l-7,1
      l-2-8l-9,4v6l-3,3l-3-1l3,6l-9,5l-6,6l-9,1l-11-2l-5-4l-3,10l-5,5l-3,11l7,18h-4l-2,2l-5,1l-6-3l-4,6v4l-4,1v-2h-2l-2-4h-2v3l-3,2
      h-2l-1-3l-6,5h-4l-1-2l-2,5h-2l-4,6h-2l-1-2l-2,2l-2-1l-4-7l-20-7l-15,14l2-9h4l-1-7l9-1l-3-8v-5l-10,2l-3-6l-4-2l-43-4l-26-12
      l-35-13l-9-5l-4-1l-5,3v-4l-7-7l-4-7l2-8l4-7l-1-8l-5-10v-6l41-23l5-6v-8l-3-10l10-7h2l-6-8v-12l-4-2l5-21l-5,3l-29,1l-10-7l-7,3
      l-15-15l-62-11l-14-10l-28-25l-5-2l4,17l-11,3l-23-37h-4l-3-7l-13-1l-3,7l-8-5l-7,6l-9,17l-7,25l-9-2l-5,3v2l-5,1l-7,8v2l-11-2
      l-34,28l6,12l3,3l1,12l5,3l-15,3l-2,6l2,13l-3,7l5,1v3l-4,8l-1,6l4,5l9,5v4l-4,2l1-3l-10-5l-2,10l-2-1l-9,9l-17,7l6,8l-3,2h-34
      v-10l-3-8l-7,2l-14,9l-1,10l-2,3h-2l-3-4l-3,1l-3-2l-4,25h6l4,6l1,7l-3,3v7l-3,12l8,4h-4l-1,3l7,5l3,9h-6l-5-3l-6,2v2l6,4l10-1v9
      l2,1l-2,8l-4,3v5l-12,11l-3,6l-5,5l-14-3l-23,14l-26-18l-1,1l-3-2l-11,7l-18-1l-4-4h-3l-4,3v8l-6,7l-29,10l-7-1l-10-4l-1-3l-9-6
      l-7,6l1,1l-8,11l-6,13l-19,16l7,26l1,16l3,6l2,16l-7,6l-5,1l-6,4l-28,5l-7-1l-5,9v10l-3,3l-6,2l-31-5l-4-9l-15-18l-16-6l-8-1
      l-10,9l4,7l-5,5l-9-5l-4,2l-4,6l1,1l-4,4l-1,5l-4,7l-5,6l-30-19l-13-13h-6l-3,2l-1,7l4,8l-4,5l-8,2v-12l-7-15l-11-3l-4-11v-11
      l-3-4l-8-5l-2-5l-6,1l-3,4v2l7,10v7l-5,6h-3l-4-3l-2-4l-7-4l-8-12l2-5l8-2l6-3l1-2l13-1l1-7l13-5l7-1l4,2h13l7,2l8-5l-5-13l-10-6
      l-6-14l27-23v-11l17-4l6-3l4-6l-1-10l-5-10l-5-4l-14-3l-7,3l-4,5l-3-3l-2-14l2-3l4-2l14-3l2-6l-4-5l-1-5l3-5l6-5l-7-9l-26-16
      l14-27l-4-7l-4-3l-8-2l-8-34l-4-9l-7-5l1-5l-10-13l4-3l-2-7l-6-11l6-18v-4l6-4l15-17l11-18l-9-20l-2-8l-3-2v-12h-3l-8-4l-15-14
      l-10-6l-31-10l8-24l12-25l1-6l-4-3l-16-31l2-6l-1-5l-7-6l-11-16l-14-9l-18-8l-49-33l-11-11v-2l-13-4l1-9l-8-20l-39-27l-8-8l11-13
      l6-18l4-3l3-5l2,1l5-8l-10-8l-7,9l-7-6l-8,4l-6-7l-8,8l-6,2l-8,12l-5,1l-12-17l-3-1L2587,1141z"/>
  </g>

  <g id="ksh-region-7">
    <path d="
      M1917,2739l4-3l11-16l12-33l20-9l4-5h12l-6-6l8-17l4-4l3-10l5,1l1-3l1-8l-2-9l2-4l-1-2l3-17l5-1v-5l2-4h12v-5l-3-3v-8l4-5v-10h-3
      l-4,3l-9,12l-12,8l-6-3l-2-4l5-11l5-4h3l4-4l3-8l3-3l6,1l4,3l7-9v-5l-9-13l-2-9l1-2l8-3l10,11l7,2l10-2l-1-5l2-13l6-25l1-7l-2-8
      l-9-9l-6-10l-4-27l-1-20l-5-19v-7l3-9l8-10l1-5l13-26l3-11l-1-15l-4-18l-13-23l-3-10v-17l2-12l-3-14l-16-27l-6-7l-3-12l2-10l5-5
      l10-17h25v-2l12-5l6-6l10-4l1,5l7-5l9-11l10-21l8-9l2-6l-1-17l-15-27l-1-11l-4-10l1-7l-6,1l-2-9l-13-28l3-2l-14-8l-6-10l-2-7v-32
      l2-11l4-12l11-16l9-18l4-23v-13l-2-10l-6-15l-3-17l1-12l12-21l1-9l-2-10l3-2l5-10l-7-10l-4-2l-3-4l-1-9l27,8l19,3v3h2l1,3l29,11
      l4,4l1-3l18-9l2-7v-11l4-4l23-7l6-11l11-8l4-5l28-2l5,9l20-45l10-3l13-1l10,7l12,2l9,6l12,12l8,11l7,6l-12,17l-13,11l-14,33l18,25
      l4-10l6-5l16-6h14l9-6l31-27l8,5l11,3l5,3l9-2l10-23l5-26l8-19l19,8l21,4l6-1l10-9l3-5l24,42l7,21l5,26l33,41l12,12l20,11l39,32
      l16-7l23,12l5-1l3-3l13-25l1-7l4-6l6-16l12,10l24,15l6,2l14,1l22,10l-1-22l12-16l20-10l25-6l6-7h2l12,11l30,18l7,9l-6,5l-3,5v3
      l5,7l-2,6l-18,5l-2,3l1,11l3,6l3-1l2-4l7-3l14,3l5,4l5,9l1,11l-4,6l-9,4l-9,1l-4,2v7l-3,6l-24,21l5,14l10,6l5,13l-8,5l-7-2h-13
      l-4-2l-7,1l-13,5l-1,7l-13,1l-1,2h-3l-3,3l-9,3l-1,4l8,12l8,5l1,3l4,3h3l5-6v-6l-6-9l-1-4l5-5h4l2,5l11,8v12l2,8l3,4h6l5,3l2,7
      l4,6v13l8-2l4-5l-4-8l1-7l2-2h7l13,13l30,19l5-6l4-7l1-5l4-4v-3l5-6l9,5l7-4l-1-4l-3-3l10-10l8,1l16,6l15,18l4,9l31,5l6-2l3-3v-10
      l5-9l7,1l6-2l25-3l3-4l5-1l7-6v-5l-5-17l-1-16l-7-26l19-16l6-13l8-10l-1-2l7-6l9,6l2,4l15,4l29-10l7-7v-9l4-2l4,1l3,3l18,1l10-7
      l4,2l1-1l26,18l23-14l14,3l5-5l3-6l12-11v-4l4-4l2-8l-2-3v-7l-10,1l-6-4l1-3l4-1l10,5l2-2l-4-10l-6-4l1-3h4l-8-3l3-12v-7l4-4l-2-1
      v-6l-4-6h-6l4-24h6l3,4h2l2-3l1-10l14-9l7-2l3,8v11l34-1l3-2l-6-8l17-7l9-9l2,1l2-10l10,5l-1,3l4-1v-5l-9-5l-4-5l1-6l5-11l-6-1
      l3-7l-2-18l17-4l-5-2l-1-12l-9-16l34-28l11,2v-2l7-8l5-1v-2l5-3l9,2l7-24l9-18l7-6l8,5l3-7l13,1l3,7h4l23,37l11-3l-4-17l5,2l28,25
      l14,10l62,10l14,16l8-3l10,7l29-1l5-3l-5,21l5,4v10l5,8h-2l-10,7l3,10v8l-5,6l-41,23v6l5,10l1,8l-4,7l-2,8l4,7l7,7v4l4-3l5,1l9,5
      l35,13l25,12l43,4l3,1l5,7l10-2v5l3,8l-9,1l1,7h-4l-2,9l15-14l20,7l4,7l2,1l1-2l1,2l5-2l2-4h2l1-5l2,3l2-3l1,2l7-5l1,3l2,1l2-3
      l1,1l-1-2l3-2v2l4,2v2l4-1v-4l4-6l1,2l1-2l4,2l11-2l-7-18l3-11l5-5l3-10l5,4l11,2l9-1l6-6l9-4v-2l-3-2v-3l3,1l3-3v-5l5-4l4-1l1,8
      l8-1l5-4l3,2l10,2l3,14l1,2l4,1l-1,4l-6,1l-2,6l1,5l-5,8l-2,10l6,1l4,3l-2,7l-2,1l-2,6l-11-2l-2,6l-4,4l-1,4l-6,4l-2,6l-25,1l-4,9
      l1,16l2,5h4l5,19h-6l-2,2l-2,6l2,11l-4,4l-2,5h-8l-9,5l-11,2l-6,5l-7,1l-3,9h-9l-2,4l1,9l-2,4l3,9v7l-2,2l-1,7l-3,5l1,1l-3,4l-2,8
      l-11,9l-3-1l-4,11l1,6l6,2l13,13l11,7l3,12l-2,9l-6,6l-6,3l1,3l-4,3v7l-6,4l-5,9h-2l-5-6l-7-4l-16,7l-12-7l-3,2l-2,6l3,5v6l9,12
      l8-1v6l-10,11l-14,5l-4,4l-5,22l-21-7l-2-5l-9-5l-9,8l-4-1l-9,2l-4-2l-12,15l-5,19l-4,9l4,5l1-2l4,4l1-1l4,3l-12,19l1,4l-8,9l-4,8
      l-6-1l-5,5l2,6l-12,35l11,27h16l6,13l9,14l-3,1l-1,10l-12,18l-5,11l6,7l-9,3l-7-3l-26-4l-10-3l-5,2l-2,10l-7-2l-7,35l2,24l-7,9
      l-10,4l2,5l-2,1l1,7l-3,5l5,15l-3,1l-1,3l-5,3h-12l-3-2l-1-6l-22,4l-9,41l-2-2l-2,2h-3v2l-3,2l-2-1v5h-2l-1-2l-2,5l-7-2l-3,12
      l-4-3l-18-3l-8-19l-17,6l-8,1l-15-1l-10-3l-3-2l-4-15l-16,3l-2,16l-23-10l-13-18l-53,14l-12,1l-6-2l-19,26l9,49l-25-3l1,2l-2,9
      l6,4l-7,6l-7,22l-7,4v2h-4l-4,3l-1,6l-6,8l-7-2l-4-5l-3-1l-10,4l-3,16l-6,7h-4l-3-2l-8-12h-2l-3-6l-6-3l-7-1l-1-3l-10-9l-5-2l-3-5
      h-2l-4-4h-3l-2-5l-7-4l-16-2l-14-9l-1,2l-3-1l-1,2l2,3l-4,4l3,3l-2,8l-15,19l-10,10l-10,1l-14-3l-12-7l-5-5l-4-1l-2,5l-10-6h-2
      l-6,5l-3-2l-7-15l-32,20l-2-6l-8,4l-19,21l-1,5l-5,1l-2,2l-5,9l-4-4v-4l2-2l-3-5l-11,7l-2-6l-14-7l-2-9l-19-16l-9,7l-16,9h-7l-4-6
      l-19-13l-2-10l2-1v-2l-3-2l-6,1l-22,33l-5-4l-8,4h-6l-4-2l-7-28l-5-4l-59,1l-7,8l-7,5l-13,4l-17,9l-16,2l-6,8l-19,15l-4-4l-8-4
      l-3-4h-4l-8-6l-7,1l-9-4l-14-20l-5-4l-4,2l-7-3v-4l-2-3l-7-5l-5-6l-8,6l-1,3h-3l-9-7v3l-6-7l-22,22l-46-10l-6,5l2,4l-2,4l-18,15
      l-6,4l-7-4l-11,10l6,6l-2,1v3l14,13l-13,11l-17,7l-3-1l-1,3l-7,5l-4,1l2,7l-1,8l-20,16l-11,12l-6,10l-15,3l-10,7l-12-17l-60,39
      l15,24l-5,4l-8-9l-36,2l-2-4l-24,1l4,5l-29-1v-2h-13v-13l-6-21l-4-8l-21-4l-29,42l6,18l4,20h-10l-7-2l-19,1l-8,1l-9,5l-6,13l8,24
      l-10-1l-5-6v-2l-21,6l-39-9l-11,11v3l-2-1v2h-2l-4,4l-5,1l-4-2l-2-3l3,10l-30,6l-4-9l-7-10l-6-4l-1-4l3-4l2,1l12-4l1-3l5-1l1-5
      l1,3l1-3l4-2l2,3l-1,5l5-2l1,1l2-2l-7-6h-2l-3-3v-2l-8-3l-1,1l-2-5l2,1l7-12l2-5l-2-4l1-4l22-39l-19-10l3-5l-2-4l-5-3l-23,19
      l-10-3l-2-2l-4,2l-1-1l-6,4l-2-4l-5-4h-5l-4,3h-7l-2-9l-4-7L1917,2739z"/>
  </g>

</g>

</svg>
