<?xml version="1.0" encoding="utf-8"?>
<!DOCTYPE svg PUBLIC "-//W3C//DTD SVG 1.1//EN" "http://www.w3.org/Graphics/SVG/1.1/DTD/svg11.dtd">
<svg version="1.1" id="Layer_1" xmlns="http://www.w3.org/2000/svg" xmlns:xlink="http://www.w3.org/1999/xlink" x="0px" y="0px"
   width="4950px" height="3065px" viewBox="0 0 4950 3065" enable-background="new 0 0 4950 3065" xml:space="preserve">
<defs>
<style type="text/css"><![CDATA[
g path {
  stroke-linejoin: round;
  stroke-linecap: round;
  fill-rule: evenodd;
  stroke: #fff;
  stroke-opacity: 1;
  stroke-width: 2;
  stroke-dasharray: 3;
  fill: #FFEDA0;
  fill-opacity: 0.7;
}

/** COLORS **/

]]></style>
</defs>

<g id="ksh-country-1">

  <g id="ksh-region-1">

    <g id="ksh-county-1">
      <path d="
        M2058,1146l10-8v-2l-5-3l3-3l-6-16l6-2l4-5l19,3l6,3l4-8v-3l-4-2l3-3l9,5l2-2l2,2h4l15-5l6,2l1-1l-3-11l-4-7l9-6h17l8,3l1-1l2,2
        l-4,17l3,1l18-26l7,3l-2,4l1,1l8,3l7,6l7-2l2,4h-2l11,12l-6,7l5,5l4-3l12,13l-9,5l14,13l-2,2l6,5l6,4l3-3l4,3l4-3l8,8l18-4l10,17
        l3,14l12-3l14-1l7-3h8l1,4l-5,8v10l6,11l4,3l2,4v11l3,4l-3,4h-6l-6,3h-8l-5,3l-11,19l-11-2l-4,12l-4-2l-6,11l-6-4l-1-4l-1,3l-3-1
        l-10,12l6,6l-6,7l-2-2v2l-7,6l-9,23l-10,14l-21,5l-7,7l-9-11l-22-20l5-9l-8-4l-8-15l-6,1l-7,4l-3,3l3,4l-2,3l-6-3l-2,7l-3-2l-3,4
        l-4-3l-6,3l-1-3l-4,2l-3-4l-17,3l-14,5l-10,10l-5-5l-3-13l2-8l6-2l-4-21l15-13l1-17l-7-5l6-4h3l1-6l-3-9l-13-17l-4-2l-6,5l-4-7
        l-4-3l2-6h4l1-3l-3-6l-6-2l8-12l-7-5l-1,2l-5-1l1-3l5,2l1-22l-5,1L2058,1146z"/>
    </g>

    <g id="ksh-county-13">
      <path d="
        M1885,1109l7,13l1,5l-4,6l-2,7l2,4v13l26,45l3-1l6,3l6-3l9,15l13,14l3,9v15l4,9l-3,2l2,7l-9,8l-4,1l-6,5l-4,11l4,3l3,5l8,6l9,19
        l10,9l5,11l15,16l1-1l12,9l10,13l3,5l-5,9l-2,1l2,1l3-2l12,5l-6,16l5,10l1-1l27,4l1,13l-6,19l-1,14l-21,38l-2,22l-4,12l1,20
        l17,75l3,5l8,4l25,20l14,20l3-2l5-10l-7-10l-4-2l-3-4l-1-9l27,8l19,3v3h2l1,3l29,11l4,4l1-3l18-9l2-7v-11l4-4l23-7l6-11l11-8l4-5
        l28-2l5,9l20-45l10-3l13-1l10,7l12,2l9,6l12,12l8,11l7,6l-12,17l-13,11l-14,33l18,25l4-10l6-5l16-6h14l9-6l31-27l8,5l11,3l5,3
        l9-2l10-23l5-26l8-19l19,8l21,4l6-1l10-9l3-5l24,42l7,21l5,26l33,41l12,12l20,11l39,32l16-7l19,11h9l3-3l13-25l1-7l4-6l6-16
        l12,10l24,15l6,2l14,1l22,10l-1-22l12-16l20-10l25-6l6-7h2l16,13l14-27l-4-7l-4-3l-8-2l-8-34l-4-9l-7-5l1-5l-10-13l4-3l-2-7
        l-6-11l6-18v-4l6-4l15-17l11-18l-9-20l-2-8l-3-2v-12h-3l-8-4l-15-14l-10-6l-31-10l8-24l12-25l1-6l-4-3l-16-31l2-6l-1-5l-7-6
        l-11-16l-14-9l-18-8l-49-33l-11-11v-2l-13-4l1-9l-8-20l-39-27l-8-8l11-13l6-18l4-3l3-5l2,1l5-8l-10-8l-7,9l-7-6l-8,4l-6-7l-8,8
        l-6,2l-8,12l-5,1l-12-17l-23-16l4-12l-5-4l3-3l1-12l7-13l-10-11l3-19l-7-13l-3-2l-1-5l-4-3l6-9l-3-2l-10-2l-6-3l-5-5l-4-6l1-4
        l-12-24l7-5l-4-3l3-8l2,2l2-4l-1-3l2-4l-14-13l-6-8l-10-8l-17-9l-5,5l-6,12l-5,3l-1,4l-2,2l-7,1l-9,6l-2,4l-1,6h8l5,3l3,6l-2,3
        l-3-1l-20,10l-7-16l-2-8l1-2l-4-3l-5-1l-3-3l-4-11l-3-2l-5-9l1-12l7-7l2-7l-2-7h-8l-7-4l-6,1v-7l4-3l4-17l14-6l-15-16l-10,1l-3-3
        h-5l-5-4l-9,1l-2,3h-17l-18-14l-4-1l-36,8l-11-3l-6,3l-13-2l-2,2l-7-7l-1-4l-7-3l-4-5l-15-5l-2-2l-2,2l-7-2l-4,5l-16-5l-24-2
        l-6,4l-3,7h-4l-4,3v-3h-2l-7-6l1-6l-2-3h-2l-3-4l-5-2v2h-4l-4-4l-2-4l1-5l-2-2l2-6l-2-3h-3l-6-9l-13-3l-10-10l-9-16l-10-3l-9-9
        l-2-9l-11-10l4-4v-2l-6-4l14-12l11-6l14-11l-4-9l12-4v-11h-2v-3l4-4v-2h-5l3-7l-3-2l-4-10l-4-2l-6,1l-5,4l-5-4h-4l-3,2l-8-15
        l-4-2l-10-16l-15,6l-10-4l-1,1l-4-5l-3,7l2,2l-2-1l-6,5l-10-4l-4,3l-7-5l-4,2l-2,4l-3-1l-3,7l-5-2l-2,4l2,2l-1,1l4,3v4l-2,4l-6,5
        l1,12l3,3l-3,8h2l-3,4h2l-2,5l-10,8l-10-2l-7,3l-7-1l-10,10v4l2,3l11,9l3,6l-4,7l2,12l-2,6h2l-12,14v4l4,7l-3,2v4l3,1l-5,6l1,2h2
        l3,15l-1,11h3l2,4h7l1,3h8l3,8l13,3l6,5v10l4,4l1,5l7,5l9-1l4,4l-6,6l2,7l13,1l11,3l12,7l4,8v9l3,16l3,4l9,5l-3,10l2,7l-4,7v3
        l4,5l4,2l3,4l-1,2l6,4l-4,5l-2,6l-9,5l-1-3l-11-7l-8-2h-4l-4,5l-5,1l-5-2l-2,2l-3-1l-4,3l-2-1l-2,3l1,3l2,1v3l-3,7l3,2l-6,5l5,6
        v3l6,12v18l2,1v3l-11-2l-5-3l-2,2l-8,2l-6-4h-7l-7-8l-6-4l-10-3l1,4l-3,7h-8l-4,2l-8-2l9,8l6,3l6,10l3,2l-7,2l-1-1l-5,3l-4,5
        l-11,8l-4,10l-13,6l-1,9l2,4l-3,4l-7,3l-10,9L1885,1109z M2058,1146l10-8v-2l-5-3l3-3l-6-16l6-2l4-5l19,3l6,3l4-8v-3l-4-2l3-3
        l9,5l2-2l2,2h4l15-5l6,2l1-1l-3-11l-4-7l9-6h17l8,3l1-1l2,2l-4,17l3,1l18-26l7,3l-2,4l1,1l8,3l7,6l7-2l2,4h-2l11,12l-6,7l5,5l4-3
        l12,13l-9,5l14,13l-2,2l6,5l6,4l3-3l4,3l4-3l8,8l18-4l10,17l3,14l12-3l14-1l7-3h8l1,4l-5,8v10l6,11l4,3l2,4v11l3,4l-3,4h-6l-6,3
        h-8l-5,3l-11,19l-11-2l-4,12l-4-2l-6,11l-6-4l-1-4l-1,3l-3-1l-10,12l6,6l-6,7l-2-2v2l-7,6l-9,23l-10,14l-21,5l-7,7l-9-11l-22-20
        l5-9l-8-4l-8-15l-6,1l-7,4l-3,3l3,4l-2,3l-6-3l-2,7l-3-2l-3,4l-4-3l-6,3l-1-3l-4,2l-3-4l-17,3l-14,5l-10,10l-5-5l-3-13l2-8l6-2
        l-4-21l15-13l1-17l-7-5l6-4h3l1-6l-3-9l-13-17l-4-2l-6,5l-4-7l-4-3l2-6h4l1-3l-3-6l-6-2l8-12l-7-5l-1,2l-5-1l1-3l5,2l1-22l-5,1
        L2058,1146z"/>
    </g>

  </g>

  <g id="ksh-region-2">

    <g id="ksh-county-7">
      <path d="
        M1409,1371l-1-7l3-1l11-10l10-4l11-1l4-3l-6-10l1-7l4-6v-5l4-7l4-1l6-5l3-6l1-10l-4-9l3-3l4-1l4-6l-5-12l2-5l9-3l6-5l5,4l5,9l5-1
        l2-3l8-5l6,4h4l7-7v-4l-2-2l2-4v-8l-5-8l1-1l7-1l9,8l1,3l21,9l-1,6l2,9l-2,2l2,1l2,6l8,7l9,4l1-1l2,2l1-1v2l3,1v3h2l-1,3l4,6
        l11,7l2,3l8,3l2-3h3l4-4l3-10l7,6h2l25-8l-3-2l-3-6l-7-3l-7-11l1-3l10-14l10-7l10,12l4-3l1,1l6-8l3-7l4-5h2l3-12l3-5l5-2l3-5l9,8
        l2-2l4,4l2,6l9,7v-4l5-2v-5l-2-2l3-2v-2l-2-2l1-1l3,2l3-2l2-7l6,2l2-4l4,1l3,4l4,1l6,8l13,3l-10-14v-7l-8-2l-15-18l-5-18h3l-9-13
        l3-6l24-2l4,2l2-1l4,4l10-19l10,2l10-8h6l6,5l18,6l4-8l7,1l8-3l15,4l6-2l4-4h5l2-2l8,13l1,5l-4,6l-2,7l2,4v13l26,45l3-1l6,3l6-3
        l9,15l13,14l3,9v15l4,9l-3,2l2,7l-9,8l-4,1l-6,5l-4,11l4,3l3,5l8,6l9,19l10,9l5,11l15,16l1-1l12,9l10,13l3,5l-5,9l-2,1l2,1l3-2
        l12,5l-6,16l5,10l1-1l27,4l1,13l-6,19l-1,14l-21,38l-2,22l-4,12l1,20l17,75l3,5l8,4l13,10l18,17l8,13l2,14l-4,12l-9,13l-1,13
        l3,17l8,24v14l-4,23l-9,18l-11,16l-5,20h-5l-1-2l-8,1l-1-2h-2l2,4h-12l-20,7l9,12h2l-2,1l1,1l-4,1l2,2l-3,2l-4,10l-19,19l-12,9
        l-18,9l-2,3l4,15l-1,1l-6-1l-4,2l-17,3l-8-2l-6,8l-6-1l-14,7l14,31l-5,2l2,3l-5,2l-3-1l-7,4l-12,15l-6,5l-6,4h-8l-7,4h-5l-7,3
        l-2-1l2-2l-3-2l1-1h-4l1-1l-2-4l2,1l1-6h-3v-2l-1,1l-1-2h2l3-3h-2l-2-6l-2,1v-7h-2l2-5l3,1l2-2l-4-1l-1-3l-3-1l-1-6l-2-2l1-2h2
        l-3-1v-2h3l-3-4l1-1h-2l-1-2l-3,2h-5l-11-11l-3,1l-7-4l-11-27l-3,3l-15,6l-8,8l-13,5l7,20l-4,1l-2-3v2h-2v-3l-8,4l-6-5h-2l-11,8
        l3,3l-16-4l-20-10l3-13l2-2l-3-10l-3-4v-5l3-6l-4-9l-6-6l-4,36h-5l-1-8l2-4l-4-5l-3,1v3h-2l1-3l-3-6l-8,5l-2,4l1,1l-2,2l3,2l-4,3
        l-14-10l-20-7l-8-8l1-17l-4-3l-16,9l-13,11v5l-5,5h-4v4l-17,6l-5-2l-8,3l-5-11v-13l-4-12v-10l5-17l-1-10l-4-8l-1-11l6-3l-12-6
        l18-15l-2-2l-2-7l1-2l-5-8l-8-19l-1-3l2-2l-14-20l22-25l3-20l2-1v-8l3-5l11-3l4-10l7-1l12-6l-2-5l-15,6l-4-12l-15-19l1-2l-3-15
        l-5-16l3-1l8-9l4-1l3-3l5-1l-1-5l-6-5l-1-3v-20l-6-21l-2-21l7-3l-3-8h6l-4-8l2-19l-1-5l2-2v-8l-6-13l-14,3l-13-16l-4-2l-2-4
        l-1-11l-9-12l-12,1l-3,2l-1,3h-4l-10,8l-8,2l-6-7l-3-1l-2-9l-4-3l-7-13h-9l-2,2h-4v-3l-3-3v-10l-3-11l5-7l8-5l1-5l-6-2l-6,1l-5-4
        l-4-9L1409,1371z"/>
    </g>

    <g id="ksh-county-11">
      <path d="
        M1289,1238l10-6l-5-3l-3-4l3-4l-2-5l6-2l5,2l-4-6v-5l12-10h7l-3-6l4-3l-5-4l-9-19h-3v-2l-3-3l2-7v-3l-2-2v-7h3v4l11,2l4,3l20-8
        v-2l-6-6l-2,5l-4-1l-11-8l13-23l-8-4l5-3l3-5l4-17l4-9l-15-5l-5-4l-8-2l-6-12l5-9l5-28l-3-7l-5-5l3-4l2-9l4-6l-2-27l-4-15h5l12-5
        l21-1l4-2l5-7l8-5l8,2l13,10l9-1l13-9l7-2l36,1l12,4l34,6l17,7l20,1l16-2l32,5l7,5l14,2l7-3l12-1l20-7l15-3l17-9h11l7-3h8l7-6
        l10-5l10,1l6,3l10,9h10l16-5l12-8l8,1l5-2l16,2l22,7l19-2l7,1l5-3l21-7l20-16l6-2l6-5l4-7l1-14l4-5l22-5l5-4l4-1l11-1l10,2l4,3
        l18,2h6v-2l2,5l13,1l11,3l12,7l2,3l2,5v9l3,16l3,4l9,5l-3,10l2,7l-4,7v3l4,5l4,2l3,4l-1,2l6,4l-4,5l-2,6l-9,5l-1-3l-11-7l-8-2h-4
        l-4,5l-5,1l-5-2l-2,2l-3-1l-4,3l-2-1l-2,3l1,3l2,1v3l-3,7l3,2l-6,5l5,6v3l4,6l3,10l-1,14l3,3l-5,1l-12-5l-2,2l-8,2l-6-4h-7l-7-8
        l-6-4l-10-3l1,4l-3,7h-8l-4,2l-8-2l9,8l6,3l6,10l3,2l-7,2l-1-1l-5,3l-4,5l-11,8l-4,10l-13,6l-1,9l2,4l-2,3l-12,7l-13,13h-5l-4,4
        l-6,2l-15-4l-7,3l-7-1l-5,8l-5-3l-13-3l-6-5h-6l-10,8l-10-2l-10,19l-4-4l-1,1l-5-2l-24,1l-3,7l3,3v4h2l3,4v2h-2l1,9l1,1l1-2v4
        l4,10l7,6l6,8l8,2v7l10,14l-11-2l-7-6l-1-3h-2l-5-5l-4-1l-2,4l-6-2l-4,9l-4-2l-1,1l2,2v2h-2l-1,2l2,2v5h-2l-3,3v3l-10-8l-1-5
        l-4-4l-2,2l-9-8l-2,5l-6,2l-2,3l-4,13l-14,18l1,2h-3l-4,3l-10-12l-6,3l-13,16l-2,5l1,2l6,9l7,3l3,6l3,2l-25,8h-2l-7-6l-3,10
        l-11,8l-22-17v-6h-2l-3-6l-1,1l-2-2l-1,1l-2-2h-3l-12-9l-3-7v-16l-2-2l-19-8l-1-3l-6-6l-9-1l-2,1l5,8v7l-2,5l2,2v4l-7,7h-3l-6-4
        l-9,5l-1,3l-6,1v-2l-10-11l-6,5l-9,3l-2,5l5,12l-4,6l-4,1l-3,3l4,9l-1,9l-3,6l-9,7l-5,7v5l-4,6l-1,7l5,7v4l-3,2h-6l-15,5l-11,10
        l-3,1l1,7h-4l-5-6h-4l-3,2h-8l-6,4l-1-2l-5-2h-8l-2-2l-8,7l1-13l-4-8l-5-5l-11-6l-6,1l5-4l11-2l2-3l-2-9l-3-3h-2l-6-7l-3,1l-6-3
        l-6,1l-6,7l-7-2l-14-9l2-16l4-10l5-4l-1-4l3-6l-5-9l2-4l-5-12l-5,2l-3-6L1289,1238z"/>
    </g>

    <g id="ksh-county-19">
      <path d="
        M710,1677l3,1l5,7l11,8l3,4l5,2l7,10l5,3h5l2,2l3-1v16l6-1l4,2h13l1,3h2l1-3l3,3l5-3h6l4-3l1-4l3,7l8,4l4,5h2l2,5l-1,5l3,4l2-1
        l3,3l3,6v2l-2,1l2,1l3,10l-8,2l2,10l-2,4l-4,1l-1,6h-2l-2,4l1,8l5,5l5,1l7-2l4,4l3-2l4,2l7-5l6,1l14,13v8l2,3l12,5l3,5v7l-7,6
        l4,7l6,2l2,4l-1,4l2,2l-7,13v7l2,3l-2,8l6,2l6,7l5,2l4,6l5,21l15,12l26,26l2,7l19,4l6-1l8-5h20l12-6l18-14l40-18l26-14l31-11
        l23-18l25-13l23-6l18-7l47-33l18,7l8-2l9-6l6-9l2-14l-4-10l28-12l21-6l24-11l29-17l14-11l73-29l10,8h6l9,12l3,7l2-18l2-1v-8l3-5
        l11-3l4-10l7-1l12-6l-2-5l-15,6l-4-12l-15-19l1-2l-3-15l-5-16l3-1l8-9l4-1l3-3l5-1l-1-5l-6-5l-1-3v-20l-6-21l-2-21l7-3l-3-8h6
        l-4-8l2-19l-1-5l2-2v-8l-2-5l-4-8l-14,3l-13-16l-4-2l-2-4l-1-11l-9-12l-12,1l-3,2l-1,3h-4l-10,8l-8,2l-6-7l-3-1l-2-9l-4-3l-7-13
        h-9l-2,2h-4v-3l-3-3v-10l-3-11l5-7l8-5v-6h-11l-5-4l-5-11h-4l-5-6h-4l-3,2h-8l-6,4l-1-2l-5-2h-8l-2-2l-8,7l1-13l-4-8l-5-5l-11-6
        l-6,1l5-4l11-2l2-3l-2-9l-3-3h-2l-6-7l-3,1l-6-3l-6,1l-6,7l-7-2l-8-6l-3,8l-8,3l-9-1l-13,13l-4,2l1,1l-2,2l-5,3l8,17l-3,1l-2,7
        l-6,6l1,8h-7l-4,3l-5-3l-7,1l-2-4l-5,5l-3,6l2,7l-1,13l3,4l-2,9l5,8l-4,2l-1-1l-3,3l-1-1v2l-6,2l-1-1l2-7l-6-10l1-17l-3-5l1-2
        l-2-4l-6-3l-5,1l-8-5l-1-2l2-2l-3-10l-6-5l6-9l-1-4l3-6h5l3-2l1,1l6-4l12-17l-1-6l1-1l2,2l7-6l5-1l-3-8h-2l-1-3l7-6v-4l-1-5l-4-7
        l-14-21l1-6l-5-13l-13-17l-5,3l1,3l-2,1l-1-3l-1,1v4l-3,3l7,11l-6,3l-3-6h-3l-2,3l-1-2l-5,4l-2-4l8-13l-7-7v-2l-5,3l1,1l-5,2
        l-2-2l-4,4l-6-7l-3,1l-5,5v12l-4-1l-9,5h-3l2-4l-1-2l-6,4l-1-2l-2,1l-7-11l-12,9l-3-6l-8-7l-7,7l-1,3l1,5l2,2l-2,3l-10,5l-5,5
        l-3-5l-11-8l-6-7l-2-4v-5l-2-1l-16,26l3,4l-1,3l-3,4l-1-1l-1,3l-6,3l-6,8l-14-7l-4,5l-10-8l2-10l-3-7l1-4l-5,1l-4-3l-4-5l-2-7
        l-4-3l3-12l-9-4l-14-1l1-3h-2l-5,13v6h2l-2,10l-15,16h-9l-4,3v2l-2-2l-9,1l-2-3h-2l-9,4l1,3l-10,2v4l-4,2l-4-3l-6,2l-4-4l-2,1
        l1,3l-2-2l-3,2l-2-1l2-2l-5-3l-9,3l-5-3l-3,1l1-3l-2-1l1-2h-2v4l-2-1v-2l-2,2l-4-2v8l-15-4l-6-11v2l-1-1l-2,3l-1-3l-4,2l-2,3l1,2
        l-4,2l1,3l-3,1l3,2v7l6,19l7,11l10,4l-14,12l17,21l5-2l5,9l8,2l10,7h2l4,4l7-2l20,17l-17,13l-20-1l-11,6l-7,10l-4,4h-2l4,8v12
        l-3,7l-4-6l-3,7l-2,1l-2,7v8h2l2,4l3,23v27h4v2l-5,15l2,3l-2,4l2,8l-5,7v3l-6,5v6l2,3l-1,7l4,6l-1,7l2,8l5,12l9,5l-7,4l-1-1l2,10
        l-2,2l4,17l-1,3l-5,1l-8,9l-2,5l-4,1h-2l-10-7l-5-5v-2l-5,8l-4-7l-6-2l-4,1l-6,6l-21,8l-7,2l-12-1l-2,3v14L710,1677z"/>
    </g>

  </g>

  <g id="ksh-region-3">

    <g id="ksh-county-8">
      <path d="
        M234,1014l1,3l11,6l9,1l3,3l18,4l6,9l3-1l3,3l5-1l2,2l6-6v-2l6,3l1,2l3-1l6,5l10,5l18,15l13,2l15-5l3-3l9-4l11,3l6,4l5,17h8l2,2
        l-5,9l3,4l4,13l-3,6v4l-6,2v2l6,8l9-2l3,2l2,2l-1,3l3,3l3,7h4l3,4l3-1l2,4l-8,7l2,11l-8,5l-4,9l-5,1l-10,6l-5-6l-7,9l3,10l5,10h2
        l3,9l-6,8v4h-2l2,7l-3,3l-5,1v4l-3,2l5,9v4l5,2l7,8l3-1l2,4l-1,1l2,2l6-2l4,6l4-2l2,4l6-4l5,9l5-3l-3-5l1-2l26-18l1,2l7-5l13-5
        l5,6l9-7l5,8l4,1l23-15l2,2l2,9l5,5l5,12h5l10,12l5-5l-1-3l9-1l-1-3l4,6l1-1l-1,6h6l-2-1l3-1l2,4h7l7,15l5,3v-7l7-6l1,1v-2l6-4
        l2-4l5-1v-2h2l3-5l1,1l10-5l-1-1l4-2l2-7l13-5l3-3v-2l11-7l3-5l6-3v-2l5,14l3-1l4,7l-5,6l2,1l-4,1l-2,4v6l2,4l-3,3l1,3l-1-1v2h-2
        l1,3h-2l-1,4l3,1h-2l-8,9h4l-2,3l3,1l4-6l8-5l9-2l11,1l6-6l2,1l3-5l8-3l5,2v-5l3-4l-4-1v-2h5l1-3h4l6-7l11,4l8-2l-2,2l4,1v-4l4-2
        v-3l8-4l1,2v-3l6,11l15,4v-8l2,2l4-2l1,3l1-4h2v6l3-1l4,3l12-3l2,6l4-2l2,2v-4l5,4l8-2l2,3l3-2l2-3l-1-1l9-2v-3l9-4h2l2,3l9-1
        l2,2v-2l4-3h8l3-2l13-14l2-10h-2v-6l5-13h2l-1,3l13,1l10,4l-3,12l4,3l6,12l4,2h5l-1,4l3,6l-2,11l10,8l3-5l15,7l3-5l7-6h2l1-3l1,1
        l3-4l1-2l-3-5l16-26l2,1v5l2,4l6,7l11,8l3,5l15-9l2-3l-3-7l3-6l5-5l8,7l3,6l12-9l7,11l2-1l1,2l6-4l1,2l-2,5l11-6l5,1v-12l5-5l3-1
        l6,7l4-4l2,2l5-2l-1-1l5-3v2l7,7l-2,1v3l-6,8l2,5l5-4l1,2l5-3l3,6l6-3l-7-11l3-2v-5l1-1l1,3l2-1l-1-3l5-3l13,17l5,13l-1,6l13,19
        l6,14v4l-6,6v2l5,6v3l-4,1l-8,6l-2-2l-1,1l1,6l-9,14l-9,7l-1-1l-3,2h-5l-3,6l1,6l-6,6l6,6l3,10l-2,2l3,4h2l3,3l6-1l5,3l3,4l-1,2
        l3,5l-1,17l6,10l-2,7l1,1l14-7l-4-8l2-9l-3-4l1-12l-2-8l3-6l5-5l2,4l6-1l6,2l4-2h6v-7l6-7l1-5l4-2l-2-3v-4l-6-8v-2l23-22h15l4-6
        l1-4l-6-3l1-12l5-14l5-4l-1-4l3-6l-5-9l2-4l-5-12l-5,2l-4-7l10-6l-5-3l-3-4l3-4l-2-5l6-2l5,2l-4-6v-5l12-10h7l-3-6l4-3l-5-4
        l-9-19h-3v-2l-3-3l2-7v-3l-2-2v-7h3v4l11,2l4,3l20-8v-2l-6-6l-2,5l-4-1l-11-8l13-23l-8-4l5-3l3-5l4-17l4-9l-15-5l-5-4l-8-2l-6-12
        l5-9l5-28l-3-7l-5-5l3-4l2-9l4-6l-2-27l-4-15l-18-7l-27,6h-6l-9-4h-8l-6,4l-9,1l-12-11l-14-1l-10-4h-8l-8-3l-4-4l-7-13l-30-23
        l-16-10l-17-21l-15,2l-9,7h-4l-14-19l-5-15l1-7l-9-9l-2-4l-4-4h-19l-12-11l-14-4l-4-3l-3-3l-1-6l-7-11l-7-21l-5-7l-9-7l-4-6l-1-6
        l-5-6l-12-5l-5-4l-8-13l-8-6l-12-17l-8-3l-11-1h-8l-15,3l-19-7l-4-6v-12l-4-6l-4,4l-6,2l-19-4l-3,3l-3-1l-14,6l-22,15l-36,31l1,2
        l8,4l1,2h3l3,3l-6,8v4l-12,16l15,8l-7,18l-5,5v2l6,6l-8,16l-6,11l-3-1l-2-3l-21,6v2l-7,4l-15-2l-2,1l-5,10l31,22l-4,6l3,1l-3,4
        l10,6l1,5l9,9l-9,7l-8,10l4,5l3,13l2-1l3,12l-1,3l4,16l-1,22l3,7l14,16l-39,4l-46,11l-46,7l-28-1l-2-2l-1-6l-1-28h-2l-9,12l-10,5
        l-9,25l-58,2l-20-45v-14l-36-5l-10-3l-1,2l-13-9v-6l-3-3l-2-1l-3,2h-4l-9-4l-8,5l-3-3h-2l-5,4l-14,4h-13v2h-2l2,6l-2,3l-3-1l-4,6
        l12,15l-6,6l-2,4l1,1l-7,2l-9-1l-3,5l-2-1l-7,5l-3-2l-5,7l-5,1v5l-3,3l-5,1l-1,9h-6l-4-3l-4-13l-4-1l-5,19v7l-9,5l-1-1L234,1014z
        "/>
    </g>

    <g id="ksh-county-18">
      <path d="
        M10,1869l4-4l3,1l7-5l3-8l7-4l1-5l3-1l2-4h2l4-9l2,2h3l7-5l1-8l5-7l4-16l4-4l5-2v4h2l1-4l1,3l1-1l2,2l2-2l-1,5l3,1l2-5h2v-2l2,1
        v-2l3,1l3-6h6l-2-9l9-9l7,1l2,2l6-1v-25l4-7l1-14l5-9h2l5,6l-1,6l3,5l15-5l14,7v-3l2-2l-1-3l5-7l6,5l5-2l2,2l1,5l3,3l2-2l4,1l9-5
        l13-1l8,11l6,2l10-1l1-11h4l-1-1l2,2l1-1l1,3l3-1v2l3,3l5-1l6,4h4l3-3v-4l5,3l4-1l1-3l2,2v-2l3,1l2-3h-2l-9-7h-4l-2-5h-2l-2-6
        l-3-2l-1,1l-1-4l-10-8l-11,11l-7-8l4-4l-1-2h-2l4-4l7-1l3-3h6l5-4h8l6-3l4,1l2-2l3,1l11-7v-6l-9-6l-6-3l-9,1l-3-2l1-1h-2l1-1
        l-2-2l-5,1l-2-3v-4l3-5l-4-2l-1-3l-2,1l1-2l-3-5h2l-1-4l6-2l-1-1l3-4l2,4l5-1l-2-6l13-2v-14l19-3l2-3v-9l-2,1l-3-4l-1-5l-5-5
        l-19,1l-9,5l-8,2h-6l-5-4v-6l2-2l1-5l4,1l-1-1l4-4l-2-2v-3l3-2v-2l-7-12l-1-7h-4l-5,3l-6,1l-5-3l-5-9l2-2l-4-9l2-6l2,4h2l3-3h6
        l-1-7l3-1l-2-5l1-7l3-5v-16l-9-2l1-3l13,3l-2-3l11-3l4,3l9-9l-2-12l1-4l8-4l-5-11v-8l-2-2l-3-12l-5-9l1-3l-5-10l1-3l-4-5l-8-1
        l-2-6l-8-8v-2l2-1l11-2l-1-3l5-8v-4l-5-7l4-6h4l-3-1l-2-4l1-1l-4-4l-4-14l1-3l8-5h5l7,5l7-1l5,4l-5,5v2l2,2l1-2v5l4,1l2-3l1,8
        l9-8l-1-9h4l3-6h6v2l4-2h5l5,5l22-1v-6l5-3v-2l-2-1l1-2l5,1v-2h2l-2-2h6l-1-1l1,1v-2l1,1l3-3l1,1l3-5h4l3-3v2h2l5-11l7-5l7-1l6,9
        v4l5,2l7,8l3-1l2,4l-1,1l2,2l6-2l4,6l4-2l2,4l6-4l5,9l5-3l-3-5l1-2l26-18l1,2l7-5l13-5l5,6l9-7l5,8l4,1l23-15l2,2l2,9l5,5l5,12h5
        l10,12l5-5l-1-3l9-1l-1-3l4,6l1-1l-1,6h6l-2-1l3-1l2,4h7l7,15l5,3v-7l7-6l1,1v-2l6-4l2-4l5-1v-2h2l3-5l1,1l10-5l-1-1l4-2l2-7
        l13-5l3-3v-2l11-7l3-5l6-3v-2l5,14l3-1l4,7l-5,6l2,1l-4,1l-2,4v6l2,4l-3,3l1,3l-1-1v2h-2l1,3h-2l-1,4l3,1h-2l-8,9h4l-2,3l1,1h2
        l4-6l8-5l9-2l11,1l6-6l2,1l3-5l8-3l5,2v-5l3-4l-4-1v-2h5l1-3h4l6-7l11,4l8-2l-2,2l5,3v7l6,19l7,11l10,4l-14,12l17,21l5-2l5,9l8,2
        l10,7h2l4,4l7-2l20,17l-17,13l-20-1l-11,6l-7,10l-4,4h-2l4,8v12l-3,7l-4-6l-3,7l-2,1l-2,7v8h2l2,4l3,23v27h4v2l-5,15l2,3l-2,4
        l2,8l-5,7v3l-6,5v6l2,3l-1,7l4,6l-1,7l2,8l5,12l9,5l-7,4l-1-1l2,10l-2,2l4,17l-1,3l-5,1l-8,9l-2,5l-4,1h-2l-10-7l-5-5v-2l-5,8
        l-4-7l-6-2l-4,1l-6,6l-21,8l-7,2l-12-1l-2,3l1,15l-2,10l2,15l-2,1l-11-7l-9,7l1-2l-3-2l-1-10l-3-4l-11,4l-4-5l-11,7l2,1l-2,1l5,6
        l2,8l-1,9l6,11l2,7l-3-6v3l-4,7l-10,5l-3,5l-6,1l1,9l6,7l-2,3l-4-3l-5,5h-40l-5-12l-3,1l-10-3l-15,5l-8-1l1-2l-16,3l-3-8l-4-4
        l-10,9v-2l-3-1l-2,2v25l-3,1l-3-2l-16,4v16l-5,7h-2l-1-2l-16-2l-12-4l-6,3h-15l-6,2v-2l-7-4l-3-4l-3,4l-11,1l-1,4l-3,3h-2l-5,6
        l-7-1l-9-4l-1,6l-3,5l-15,19l-9,7l-4,12l-4,3v8h-7l-2,2v12l-4,1l-1,12h-3v4l-2,3h-4l-2-3l-7-2l-5,1l-8,5l-13,3l4,8v14l-2,3l2,3
        l-13,12l-5,1l-6,6l-10,4l-5,4l-7,2l-2,4l-11-8l-4,2l-2-1l-2-4h-2v-2l-5,1l-7-2l-11,5l-1,5h-12l1,7l3,4l4,1l9-8l13,1l2,4l-4,4
        l-3-2l-2,5l-5,2v4h-2v2l3,2l4,8h-2l2,6l-1,2l-4,1l-4,4l-8,15l-6,6l-3-1l-1,3l-3-6v-4l-3-1l1-7l-7-8v-2l-5-3l-1-5l-7-3v-2l-3-2
        l2-2v-8l4-4l3-8l-1-3l-11,1l-2-1l-1-6l2-14l3-3l15-3l2-2v-18h2l1-8l4-1l-2-12l-6-2l1-4l-8,2l-3-3v-2l-3-1l-2-6h-8l1-3h-6l-4-12
        l-4-3l-18,2l-23-6l-10,8H75l-5,3h-6l-6,5v2l-3,3l-7-3l-3,1l-5,6l-4-3l-2,2h-4l-3-2l-8-1l-1-5l-2-2l-3,1l-2-5L10,1869z"/>
    </g>

    <g id="ksh-county-20">
      <path d="
        M191,1963l1,7l3,4l4,1l9-8h9l6,3v2l-4,4l-3-2l-2,5l-6,3l1,3l-1-1l-1,3l3,2l4,8h-2l2,6l-9,7l-8,13l1,5h2v2l3,2v4l-8,8l9,6l17,1
        l6,2l5-1l5,1l2,2l-2,2l-3,11v2l3,1l-3,1l-1,2v2l4,2l-1,5l-4,3l1,6h-12v-3h-2l-3-3l-4,2l2,1l-2,6l-3,3l-2-1l1,11l4,3v8l5-1l7,4v2
        l3,2l9,14h7l8,3l5,11h2l6,6l4,10l4-2l4,4l3,6l-1,11l2,2h4l3,3l10-2l4,5l4,7v8l-2,3l1,7l7,1l1,3l3,1l-2,2v4l-2,2l1,1l-3,4l2,4l4,1
        l-2,7l-4-1l-1,4l24,15l9,3l1,4l4,1l4,6l11,2l7-1l1,4l6,6l1,3l4-4h2l2,1v5l2,1h2l1-3h9l13,5l1,6l-7,7l4,2l4-4l5,1v4l7,11l4,11
        l8,11l5,11l6,5v4l2,3l3-1l1-6l3-3h6l3,3v12l4,1l4-3l2,1l4,9h2l2-5l3-2l2,1l3,6h2l5-6l7-2l6,4v6l6,1l2,6l6-3l1,4l4,2l1-5l4-2l2,2
        l-3,7l3,2h4l5,4l-1,6l4,2l5-3l3,2l-1,4l-3,3l10,5v2l-3,3l2,2h5l-1,4l-4,5v4l3,3l-1-5l7,1v4l3,3h3l3,5l16-3l6-3l5,1l1,9l-2,7h4v12
        l3-3h2v2l4-2l6-6l2-5l11-1l3-8l3-3l4,3l6-1v2h5l1,5l3,2l11-5l-1-1l3-3l6-1l1-4l-2-3v-8l4-3l3-8l8-1l1-10l-4-17l1-2l-6-1l-2-4l2-8
        l-2-7l-7-5l-3-5l1-9l4-4v-8l8,1l2-2h3v10h3l1,3l5,1l1,2l7-4l1-9l4-6h10l2,3l4,2h5l1,9l8,1l9-2l2-21l28-5l6,3l2-12l3-5v-21l-4-7
        l1-7l3-5l-3-3l5-1l-1,2h4l2-9l7-1l3-6l1,1l5-13v-17l-3-5l-2-56l-3-27l5-25l-3-15l2-7l-1-9l6-12l5-5l6-1l1-3l7-7l3-9l-1-2l2-4l4-2
        l9-30l16-1l19,3l26,1l8-3l10-10l9-5l16-3l-2-7l-26-26l-15-12l-5-21l-3-4l-6-4l-6-7l-6-2l2-8l-2-3v-7l2-1l2-8l3-2v-2l-2-2l1-3
        l-2-5l-6-2l-4-7l7-5v-7l-3-5l-3-3l-6-1l-4-3v-8l-2-4l-13-11l-6-1l-6,5l-4-2l-3,2l-5-4l-5,2l-7-1l-5-5l-1-8l2-4h2l1-5l4-2l2-4
        l-2-10l8-2l-3-10l-2-1l2-1v-2l-3-6l-3-3l-2,1l-3-4l-1-10h-2l-3-5l-9-4l-3-7l-1,4l-4,3h-6l-5,3l-3-3l-1,3h-2l-1-3h-13l-4-2l-6,1
        v-16l-3,1l-2-2h-5l-5-3l-7-10l-5-2l-22-20l-2,10l2,15l-2,1l-11-7l-9,7l1-2l-3-2l-1-10l-3-4l-11,4l-4-5l-11,7l2,1l-2,1l5,6l2,8
        l-1,9l6,11l2,7l-3-6v3l-4,7l-10,5l-3,5l-6,1l1,9l6,7l-2,3l-4-3l-5,5h-40l-5-12l-3,1l-10-3l-15,5l-8-1l1-2l-16,3l-3-8l-4-4l-10,9
        v-2l-3-1l-2,2v25l-3,1l-3-2l-16,4v16l-5,7h-2l-1-2l-16-2l-12-4l-6,3h-15l-6,2v-2l-7-4l-3-4l-3,4l-11,1l-1,4l-3,3h-2l-5,6l-7-1
        l-9-4l-1,6l-3,5l-15,19l-9,7l-4,12l-4,3v8h-7l-2,2v12l-4,1l-1,12h-3v4l-2,3h-4l-2-3l-7-2l-5,1l-8,5l-13,3l4,8v14l-2,3l2,3l-13,12
        l-5,1l-6,6l-10,4l-5,4l-7,2l-2,4l-11-8l-4,2l-2-1l-2-4h-2v-2l-5,1l-7-2l-11,5l-1,5l-11-1L191,1963z"/>
    </g>

  </g>

  <g id="ksh-region-4">

    <g id="ksh-county-2">
      <path d="
        M1110,2799h4l2,19l8,21l1,16l10-2l-4-14l4-1l3,7l4-2l1,5l5-2h6l2,6l-4,2h-5l4,7v3l2,2h11l11,4l8,5l-3,11l7,4l3,4l-1,2h-3l-2,3
        l1,10l5,4v4l-6,5l3,3l-1,2l-1,1l-4-2h-5l1,2h-5l-5-3l-7,10l1-9l-4-7l-3,4l-1-1l-7,5l-3-1l-2,13l1,2l-2,3h-8l-2,2l4,7l11,7l12-5
        l9,3l4,5l6-1l3,2l16,1l4,3l8,15l2,1h2l6-6h7l4,1l7,9l9,4l6-2v-2l3-3l4,1l4,7v10l6,8l7,1l2,2v8l2,5l7,4l3-2l3-9l6-6l15-10l8,1l8,5
        h8l4-4l9-3l14,5l12-7h8l15,16l11,5l15,2l19,9l12-2l8-6l6-14l4-4l7,2h14l5,7l7,5h2l10-11l5-1l6,3l2,3l19,2l3,3l3,9l5,8l12-1l11,6
        l6-1l5-4h5l9,5h7l6,2l2-1l5,4l1,4l4-2l1-5l6-10h2l1-4l2,2l4-1l-2-7l13,10l3-1l5,4v4l1-1l2,5l2-2l1,2l-3,5l1,3l8,7l8-3l19,5l3-9
        l-2-3l1-10l-3-3l8-9l6,3l13,1v-8l6-22h9l2,2v4l4,4l6-1l2,3v-5l8-6h5l2-2l5,2l4-1l4-10l11,4l-1-14l15-8l6-6l1-2l-2-5l16-7l-6-13
        l6-2l3-11v-9h2l1-3l5,9l12-7l-9-10l-1-5l10-7h5l3-4l-4-5v-13h2l5,6l4-4l21-3l13,13l12,5h9l-1,1l2,2l4,1l2,7l10,2l8,8l4,2l13-1
        l2-3l1-15l-4-7l11-12l-6-6l-1-3l-6-4l-1-4l3-4l2,1l12-4l1-3l5-1l1-5l1,3l1-3l4-2l2,3l-1,5l5-2l1,1l2-2l-7-6h-2l-3-3v-2l-8-3l-1,1
        l-2-5l2,1l7-12l2-5l-2-4l1-4l22-39l-19-10l3-5l-2-4l-5-3l-23,19l-10-3l-2-2l-4,2l-1-1l-6,4l-2-4l-5-4h-5l-4,3l-8-1l1-2l-2-6l-5-9
        l4-3l11-16l9-23l1-7l2-3l7-4l13-5l4-5l-17-1l-3-5l-11,1l-2,4l-5-3l-3,3l-3-5l-10-8l-6,3l-3-5l-11-5l-6-7l-2,2l2,6l-4,3l-6-16
        l-4-2l-6-7l-9-7l-10-16l-14-9l-5-12l-4,1l-5,6l-6,2l-4-10l-6-6l-7-3l2-4l-5-6v-6l3-1l-1-8l-11,5l-5-3l1-3l-1,1l-9-5l-4-4v-2l4-3
        l4-7v-26l2-5l-2-2l-2,1l-4-5l1,9l-2,2l-8-3l-3-3l2-5l2-1v-4l-8-4v-4l-4-2l-13-1l-5-8l-2,5l3,9v19l-4,4h-5l-5,5l4,9h-15v6l-2,3
        l-10,5l-4,4l-5,1l-6,7l-9,3l-5,6l-7,5l-9-3l-4-4v-2l-2-1l2-5l13-3l3-3l8-3l6-6l1-8l4-9l-1-2l2-7l4-8l4-1l-6-15l-12,4l-5-5l-1,2
        l-4-3l-6-1l-3-8l3-2l-2-6l2-2v-10l-2-8l12-9l1-3l-3-11l-6-2l-2-4l-5-3l-10-3l-3,1l-1-8l-5-4l-1-4v-16l4-7l-1-4l-6-8l-2,1l-9-7
        l-8-3l-7,6l-11,3l-2,2l-8,1l-3,4l-14-2l-4-4l-3,5l-14-3l-26,8l3,36l5,4l2,4h3v18l-2,2l1,6l-5,1l-10-2l-6,5v2l-5,4l-1,3l-6-1l-2-6
        l-1,2l2,5l-6,3l-5-1l-1-4l-3-1h-5l-4,4l-4-2l-4,8l5,14l-2,6l7,5l3-4l3,1l-7,11l-5-3l-2,1l-3-12l-6-8l-8,2l-4-1l-4,2l-2,8h-2l-1-2
        l-5,1l-4-2l-1,2l-4-3l-4,3h-3l-7-2l-7-7l-4,4l-6-3l-2,3l-2-5l-3-1l1-5h-19l-12,4l-3,3l-4-2l-12,19v6l3,4l-3,7v4l-4,7v4l2,3v8l3,3
        l-4,6l-1,5l-4,3l-2,4l-6-4l-6,1l-2,6l-4,1l-5-1l-2-3h-5l-2,2v4l-4,4l-7-6l-4,3l-2,4l-3-3l-2,6h-2l-3,4h-3l-2-4h-12l-1-10l-4-2
        l-4,4l-4-3l-3-5l-7,4l-1,10l-4,4l-1,4l1,3l-8,2l-6-1l-1-3l-5-1l-9-24l-4-5h-3l-9,10l1,4l1-1l4,2l3,8l-3,11h-2l-3,3l-3-1l-4,2l2,2
        h-5l3,9l-2,1l1,4l-4,8l-3-5l1,9h-2l-2,4l1,3l-2,4h-3l1,8l-5,19l2,14l-3,2l6,10l-16,8l2,5l9,6l-3,3v15l-5,2v9l-11,3l1,8l-18,5l1,2
        l-3,1v2l3,3v12l3,5l1,6l2,3l9,5l3,4l-3,2v14l-4,2l-15,2H1110z"/>
    </g>

    <g id="ksh-county-14">
      <path d="
        M565,2449l1,1l-1-5l7,1v4l3,3h3l3,5l16-3l6-3l5,1l1,9l-2,7h4v12l3-3h2v2l4-2l6-6l2-5l11-1l3-8l3-3l4,3l6-1v2h5l1,5l3,2l11-5l-1-1
        l3-3l6-1l1-4l-2-3v-8l4-3l3-8l8-1l1-10l-4-17l1-2l-6-1l-2-4l2-8l-2-7l-7-5l-3-5l1-9l4-4v-8l8,1l2-2h3v10h3l1,3l5,1l1,2l7-4l1-9
        l4-6h10l2,3l4,2h5l1,9l8,1l9-2l2-21l28-5l6,3l2-12l3-5v-21l-4-7l1-7l3-5l-3-3l5-1l-1,2h4l2-9l7-1l3-6l1,1l5-13v-17l-3-5l-2-56
        l-3-27l5-25l-3-15l2-7l-1-9l6-12l5-5l6-1l1-3l7-7l3-9l-1-2l2-4l4-2l9-30l16-1l19,3l26,1l8-3l10-10l9-5l8-2l8-1l19,4l6-1l8-5h20
        l12-6l18-14l40-18l26-14l31-11l23-18l25-13l23-6l18-7l47-33l18,7l8-2l9-6l6-9l2-14l-4-10l28-12l21-6l42-21l25-18l73-29l10,8l7,1
        l8,11l3,7l-9,10l1,1l-15,16l14,20l-2,2l1,3l8,19l5,8l-1,2l2,7l2,2l-18,15l12,6l-6,3l1,11l3,8l1-1l1,10l-2,10l-2,1l-1,16l4,12v14
        l5,11h-7l-11,9l-9-2l-5,5l-1,3l5,10v10l-12,3l-4-6l-7,1l2,4l-4,1l-1,7h-3l-9,7l-5-1l7,13l5,14l8-4l4,7l-6,2l2,7l-11-1l5,6l-3,1
        l2,11l-13,7v2l-5,5l2,1l-2,4l-4,2l5,9l-14,8v11l-9,6l-4,5l1,6l11,20l-2,7v8h-4l-1,2v6l-3,5l-1,6l-7,8h-3l-5,3l-10-7l2,12l-2,11
        l-4,2l1,17l3,7v11l-4,2l5,6l3,7l5,18l1,11l12,27v2h-3l2,12l-13,2l1,6l-4,2l-3-5l-3,7l-3-2l-1,2l-4,1l1,2l-5,2l1,4l-4,1l-1-3l-5,1
        l1,3l-4,2l-2-1l9,12l-1,5l2,2l5-5l7-2l2,5l13-9v4l9,20l1,6l12-2l-1,8l5,32l-9,11l1,10l-4,5h-5l-12,12l-10-2l-7-7l-4,4l-6-3l-2,3
        l-2-5l-3-1l1-5h-19l-12,4l-3,3l-4-2l-12,19v6l3,4l-3,7v4l-4,7v4l2,3v8l3,3l-4,6l-1,5l-4,3l-2,4l-6-4l-6,1l-2,6l-4,1l-5-1l-2-3h-5
        l-2,2v4l-4,4l-7-6l-4,3l-2,4l-3-3l-2,6h-2l-3,4h-3l-2-4h-12l-1-10l-4-2l-4,4l-4-3l-3-5l-7,4l-1,10l-4,4l-1,4l1,3l-8,2l-6-1l-1-3
        l-5-1l-9-24l-4-5h-3l-9,10l1,4l1-1l4,2l3,8l-3,11h-2l-3,3l-3-1l-4,2l2,2h-5l3,9l-2,1l1,4l-4,8l-3-5l1,9h-2l-2,4l1,3l-2,4h-3l1,8
        l-5,19l2,14l-3,2l6,10l-16,8l2,5l9,6l-3,3v15l-5,2v9l-11,3l1,8l-18,5l1,2l-3,1v2l3,3v12l3,5l1,6l2,3l9,5l3,4l-3,2v14l-4,2l-17,2
        h4l2,19l8,21v14l1,2l10-2l-4-14l4-1l3,7l4-2l1,5l5-2h6l2,6l-4,2h-5l6,12l8-1l14,5l8,5l-3,11l7,4l3,4l-1,2h-3l-2,3l1,10l5,4v4
        l-6,5l3,3l-2,3l-4-2h-5l1,2h-5l-5-3l-7,10l1-9l-4-7l-3,4l-1-1l-7,5l-3-1l-2,13l1,2l-2,3h-8l-2,2l-3-8v-12l-4-6l-11-26l-9-13
        l-10-6l-17-17l-9-6l-25,4l-13-6l-26-3l-19-7l-10-1l-7,3l-1,4l7,11l-1,5l-7,1l-10-3l-2-3l2-4l-1-3l-11,10l-5-2l-3-6l2-4v-5l-3-1
        h-7l-7,5h-12l-5-7l2-12h4v5l4,4l4-7l19,3l3-2l1-5l-3-4l-9,6h-8l-4-4l1-4l6-1l4,2l2-3l-6-3l-1-2l6-7v-7l-2-3h-6l-2,3v13l-6,2
        l-7-11l-2-10l-2-2h-3l-5,4v3l7,6v3l-5,11l-5,3l-7,1l-4-3l1-3l6-4v-4l4-3l1-6l-3-3h-3l-3,2l-3,7l-6-1l-3-3l-1-4l1-2l7-4v-6l-5-2
        l-8,4l-6-2l-5-3l-3-4l-7-3l1-3l8-3l1-4l2,1l13-3l3-6l-4-4l-8,1l-6-2l-13,3l4-2l-2-14l11-8l-1-4l-1-1l-4,2l-2-2l-7-1l-9,2l-2-2h-3
        l-3-5l3-3l7,5h5l3-5l-3,2h-4l-3-3l1-9l-5-1l-2-2l-6-2l-7,2l-2,3h-6l-1-2l2-5h12l-1-5l4-8l6-1l1-3l-3-1l-6,2l-8-2l6-10v-2l-4-3
        l-2,7l-3-3l-4-1h-4l-7,5l-7-2l-1-4h2l4-7l-1-3l-3-1l-2-6h3l2-3l4-2l-3-2l-2-10h-2l3-6l-9-7l-4,2l-5-4v-5l2-2l-1-2l2-1l-4-3l-8,1
        l-3-3l-3,4l-7,1l-2-2l1-8l-5-2l-3,3h-2l-9-11l-5-2l-5,1v2l-2,1l-1-3l-4-1l-7-8v-5h-8l-36-22h-5l-2,3l-4-5h-2l-3,3l-2-3h-6l1-8
        l-2-1v-2l1,1l2-4l-1-5l-4,2l-9-1v2l-4-2l-9-9l-1-5h-2l-5-6l-10-1l-7-12l-13-9l-1-2l2-5v-8l-1-5l-4-3l-3-5v-12V2449z"/>
    </g>

    <g id="ksh-county-17">
      <path d="
        M1384,2365l9,12l-1,5l2,2l5-5l7-2l2,5l13-9v4l9,20l1,6l12-2l-1,8l5,32l-9,11v12l-3,3h-5l-8,9l4,4l1-3l4,2l5-1l2,2l3-8l4-2l3,1
        l9-2l7,10l2,10l1-1l6,3l7-11l-3-1l-3,4l-7-4l2-7l-5-13l1-5l3-3l4,1l4-5l8,2l1,4l5,1l5-3v-7l2,6l5,1l12-14l10,2l6-1l-1-5l2-3v-18
        l-3,1l-2-4l-5-4l-3-37l26-8l14,3l3-5l4,4l14,2l3-4l8-1l2-2l10-3l8-6l8,3l6,6h4l7,8l1,4l-2,2l-2,7v14l1,4l5,4l1,8h7l8,4h3v3l8,4
        l3,11l-1,3l-12,9v6l2,2v18l-3,2l3,8l10,4l1-2l3,4l1-2l1,3l12-4l6,15l-4,1l-4,8l-1,9l-4,8l-1,9l-5,4v2l-9,3l-2,3l-14,3l-2,5l3,5
        l11,5l8-5l7-7l9-3l4-5l20-11v-9h16l1-2l-5-6l2-4l3-2h5l4-4v-18l-3-10v-4l2-1l5,8l13,1l3,2l1,4l8,4v3l-4,6l3,4l7,3l2-1v-11l2,5
        l6,1v3l-2,2v27l-4,7l-4,3l3,6l7,2l3,3l1-1l-1,3l4,3l5-1l3-3h4l2,7l-4,1v6l5,6l-2,4l9,4l4,5l4,10l4-1l7-7l4-1l5,12l16,10l2,6l5,5
        l1,4l15,14l4,2l6,16l4-2v-3l-2-2l2-4l7,7l10,5l3,5l6-3l5,5h2l6,8l3-3l5,3v-2l5-3h8l3,5l29,1l-6-6l8-17l4-4l3-10l5,1l1-3l1-8l-2-9
        l2-4l-1-2l3-17l5-1v-5l2-4h12v-5l-3-3v-8l4-5v-10h-3l-4,3l-9,12l-12,8l-6-3l-2-4l5-11l5-4h3l4-4l3-8l3-3l6,1l4,3l7-9v-5l-9-13
        l-2-9l1-2l8-3l10,11l7,2l10-2l-1-5l2-13l4-13l3-19l-2-8l-9-9l-6-10l-4-27l-1-20l-5-19v-7l3-9l8-10l1-5l13-26l3-11l-1-15l-4-18
        l-13-23l-3-10v-17l2-12l-3-14l-16-27l-6-7v-3l-3-5l1-12l6-7l10-17h25v-2l12-5l6-6l10-4l1,5l7-5l9-11l10-21l8-9l2-6l-1-17l-15-27
        l-1-11l-4-10l1-7l-6,1l-2-9l-13-28l3-2l-14-8l-6-10l-2-7l1-35h-5l-1-2l-8,1l-1-2h-2l2,4h-12l-20,7l9,12h2l-2,1l1,1l-4,1l2,2l-3,2
        l-4,10l-19,19l-12,9l-18,9l-2,3l4,15h-7l-4,2l-17,3l-8-2l-6,8l-6-1l-14,7l14,31l-5,2l2,3l-5,2l-3-1l-7,4l-12,15l-12,9h-8l-7,4h-5
        l-7,3l-2-1l2-2l-3-2l1-1h-4l1-1l-2-4l2,1l1-6h-3v-2l-1,1l-1-2h2l3-3h-2l-2-6l-2,1v-7h-2v-2l2-3l3,1l2-2l-4-1l-1-3l-3-1l-1-6l-2-2
        l1-2h2l-3-1v-2h3l-3-4l1-1h-2l-1-2l-3,2h-5l-11-11l-3,1l-7-4l-11-27l-3,3l-15,6l-8,8l-13,5l7,20l-4,1l-2-3v2h-2v-3l-8,4l-6-5h-2
        l-11,8l3,3l-16-4l-20-10l3-13l2-2l-3-10l-3-4v-5l3-6l-4-9l-6-6l-4,36h-5l-1-8l2-4l-4-5l-3,1v3h-2l1-3l-3-6l-8,5l-2,4l1,1l-2,2
        l3,2l-4,3l-14-10l-20-7l-8-8l1-17l-4-3l-16,9l-13,11v5l-5,5h-4v4l-17,6l-5-2l-10,4l-5-1l-11,9l-9-2l-6,8l5,10v10l-12,3l-4-6l-7,1
        l2,4l-4,1l-1,7h-3l-9,7l-5-1l7,13l5,14l8-4l4,7l-6,2l2,7l-11-1l5,6l-3,1l2,11l-13,7v2l-5,5l2,1l-2,4l-4,2l5,9l-14,8v11l-9,6l-4,5
        l1,6l11,20l-2,7v8h-4l-1,2v6l-3,5l-1,6l-7,8h-3l-5,3l-10-7l2,12l-2,11l-4,2l1,17l3,7v11l-4,2l5,6l3,7l5,18l1,11l12,27v2h-3l2,12
        l-13,2l1,6l-4,2l-3-5l-3,7l-3-2l-1,2l-4,1l1,2l-5,2l1,4l-4,1l-1-3l-5,1l1,3l-4,2L1384,2365z"/>
    </g>

  </g>

  <g id="ksh-region-5">

    <g id="ksh-county-5">
      <path d="
        M2877,468l2,2l2-2l4,1l-1,1l1,4l2,1l-1,4l2,4l3,1l4-2l4,4l2-2h3l2,2l-1,1l2,7l4,2v3l2,2l13-3l1-3h3l2-2l3,2h7l6,4l2,5l7,1l2-2
        l3,8l-2,1l4,8l-1,4l6,4l2-2l9,6h4l3,2l1,1l-2,1l-1,3l3,3v4l16,5l10-2l2,2l-1,1h4l2,2l8-8l11,1l3-3l1-5h2v-4l-4-2l1-3l4-3l-1-1
        l2-2l1-7h3l7,4l12-5l2,1l2,6l-2,2l5,4v3l5,2v3h5l1,2h2v3h2l1,3l4,2l1,4h2l2-2l-1-4l3-4l-1-3l-2-1l2-2l1-5l-2-1l2-3h2l1-4l4-2
        l1-10l10-3l4-5v-3l-5-9l1-3h10l4-4l2,4l3,1l14-1l2-2l5,2l7-1l1,3l-2,1l2,3l4,1l5,13h5v4l3,3l-1,7l4,4l1,4l-2,8l3,2l-3,5v3l8,9
        l3,15l4,6v3l-1,4l-16,3l2,2l-1,2l2,8l8,6l-2,5v15l-2,4l-3,1l1,4l-4,10v5l2,3l-1,4l-3,4h-5l-7,19l-2,2h-3l-2,5h2l15,12l5,7l5,1
        l7,9h10l5,14h-3l-2,1v3l-7,3h-4l-2,2l3,2l-3,3l4,8l-1,2l-5-2l-1,2l-6,2l-5-6l-4-1l-4,2l-1,4l-10,7l1,10l9,16l16,5h5l9,8l7,23v4
        l-1,11l-6,8l1,1h-2v11l4,7v4l3,1l6,7l2,4l-2,2l5,6l3,8h8v4l4,4l6,3l10,11l5,2l9,9l6,3l-5,6l-5,3l-4,6l1,2l-3,2l-2,4h-2v2l6,6l5-2
        l4,2l-1,3l5,3l2,5l8,6h6l18,10h23l3-8l7,8l16-4l7,4l5,7l15,14l1-1l6,3v2l6,8l6,2l-6-10l1-5l5-7l17-9h3l14,14l8,1l-2,7v4l2,2l2,1
        l2-2l1-5l4,6h6l2-2v6l4,8l9,4l3-1l4-6l-3-4l-10-4l-6-6l-2-15l18,3l4-1l3,3h5l4-2l2-6l-1-2h-2l-7,3l-3-12v-5l3-6l3,1l4,11l6,1l9-8
        l5-2l7,2v-12l7-6l5-7l1,1l11-4l8,2l12-1l4-5v-7l-3-4v-5l4-4l-4-5v-4l6-6l7-3l8,2l4,4v3l3,4l7-14l-2-3l2-3h2l4-9l-3-2v-2l4-2l1,1
        l4-9l-1-2l5-3l-1-3l2-3l-2-3l5-8l-2-2l9-13l-2-3l-2-12h-3v-2h-2l-6-7l-2-4h2v-2l-2-3l-4-1l3-2v-3l3-3l7,1v-3l3-3h6l1-17l2-7l-2-6
        l5-4l4-8l3-2l15-3l3-8l-2-5l-11,1l-3-6v4l-5,3l-2-2l-2,1l3-9l9-4l4-5l1-9l6-21l-10-10h-5l3-5l-1-5l-4-7l-10-11l-2-5h-3l3-8l7-2
        l-1-8l3-4l7-2l3,1l6-12l6-7l2,1l2-2l-2-4l2-4l1,3l3,2l4-2v2l7,5l4-5l9,2l2,2l-3,6l2,9l4-2l13-1l14,7h4l8-5v-2l-6-7l1-3l14-15l7-3
        l4-5h2l-1,13l5,10l5,3l2-1l8,3l6-5v11l15-4l5,2l4,8l2,1h5l6-3l3-3v-5l2-2l12,2l7,8l2-2l-3-4v-5h5l11,5l10-3l2-6l-5-5l1-9l2-2l3,2
        l2,6l4,4l6-1l3-6v-21l5,1l5-4l8-1l-8-9l-4-1l-5,3l-2-1l-3-10l1-1l9,4l4-2v-4l-20-17l-5-8l-2-7v-2l7-6l5-7l-4-3v-3l3-4l-2-15l-2-1
        l6-5v-2l2,1l3-3l2-6l-1-1l3-6l6-2l6,2l2,6l-1,2l6,4l3-1v-10l4-4l5-1l11,4v4l4,2l-1-5l14-3l-1-2l-6-3l10-4l4-4l-1-5l10-1l2,3v-3
        l3-1l1-3l11,1l3-10l3-1l6,3l2,4l9,7l19,4l11-1l27,3l7-3l15,1v-2l3-3l5,7l-2,2l2,4l3-1l4-6l-5-1v-11h2l5,7l5-5l10-3l-1,14l7-3h6
        l1-1l-4-4l5-3l-2-6l9,5l2-8l7-1l3-3l-2-9l13-5l-3-6l2-8h3l3,8h2l1-6l-2-4l5-4l1,6l6,5l-5,5l7,8l1-1l-3-6l8-1v-11l15,3l8-3l10-7h2
        l-1-1h2l7,7l8,2l4-11l4-4l8-3l-2-2l-1-6h2l3,4l1-3l10-5l2-2l1-5l10-10l1-5l4-7l2-2l11-3l1-4l5-3l-1-4l3-4l8-1l-1,12l15-7l5,5l3,6
        h8l2-5l-3-11l12,4l4-2l-2-18l3-3v-2h7l1,1l-3,6l4,2l3-3v-2l-3-5l-4-1l3-4l9-5l-6-1l1-4l8-5l5,2l2-2v-3l-3-4l-4-3l-5-1v-2l10,2
        l2,3l2-1l1-6h-4l-4-3l2-13l-4-2h-4l-6,5l-6-2l-5,7l-3-8l1-3l-5-5l-4,2v3h-9l-3,5l-8-8l-7-3l-5-6h-4l-1,1l2,4l-3-1l-1,3l-6,2l-2,4
        h-5l-4,4l-3-2l-3,2v2l-2-5l-4,2l-12-2l-1,3l-3-3l-5,1l-2,5l-1-1l-5,2l-3,4h-6l1,3l4,3l-3,3l-8-2l-2-3l-3-1v-2l-6,5l-2-2v-4l-2,1
        l2,4l-1,3l-7-1l-1-1l3-4l-3-1l-3,3v4l4,4l-3,3h-2l-1-7l-5,3l2,4l-1,1l-3-1l-3-4h-2l1,5h-2l-2-2v-5l-3-5l-7,3h-6l-2,2l2,10l-2,8
        l2,3l-4,4l2,4l-7,1l-2,2l-4-1l1-3l-2-2h-7l-6-5l-2,2l-9,2l-5-2l-8,2l-3-1v-2l-6-5l-6-3l-16-1l-1-3l-7-5l2-9l-2-2l-5,1l-2-6l3-5
        l-2-4l-14-9l-1-3l-10,2l-3-3l2-8l-2-2l1-12l-2-7l-3,1l-5-17h-2l2-3l-7-7l1-1l-3-3v-2h-6l1-1l-3-5l1-7l-5-5l-3-7l3-3l-1-15l-3-12
        h-2l-1-2V94l-3-1l-3,3h-2l-4-5l-4-1l-3,1l-7,8h-8l-5-7l-5,3h-8l-1-5l-3-3h-2l-7-8l1-2l-4-8v-4l-4-4l2-8l-1-3l-4-2v-2h-3l1-3l-5,1
        l-2-2l1-4h-2v2h-6l-6-7l-3,1l-3-2l-11-11l-5,1l-2-2l-1-5h-2l-3-5l-2,2h-6l-5,7v15l-5,6l-5-1l-2-4l-3-1l-7,1l-9,5l-10-2h-17l-11,1
        l-3,2l2-4l-3-1l-5,6h8l1,3l-3,3l-4-2l-3,3l6,2l-1,4l-3,1l2,4l-7,1v2h2l3,5l-4,4h-4l-2,2l-1,3l5-2l1,1l-3,4h-8l-5-3l-1,1l-10-4
        l-4,2l-4-4l-6-2l-9-9h-6v6l-7-4l-3,2l-2,5l-5-2v6h-3l-3,3h-4l-2-2l-1,3h-2l-2,4l-4,2l-3-1l-1-3h-9l-2,4l-5,2l-5,6v2l-3,1l-5,10v4
        l-5,4l-7,1l-12-3l-6-7l1-3l2-1v-8l-2-3l-5-5l-10-2l-6-6l-9,4l-1-4h-8l-2-2h-4l-3-4l-4,2l-6-3l-5,4l-12,2l-2,2l1,2l-7,6l-4-8l-7,5
        l-6-1l-1-14l-8-3l-2,2l-1-9l-5,5l-4-12v-6l-6-5h-7l-23,9h-2l-1-3l-5,2l-7-8l-4-8h-6l2-2l2-14l-9,8l-2-3l3-4l-3-3l-13,5l-1-1v2
        l-10,3l-50,5l1,4h-4l-2,2l-2-5l-8-1l-14,5l-11,7l-3-3h-4l-2,2l-9-1l-4,4l-2,5l-2,1l1-1l-3-3l-1,3l-3,2h-8l-7,9h-11l-4,4h-4l-2,4
        l-19-8l-5,1l-5-2l-4,8l-2,10l-8-3l-5-7l-10,2l2,3l-3-1l-1,2l-1,5l2,1l-2,3h2l-2,3l5,5l1,3l-2,4l-2,17v4h2l-1,2l-8,1l-3,5l-2,8
        l-11,11l-6,2l4,5v6l-6,4l-7,1l-1,3l-5,3v4l-6,7v2l-3,3h-2l-1,5l-8,6l-2,10l3,1l2,6l-3,3v8l-2,2v4l-4,4l-1-1l-3,4l3,3l3,8l-1,7
        l-8,8v2l-4,1l-7,5l2,1l-1,5l-3,3v2l-10,10l5,5l-6,11l-7,5l1,3l-5,2l-8,7h-2l1,1l-2,4h-2v6h2v4h-6l-1,15l-7,2l-5-1l-2,1l-1,3l3,1
        v4l-16,4l-3-1l-2-5l-7-1l-1-3l-6-3v-2h-4l-5-5l-2,2l-3-3h-2l-7,4l-1-1v2l5,5l-5,6l-1,4l-5-1l-4,5l-8-4l-1,3l4,7l-9,5l-8,1l-2-2
        l-3,1l-5-3l-12,1l-5-5h-8l-2,2l-1,7l5,3v4l-4,6v10l-4,5h-4l-4,5l-4,1v2l-9,7l1,3l-5,2v4l-3,3h-8l-3,3h-2l-3,6l2,2l3-1l3,4l-6,5
        l-7,1l-6,10L2877,468z"/>
    </g>

    <g id="ksh-county-10">
      <path d="
        M2527,939l6,4l6,8l14,13l-2,4v7l-3-2l-3,7l4,4l-7,5l12,23l-1,5l5,7l10,7l13,4l-6,9l4,3l1,5l3,2l7,13l-3,19l10,11l9-3l4,1l8,6l7-1
        l-2-22l8-6l9-2l12-7l12-1l7,5h3l33,24l13-13l7-16l6-5l13-6l-2-10l4-27l2-3l6,3l1,3l18,9l14-8l23-6l6-10h2l2,3h10l6,3l4,11l-2,6
        l2,1l3,28l8,14l-7,17v4l-3,2l5,4l5,10l13,5l6,7h6l22,8l21,10l3-5l12-8l-11-7l-10-19l12-7l27-7l7-4l30-2l1,12l4,15l8,3l1,7l3,4
        l-2,3l2,6l3-1l10,6l8,1l-4,9l8,3l15,2l8,16l4,11v9l-11,25l36,47l11,3l8-1l13-5l1,2l-2,2l2,2l-1,3l-3,1l3,4v9l6,4h10l17-5l9-7l7-8
        l-1-7l3-8l5-6l10-7l11,3l4-1l11-8l6-13l4-19l19-8l8-1l12-5l9-9l9-4l10-10l38-19l2-3v-10l-4-5l1-1l3-1l12,2l13-6l4-5l1-10l-7-3
        l-2-2l-1-5l3-5l12-4l1-2l-1-6l3-5v-3l-4-8v-6l13-10l12,3l7-1l9-14l-8-5l-3-7l-9-3l-18-20l-7-4l-16,4l-7-8l-3,8h-23l-18-10h-6
        l-8-6l-1-3l-6-5l1-2l-4-3l-4,2l-4-3l-3-3v-2h2l2-4l3-2l3-8l10-9l-6-3l-9-9h-2l-12-11v-2l-9-4l-2-6l-8-1l-3-8l-5-6l2-2l-3-5l-5-6
        l-3-1v-4l-3-3l-1-4v-11h2l-1-1l6-8l1-15l-7-23l-7-7l-23-6l-9-16l-1-9l4-5l5-2l2-5l3-2l4,1l5,6l8-4l4,2l2-1l-4-9l3-3l-2-2l1-2l7-1
        l4-2l2-4h3l-5-13h-6l-2-2l-2,1l-7-9l-5-1l-6-8l-14-11h-2v-3l8-5l6-18l3,1l5-4l1-4l-2-4v-5l4-10l-1-4l5-5l-1-4l2-4l-1-6l2-6l-8-6
        l-2-8l1-2l-2-2l15-3l2-4l-4-9l-3-14l-8-10v-3l3-5l-3-4l2-10l-5-4l1-7l-3-2v-5l-3,1l-3-2l-4-12l-4-1l-3-3l2-1l-1-3l-5,1l-6-2l-2,2
        l-14,1l-3-1l-2-3l-4,3l-11,1l5,10v4l-4,5l-9,3l-2,9l-4,3l-3,6h-2l1,6l-2,2l2,1l1,3l-3,5l1,5l-2,1l-3-1v-3h-2l-8-10h-5l-1-3l-5-3
        l1-2l-5-3l2-3l-3-7l-4,1l-3,3l-6,1l-6-4h-3l-2,7l-2,2l1,1l-5,6l4,2v4h-2v5l-4,3l-11-1v2l-6,2l-2,4l-2-2h-4v-3h-4l-3,2l-13-2l-2-2
        l-5-1v-4l-3-3l1-3l2-1l-3-3h-5l-9-6l-2,2l-6-3l1-5l-4-8l2-1v-2l-4-6l-1,2l-7-1l-4-7l-11-2l-2-2l-5,2l-2,3l-9,1l-4,2l-3-6l-6,2
        l-4,5h-3v6l-2,2l2,1v2h-2l-4,6l-2-2l-7-1l-7,1v8l-6,10l-8-1l-10,6h-9l-1,3l-7,2l-2,4l-7,1l-2-1v-2l-2,1l-2,4h-2l4,7l-2,6l5,1l3,3
        l2-1l1,7l4,2l5,7h4l-1,2l10,7l-4-1l-3,2l4,8v2l-2,1l4,12l-2,3v5l2,6l3,3h5v3h2l2,6l-4-1l-6,3l-9,1l-6-1l-1-2l-4,9l-8,1v4l-3,6
        l8,7v3l-6,2l-2,5l-2-1l-7,3l1,6l2,2v14l-3,4l-10,1l-6,3l-5,11l1,3l-2,6l-8,4v3v-4l-2-1l-3,8l-4-3l-12,2l-9-14h-9l-4,3l-6-2h-14
        l-2,2l-6,2l-1-1l-5,4h-5v6l2,4l-2,5l3,2l-3,3l1,2l8,6l6,1h2l-1-3l6-3l11,12h-4l-2,4l1,5l-5,7l-7,2l-13-13h-7l-3-2l-2-2v-3l-13-12
        l-4-1l-4,2l-1,7l-6,5v4l4-2l2,6l-3,4l1,12l-3,5l-7,5l-3,5h-2l-10,14l-4,2l1,1l-3,6v4l-4,5l3,9l-3-1l-5,3h-4l-5-3l-8-2l-1,10
        l-13,1l1,8l-2,3l-3-1l1-2h-4l1-2l-4-4v-2l2-1l-2-2l-15,8l9,28l-5,11l3,2l-2,5l-7,10l-3-2l-2-4l-8-3v3l-7,4l-2,5l-9,5l-7,8
        L2527,939z"/>
    </g>

    <g id="ksh-county-12">
      <path d="
        M2059,589l10,16l4,2l8,15l3-2h4l5,4l5-4l6-1l4,2l4,10l3,1l-3,8h4l1,2l-4,4v3h2v11l-12,4l4,9l-39,28l6,6l-4,5l2,4l9,6l2,9l7,7l6,4
        l5,1l10,16l10,10l13,3l3,6l3,3h3l2,3l-2,6l2,2l-1,5l2,4l4,4h4v-2l10,6l2,2l-1,7l7,6h2v2l9-3l2-6l6-4l24,2l16,5l3-2v-3l6,2h2l1-2
        l20,8v3l9,4l1,4l7,7l2-2l13,2l6-3l11,3l36-8l4,1l18,14h17l2-3l9-1l5,4h5l3,3l10-1l15,16l-14,6l-4,17l-4,3v7l6-1l7,4h8l2,7l-2,7
        l-7,7l-1,12l2,6l6,5l6,14l6,1l4,3l-1,2l2,8l7,16l20-10l3,1l2-3l-2-6l-6-3h-8l1-5l6-8l5-3l9-2l1-4l4-4l1,1l6-13l5-5l17,9l4,4
        l12-13l8-5l9-9l1-3l10,5l1,3h3l7-11l1-3l-3-2l5-11l-9-28l15-8l2,2l-2,1v2l3,2v4h4l-1,2l3,1l2-3l-1-8l13-1l1-10l8,2l5,3h4l5-3l3,1
        l-3-9l4-5v-4l3-6l-1-1h2l7-10l9-8l1-3l9-7v-15l3-4l-2-6l-4,2v-4l5-5l2-7l4-2l4,1l7,6l-1,1l7,5l1,4l3,3h7l5,4v2l5,5l7,2l6-3l3-6
        l-1-5l2-4h4l-10-12l-7,3l2,3h-3l-6-1l-8-6l-1-2l3-3l-3-2l2-5l-2-4l1-7l4,1l2-3l10-2l2-2h13l7,2l4-3h9l9,14l12-2l3,3l4-8l2,1v5v-4
        l8-4l2-6l-1-3l5-11l6-3l10-1l3-3v-14l-3-9l2-2h7l2-5l6-2v-3l-4-2l-4-5l3-6v-4l8-1l4-9l4,3l8-2l4,1l6-3l4,1l-4-9l-2,1l-6-3v-4
        l-2-3l2-9l-4-11l2-1v-2l-4-8l3-2l5,1l-7-4v-2h-2l-1-3h-4l-4-4l1-1l-6-4l-1-7l-1,1l-4-3l-5-1v-5l2-1l-4-7h2l3-5l2,1v2l8-1l2-4l7-2
        l1-3h9l12-6l7,1l1-4l5-6l-2-2v-6l7-1l7,1l3,2l3-3v-2l3-1v-2l-2-1l2-2v-6h3l7-7l-2-8l1-1l-3-2l-4,2l-3-4l-4,2l-5-2v-7h-2l1-1l-2-3
        l1-2h-13l-1-7l-8-2l-3-3l-8,2l-1,3l-6,2l-3-1l-2,3l-4,2l-3-1l-2,7h-2l-4-4h-4l-8,15l-9,1l-3,9l-6,5v2l-1-1l1,5l-2,2l-1-1l-6,3
        l-7,1l-7-1v2l-3,3h-4v-4l2-4l1,1v-6l6-4l3-6v-2l-6-4l-5-16l-12,2l-2-7h-17l1-5l-2-3h-2l-1,7l-5,5l1,5l-13-1l2-4l-7-2l-10,7l1,5
        l-2,4l-1-1l-6,2l-10-12l5-5l-1-5l13-11l-3-6v-4l-2-2l-9,2l-1-6l-5-5l-9-4l-4-8l-7-1l-2-2l-9,1l-3,3l-4,10l-3,2l-8-1l-4,2l-3-3
        l-7-1v-2l-9-8l1-3l-4-3l-1-3l2-2l-2-2v-7l-2-2l-1-6l-2-2h-6l-5,4l-4-2l-1-3l-6-4l-4-5l-9,9l-8,3l-2,6l-6,5h-2l-2,4l-11,11h-6
        l-4,2l-11,9l-4-4h-2l-3,4h-4l-3,3l3,6v6l-7,10l-1-1l-3,3l-1-2l-2,6l-2-2v4h2l-4,2l3,3v4l2,2l-1,7l2,4l-3,4v4l-6,2v4l-3-1v2l-3,1
        l2,2l-1,1h2v8h-2l2,8h-2l1,3l-2,2l2,4l-3,3h2v4l-7,3l2,6l-6,6h-6l-2,4v8h-5v-4h-2l-3-3v-2h-2v-6h4l-2-4h-8l-3,2l-2-1l-2,4l1,1
        l-4,2l-4,5l-1-1l-5,3v-2h-4l-4,4h-2l-1,3h-2l1-1h-2l-2-4l-3,1l2-2h-2l-2-4h-4l-5,3l-1-1l-2,4h-2l-1-3l-3,1l-5-3v2l-22-1l-6,3
        l-9-2l-15,7l-5,10l-8-1l-6,2l-6,8v6l-6,7l-11-5l-2-5l-9-2l-8,1l-2,2l-5,1l-7-1l-12-5l-5,1l-6-2l-4-3l-1-3l-4-2l-7,1l-6,8l-5-1
        l-4,2l-2-2h-4l-6-6h-4l-4,3l-1,3l-8,3l-6,8l-9-10l-5,1l-2-2l-1,3h-2l1-3l-2-2v2l-5-6l-3,2l1-3l-3-1v-2l-2,1l3-3l-7,3l2,2l-3,1
        l1,3l-9,2l-4,4v7h-2l-1,3l-4,2l-4-3h-4l-2-3v2l-5-2h-16L2059,589z"/>
    </g>

  </g>

  <g id="ksh-region-6">

    <g id="ksh-county-9">
      <path d="
        M3442,1021l4,3l2-2l1-5l4,6h6l2-2v6l4,8l9,4l3-1l4-6l-3-4l-10-4l-6-6l-2-15l18,3l4-1l3,3h5l4-2l2-6l-1-2h-2l-7,3l-3-12v-5l3-6
        l3,1l4,11l6,1l9-8l5-2l7,2v-12l7-6l5-7l1,1l11-4l8,2l12-1l4-5v-7l-3-4v-5l4-4l-4-5v-4l6-6l7-3l6,1l6,5v3l3,4l7-14l-2-3l2-3h2l4-9
        l-3-2v-2l4-2l1,1l4-9l-1-2l5-3l-1-3l2-3l-2-3l5-8l-2-2l9-13l-2-3l-2-12h-3v-2h-2l-6-7l-2-4h2v-2l-2-3l-4-1l3-2v-3l3-3l7,1v-3l3-3
        h6l1-17l2-7l-2-6l5-4l4-8l3-2l15-3l3-8l-2-5l-11,1l-3-6v4l-5,3l-2-2l-2,1v-3l3-6l6-2l6-5l8-32v2h2l2,3l5-4l8,9l4-12l17,1l6,6h8
        l20,15l6,2l3,8l5,5l14,5l2,7l-1,8l7,7l20-6l4-2v-4l12-4l14-2h12l2,3l9,1l7-3l9,1l27-3l1-6h16l14,3h16l2-1l1-8h8l5-8l36,12l-6,14
        l-3,12l2,11l-1,7l8,1l-6,10l-3,14l1,2l-2,14l-6,28l1,15l-3,24l24,12h3l1,2l12,6l15,19l-1,3l8,5v11l8,8l25,4l6-1v-5l4,1l11-3l5,5
        l8,23l6-2l17,4l12-2l4,2l-3,15l-3,4h11l12,3l5,11l15,2l6,4h7l7-7h4l2-10l9-4l3-5l6-5l2-8l-1-2l2-4v-17l27-7l1,4h4l3,4l2-1l2,4
        l4,1l2,4l-1,1l7,4l2,5l19,5v6l-2,1l-1,4v12l-2,2v3l1,3h9l3,7l6,3v2l4,1l-6,18v6l6,11l6,2l-1,2l3,8l4-2l-2-3l1-2l7-4l7-7l2-7l4-5
        l3-9l3-4l3-12l6-1l7,8l15,6l-2,9l4,15l-2,6l3,4l1,7l6,9l1,6l-2,1l3,4l3,1l3,5v9l-4,2l-6,12l-8,3l-1,6l-7,10l-2,1l-1-3l-7-3l-4,2
        v2l-3,3l-5,2l-6,6v2l12,9l-7,10l-12-11l-18,26l-3,11l-3,5l-1,11l-3,7l1,9l9,23l9,3l-5,9l7,17l-3,1l2,2l-3,2l4,10l-9,24l-3,3
        l-5,13l-9-1l-7-5h-3l-1,2l-5,2h-2v-2l-10-2v2l-7,6l-5-1l-4,2v6l-4,8l-7,7l-2,13l-10,14l-2,6l-7,7l-5,23l-3,4l1,2l-5,2l-1,2l2,4
        l5,4v8l-6,6l-7,4l-9,17l1,1l-5,6l-4,16l3,3l6,1v36l-8,3l-7,7l-5-1l-1,4l-4,2l-1-1l-2,2l-2-1l-10,28l-2,17l-7,7l1,5l-3,3l2,1l-2,3
        l3,2v5l-1,1l-14-4l-14,4l-19,8l-10,16l2,9l-6,4l-1-1v2l-3,2l2,5l-7,3l2,3l-6,2l1,2l-5,2l-2,7l-11,2l-7,4l-5-1v7l7,13l-5,4l-7,1
        l-2-8l-9,4v6l-3,3l-3-1l3,6l-9,5l-6,6l-9,1l-11-2l-5-4l-3,10l-5,5l-3,11l7,18h-4l-2,2l-5,1l-6-3l-4,6v4l-4,1v-2h-2l-2-4h-2v3
        l-3,2h-2l-1-3l-6,5h-4l-1-2l-2,5h-2l-4,6h-2l-1-2l-2,2l-2-1l-4-7l-20-7l-15,14l2-9h4l-1-7l9-1l-3-8v-5l-10,2l-3-6l-4-2l-43-4
        l-26-12l-35-13l-9-5l-4-1l-5,3v-4l-7-7l-4-7l2-8l4-7l-1-8l-5-10v-6l41-23l5-6v-8l-3-10l10-7h2l-6-8v-12l-4-2l5-21l-5,3l-29,1
        l-10-7l-7,3l-15-15l-62-11l-14-10l-28-25l-5-2l4,17l-11,3l-23-37h-4l-3-7l-13-1l18-18l10-114l-8-25l-20-102l4-12l7-6l-10-6v-8
        l-4-6l2-3l-5-8l6-6l3-16l-2-29l-2-5l-4-3l-7-11l-22-13l-22,12l-23,3l-12-2l-9-12l-9-2l-9-23l-1-9l-3-7l1-10L3442,1021z"/>
    </g>

    <g id="ksh-county-15">
      <path d="
        M3625,649l3-8l7-2l-1-8l3-4l7-2l3,1l6-12l6-7l2,1l2-2l-2-4l2-4l1,3l3,2l4-2v2l7,5l4-5l9,2l2,2l-3,6l2,9l4-2l13-1l14,7h4l8-5v-2
        l-6-7l1-3l14-15l7-3l4-5h2l-1,13l5,10l5,3l2-1l8,3l6-5v11l15-4l5,2l4,8l2,1h5l6-3l3-3v-5l2-2l12,2l7,8l2-2l-3-4v-5h5l11,5l10-3
        l2-6l-5-5l1-9l2-2l3,2l2,6l4,4l6-1l3-6v-21l5,1l5-4l8-1l-8-9l-4-1l-5,3l-2-1l-3-10l1-1l9,4l4-2v-4l-20-17l-5-8l-2-7v-2l7-6l5-7
        l-4-3v-3l3-4l-2-15l-2-1l6-5v-2l2,1l3-3l2-6l-1-1l3-6l6-2l6,2l2,6l-1,2l6,4l3-1v-10l4-4l5-1l11,4v4l4,2l-1-5l14-3l-1-2l-6-3l10-4
        l4-4l-1-5l10-1l2,3v-3l3-1l1-3l11,1l3-10l3-1l6,3l2,4l9,7l19,4l11-1l27,3l7-3l15,1v-2l3-3l5,7l-2,2l2,4l3-1l4-6l-5-1v-11h2l5,7
        l5-5l10-3l-1,14l7-3h6l1-1l-4-4l5-3l-2-6l9,5l2-8l7-1l3-3l-2-9l13-5l-3-6l2-8h3l3,8h2l1-6l-2-4l5-4l1,6l6,5l-5,5l7,8l1-1l-3-6
        l8-1v-11l15,3l8-3l10-7h2l-1-1h2l7,7l8,2l4-11l4-4l8-3l-2-2l-1-6h2l3,4l1-3l10-5l2-2l1-5l10-10l1-5l4-7l2-2l11-3l1-4l5-3l-1-4
        l3-4l8-1l-1,12l15-7l10,12l6-1l2-5l-3-11l12,4l4-2l-2-18l3-3v-2h7l1,1l-3,6l4,2l3-3v-2l-3-5l-4-1l3-4l9-5l-6-1l1-4l8-5l5,2l2-2
        v-3l-3-4l-4-3l-5-1v-2l10,2l2,3l2-1l1-6l-6-1l-2-4l2-11l3-2h8v-4l-4-6l1-2l11-2l5-3l1-13l2-2l8-4l11-1l13-11l8-1l10,12l8,5l16-1
        l4,2v5l-6,12l-12,6l1,3l6,3l3,4l10,20l19,4l3,3h14l2,4l-2,6l2,7l-5,15l1,2l3,1v5l2,4l5,2l3,4l4,1l-1,3l3,10l-3,6l3,9l-2,3l8,9
        l2-1l6,7l5,16l3,5l-1,2l11,12l1-5l6-3l5-9l13-1l1,2l9,2l-2-5l2-1l6,2l5,7h6v2l10-6v-3l1,3l14-6l8,4l-2,3l4,2l-5,6l14,1v5l-3,7
        l7,8l1,4l5,4l1,4l4-2l5,3l10,11l10,2l-2,13h-5v3l3,3l-1,2l8,19l2,2l4-1l4,8h2l5,7l-2,2l-5,1l-1,2l6,6l-2,3l-1,10l6,7l-6,4l-1,6h3
        l6,4h8l4-2v2l3-1l8,10h17l7,4h5l18-14l5-6h4l7-6l7,1l3-6l5,3l6-3h6l3,9l6,3l5-4l-5-5l1-5h3l9,6l4-1l3-5h3l4,4l-4,8v3l2,2l4-1v-5
        l3-7h7l2,2l4,8l-3,8v7l2,2h4v5l3,3l-3,3v4l2,1l4-5h3l3,5h2l4,5v5h-2l4,8l-2,3l3-1v2l-3,1l7,7h2v-5l3,2l3-1l-1,20l-5,13l-6,3v12
        l-6,3l-4,6h-3l2,4h-4v2l-7,7l7,6l-3,3l1,2l4-2l4,1l1,2l1-1v2h4l-2,2l1,1l2-2v3l3,1l1-3l4,3v3l-2,3h-2l1,3l2-3l2,3l2-3v6h2l4-4h5
        l1,4l-3,1l2,2l-1,4h3l1,3l-1,2l-3-1l-3,2l-2,8l-4,1l-5,7v5l-4,4v3l-7,6v4l-7,9l-6,1l-5-2l-5,2l-8,8l-10,4l-6,6l-7-3l-9,1l-3-2h-6
        v9l8,9l-5,11v3l8,1l-1,5l3,1l2,9l-1,8l-8,1l-8,8h-10l-2-2l-7,1l-1-2l-3-1h-4l-3,2l-3,7v6l-4,1v3l-3,1v4l-12,28h-2l-1,3h-10l-3,5
        l-11,4l-8-2l-8,5l-7-1l-3,6l-45-1l-7-10l-38-26l-5-6l-10,7l-11,2l-5,5l-3,7l-4,24l-7,21l2,1l2,5v5l-15-2v-5l-6,1l-4-2l-5,4l-10-4
        l-4,1l-10-2l-19-17l-5-3l-5,1l3,13l-3,12l-8,2l-3,5h-2l-10,8l-16-2l-3,15h2l-2,21h-2l-2,3h-10l-7,2l-6,11l2,2l-4,19l1,1l-7,9
        l-6-1l-3,20l-2,2l-5,26l-5,5l-4,13l-6,3l-11-2l-11-5h-8l-3-5l-4-1v-10l-6-9l-1-7l-3-4l2-5l-2-11l-2-2l2-11l-15-7l-5-5l-1-3l-8,2
        l-2,11l-5,8l-1,5l-4,5l-2,7l-7,7l-7,4l-1,2l2,3l-3,2l-3-4l-1-7h-3l-4-4l-4-8v-9l6-15l-10-5l-3-8h-9l-1-3l2-6l-1-2l2-13l2-1v-6
        l-19-5l-1-5l-5-3l-1,1l-2-2l1-1l-2-4l-4-1l-2-4l-1,1l-4-4h-4l-1-4l-12,5l-15,2v17l-3,14l-10,10l-4,3h-3l-3,6v5h-3l-8,7h-7l-3-1
        l-2-3l-11-2l-5,1l-1-5l-4-7l-12-3h-11l3-4l3-15l-4-2l-12,2l-14-4l-9,2l-8-23l-5-5l-11,3l-4-1v5l-6,1l-26-4l-7-8v-11l-8-5l1-2
        l-15-20l-12-6l-1-2h-3l-24-12l3-24l-1-15l6-28l2-14l-1-2l3-14l6-10l-8-1l1-7l-2-11l2-9l7-16l-24-10l-12-3l-4,8h-9l-2,9h-17l-14-3
        h-16l-1,6h-9l-3,2l-14,1l-10-1l-7,3l-9-1l-2-2l-5-1h-7l-14,2l-12,4v4l-24,8l-7-7v-14l-7-4l-8-2l-5-5l-3-8l-6-2l-18-14h-7l-9-7
        l-17-2l-2,10l-2,3l-8-9l-5,4l-2-3h-2v-2l-10-10h-5l3-5l-1-5l-17-23H3625z"/>
    </g>

    <g id="ksh-county-16">
      <path d="
        M2587,1141l4-12l-5-4l3-3l1-12l7-13l9-3l4,1l8,6l7-1l-2-22l8-6l9-2l12-7l12-1l7,5h3l33,24l13-13l7-16l6-5l13-6l-2-10l4-27l2-3
        l6,3l1,3l18,9l14-8l23-6l6-10l8,4l6-1l6,3l4,11l-2,6l2,1l3,28l8,14l-7,17v4l-3,2l5,4l5,10l13,5l6,7h6l22,8l21,10l3-5l12-8l-11-7
        l-10-19l12-7l27-7l7-4l30-2l1,12l4,15l8,3l1,7l3,4l-2,3l2,6l3-1l10,6l8,1l-4,9l8,3l15,2l8,16l4,11v9l-11,25l8,12l28,35l11,3l8-1
        l13-5l1,2l-2,2l2,2l-1,3l-3,1l3,4v9l6,4h10l13-3l13-9l7-8l-1-7l3-8l5-6l8-6l5-1l8,3l4-1l11-8l6-13l4-19l19-8l8-1l12-5l9-9l9-4
        l10-10l38-19l2-3v-10l-4-5l1-1l3-1l12,2l13-6l4-5l1-10l-7-3l-2-2l-1-5l3-5l12-4l1-2l-1-6l3-5v-3l-4-8v-6l13-10l12,3l7-1l4-8l6-7
        l-6-9l1-5l5-7l17-9h3l14,14l8,1l-2,7l-2,32l3,7l1,9l9,23l9,2l9,12l12,2l23-3l22-12l22,13l7,11l4,3l2,5l2,29l-3,16l-6,6l5,8l-2,3
        l4,6v8l10,6l-7,6l-4,12l20,102l8,24l-10,115l-18,18l-3,7l-8-5l-7,6l-9,17l-7,25l-9-2l-5,3v2l-5,1l-7,8v2l-11-2l-34,28l6,12l3,3
        l1,12l5,3l-15,3l-2,6l2,13l-3,7l5,1v3l-4,8l-1,6l4,5l9,5v4l-4,2l1-3l-10-5l-2,10l-2-1l-9,9l-17,7l6,8l-3,2h-34v-10l-3-8l-7,2
        l-14,9l-1,10l-2,3h-2l-3-4l-3,1l-3-2l-4,25h6l4,6l1,7l-3,3v7l-3,12l8,4h-4l-1,3l7,5l3,9h-6l-5-3l-6,2v2l6,4l10-1v9l2,1l-2,8l-4,3
        v5l-12,11l-3,6l-5,5l-14-3l-23,14l-26-18l-1,1l-3-2l-11,7l-18-1l-4-4h-3l-4,3v8l-6,7l-29,10l-7-1l-10-4l-1-3l-9-6l-7,6l1,1l-8,11
        l-6,13l-19,16l7,26l1,16l3,6l2,16l-7,6l-5,1l-6,4l-28,5l-7-1l-5,9v10l-3,3l-6,2l-31-5l-4-9l-15-18l-16-6l-8-1l-10,9l4,7l-5,5
        l-9-5l-4,2l-4,6l1,1l-4,4l-1,5l-4,7l-5,6l-30-19l-13-13h-6l-3,2l-1,7l4,8l-4,5l-8,2v-12l-7-15l-11-3l-4-11v-11l-3-4l-8-5l-2-5
        l-6,1l-3,4v2l7,10v7l-5,6h-3l-4-3l-2-4l-7-4l-8-12l2-5l8-2l6-3l1-2l13-1l1-7l13-5l7-1l4,2h13l7,2l8-5l-5-13l-10-6l-6-14l27-23
        v-11l17-4l6-3l4-6l-1-10l-5-10l-5-4l-14-3l-7,3l-4,5l-3-3l-2-14l2-3l4-2l14-3l2-6l-4-5l-1-5l3-5l6-5l-7-9l-26-16l14-27l-4-7l-4-3
        l-8-2l-8-34l-4-9l-7-5l1-5l-10-13l4-3l-2-7l-6-11l6-18v-4l6-4l15-17l11-18l-9-20l-2-8l-3-2v-12h-3l-8-4l-15-14l-10-6l-31-10l8-24
        l12-25l1-6l-4-3l-16-31l2-6l-1-5l-7-6l-11-16l-14-9l-18-8l-49-33l-11-11v-2l-13-4l1-9l-8-20l-39-27l-8-8l11-13l6-18l4-3l3-5l2,1
        l5-8l-10-8l-7,9l-7-6l-8,4l-6-7l-8,8l-6,2l-8,12l-5,1l-12-17l-3-1L2587,1141z"/>
    </g>

  </g>

  <g id="ksh-region-7">

    <g id="ksh-county-3">
      <path d="
        M1917,2739l4-3l11-16l12-33l20-9l4-5h12l-6-6l8-17l4-4l3-10l5,1l1-3l1-8l-2-9l2-4l-1-2l3-17l5-1v-5l2-4h12v-5l-3-3v-8l4-5v-10h-3
        l-4,3l-9,12l-12,8l-6-3l-2-4l5-11l5-4h3l4-4l3-8l3-3l6,1l4,3l7-9v-5l-9-13l-2-9l1-2l8-3l10,11l7,2l10-2l-1-5l2-13l6-25l1-7l-2-8
        l-9-9l-6-10l-4-27l-1-20l-5-19v-7l3-9l8-10l1-5l13-26l3-11l-1-15l-4-18l-13-23l-3-10v-17l2-12l-3-14l-16-27l-6-7l-3-12l2-10l5-5
        l10-17h25v-2l12-5l6-6l10-4l1,5l7-5l9-11l10-21l8-9l2-6l-1-17l-15-27l-1-11l-4-10l1-7l-6,1l-2-9l-13-28l3-2l-14-8l-6-10l-2-7v-32
        l2-11l4-12l11-16l9-18l4-23v-13l-2-10l-6-15l-3-17l1-12l12-21l1-9l-2-10l3-2l5-10l-7-10l-4-2l-3-4l-1-9l27,8l19,3v3h2l1,3l29,11
        l4,4l1-3l18-9l2-7v-11l4-4l23-7l6-11l11-8l4-5l28-2l5,9l20-45l10-3l13-1l10,7l12,2l9,6l12,12l8,11l7,6l-12,17l-13,11l-14,33
        l18,25l4-10l6-5l16-6h14l9-6l31-27l8,5l11,3l5,3l9-2l10-23l5-26l8-19l19,8l21,4l6-1l10-9l3-5l24,42l7,21l5,26l33,41l12,12l20,11
        l39,32l16-7l19,11h9l3-3l13-25l1-7l4-6l6-16l12,10l24,15l6,2l14,1l22,10l-1-22l12-16l20-10l25-6l6-7h2l12,11l30,18l7,9l-6,5l-3,5
        v3l4,4l1,5l-3,5l-13,2l-5,3v13l3,6l3-1l2-4l7-3l14,3l5,4l5,9l1,11l-4,6l-9,4l-9,1l-4,2v7l-3,6l-24,21l5,14l10,6l5,13l-8,5l-7-2
        h-13l-4-2l-7,1l-13,5l-1,7l-13,1l-1,2h-3l-3,3l-9,3l-1,4l3,6l18,17h3l5-6l-1-9l-6-8v-2l5-5h4l2,5l11,8l1,6l-27,27l-19,30l-22,28
        l27,24l4,9l-3,17l-10,19l-6,7l-4,19l8,5l2,12l-3,19l4,12l-14,13l-11,13l-12,20l-38-32l-34,17l-22,13l-26,19l22,28l28-5l18,18
        l10,6l6,8l5,13l-1,9l-13,16l11,21l1,5l-3,12l-7,8l-3,15l-4,5l-13,9l-28-16l-18,15l-37,25l-7-4l-9-8l-18,3l-30,13l5,16l13,14l6,13
        l-37,44l33,49l7,23l5,8l-9,6l-1,3h-3l-9-7v3l-6-7l-22,22l-46-10l-3,2l-3,3l2,4l-2,4l-18,15l-6,4l-7-4l-11,10l6,6l-2,1v3l14,13
        l-13,11l-17,7l-3-1l-1,3l-7,5l-4,1l2,7l-1,8l-20,16l-11,12l-6,10l-15,3l-10,7l-12-17l-60,39l15,24l-5,4l-8-9l-36,2l-2-4l-24,1
        l4,5l-29-1v-2h-13v-13l-6-21l-4-8l-21-4l-29,42l6,18l4,20h-10l-7-2l-19,1l-8,1l-9,5l-6,13l8,24l-10-1l-5-6v-2l-21,6l-39-9l-11,11
        v3l-2-1v2h-2l-4,4l-5,1l-4-2l-2-3l3,10l-30,6l-4-9l-7-10l-6-4l-1-4l3-4l2,1l12-4l1-3l5-1l1-5l1,3l1-3l4-2l2,3l-1,5l5-2l1,1l2-2
        l-7-6h-2l-3-3v-2l-8-3l-1,1l-2-5l2,1l7-12l2-5l-2-4l1-4l22-39l-19-10l3-5l-2-4l-5-3l-23,19l-10-3l-2-2l-4,2l-1-1l-6,4l-2-4l-5-4
        h-5l-4,3h-7l-2-9l-4-7L1917,2739z"/>
    </g>

    <g id="ksh-county-4">
      <path d="
        M3149,1938l-5-17l-1-16l-7-26l19-16l6-13l8-10l-1-2l7-6l9,6l2,4l15,4l29-10l7-7v-9l4-2l4,1l3,3l18,1l10-7l4,2l1-1l26,18l23-14
        l14,3l5-5l3-6l12-11v-4l5-6v-14l-1-2l-10,1l-6-4l1-3l4-1l10,5l2-2l-4-10l-6-4l1-3h4l-8-3l3-12v-7l4-4l-2-1v-6l-4-6h-6l4-24h6l3,4
        h2l2-3l1-10l14-9l7-2l3,8v11l34-1l3-2l-6-8l17-7l9-9l2,1l2-10l10,5l-1,3l4-1v-5l-9-5l-4-5l1-6l5-11l-6-1l3-7l-2-18l17-4l-5-2
        l-1-12l-9-16l34-28l11,2v-2l7-8l5-1v-2l5-3l9,2l7-24l9-18l7-6l8,5l3-7l13,1l3,7h4l23,37l11-3l-4-17l5,2l28,25l14,10l62,10l14,16
        l8-3l10,7l29-1l5-3l-5,21l5,4v10l5,8h-2l-10,7l3,10v8l-5,6l-41,23v6l5,10l1,8l-4,7l-2,8l4,7l7,7v4l4-3l5,1l9,5l35,13l25,12l43,4
        l3,1l5,7l10-2v5l3,8l-9,1l1,7h-4l-2,9l15-14l20,7l4,7l2,1l1-2l1,2h2l3-2l2-4h2l1-5l2,3l2-3l1,2l7-5l1,3l2,1l2-3l1,1l-1-2l3-2v2
        l4,2v2l4-1v-4l4-6l1,2l1-2l4,2l11-2l-7-18l3-11l5-5l3-10l5,4l11,2l9-1l6-6l9-4v-2l-3-2v-3l3,1l3-3v-5l5-4l4-1l1,8l8-1l5-4l3,2
        l10,2l3,14l1,2l4,1l-1,4l-6,1l-2,6l1,5l-5,8l-2,10l6,1l4,3l-6,14l-11-2l-2,6l-4,4l-1,4l-6,4l-2,6l-25,1l-3,5v20l2,5h4l5,19h-6
        l-2,2l-2,6l2,11l-1,2l-3,2l-2,5h-8l-9,5l-11,2l-6,5l-7,1l-3,9h-9l-2,4l1,9l-2,4l3,9v7l-2,2l-1,7l-3,5l1,1l-3,4l-2,8l-11,9l-3-1
        l-4,11l1,6l6,2l13,13l11,7l3,12l-2,9l-6,6l-6,3l1,3l-4,3v7l-6,4l-5,9h-2l-5-6l-7-4l-16,7l-12-7l-3,2l-2,6l3,5v6l9,12l8-1v6
        l-10,11l-14,5l-4,4l-5,22l-21-7l-2-5l-9-5l-9,8l-4-1l-9,2l-4-2l-12,15l-5,19l-4,9l4,5l1-2l4,4l1-1l4,3l-12,19l1,4l-8,9l-4,8l-6-1
        l-5,5l2,6l-12,35l11,27h16l6,13l9,14l-3,1l-1,10l-12,18l-5,11l6,7l-9,3l-7-3l-26-4l-10-3l-5,2l-2,10l-7-2l-7,35l2,24l-7,9l-10,4
        l2,5l-2,1l1,7l-3,5l5,15l-3,1l-1,3l-5,3h-12l-3-2l-1-6l-22,4l-9,41l-2-2l-2,2h-3v2l-3,2l-2-1v5h-2l-1-2l-2,5l-7-2l-3,12l-4-3
        l-18-3l-8-19l-17,6l-8,1l-15-1l-10-3l-3-2l-4-15l-16,3l-2,16l-23-10l-13-18l-61,15h-4l-14-6l-11-11l10-54l-6-20l-10-17l-1-8
        l-33,3l-7,28l-2,3l-42-3l-2,3l-24-12l-2,4l-10-7l5-6l-22-21l8-15l9-4l7,1l1-47l16-1v-10l-2-6l-2,1l-3-9l4-4l-1-10l2-3l-1-4l1-6
        l2-2v-7l5-5l1-10l2-3l-1-2l-1,1l-2-8l4-2h-5l-3-3l-18-25l-4-58l1-13l-5-2l5-34l-1-15h13l-6-18v-18l-2-6l10-43l-19-15l-5-2l-30,3
        l-13-1l-13-20l-13-10l-10-11l-8,5l-11,4H3149z"/>
    </g>

    <g id="ksh-county-6">
      <path d="
        M2576,2509l37-44l-6-13l-13-14l-5-16l30-13l18-3l16,12l37-25l18-15l28,16l13-9l4-5l3-15l7-8l3-12l-1-5l-11-21l13-16l1-9l-5-13
        l-6-8l-10-6l-18-18l-28,5l-22-28l26-19l22-13l34-17l38,32l12-20l11-13l14-13l-4-12l3-19l-2-12l-8-5l4-19l6-7l10-19l3-17l-4-9
        l-27-24l22-28l19-30l26-27l2,14l3,4h6l5,3l2,7l4,6v13l8-2l4-5l-4-8l1-7l2-2h7l13,13l30,19l5-6l4-7l1-5l4-4v-3l5-6l9,5l7-4l-1-4
        l-3-3l10-10l8,1l16,6l15,18l4,9l31,5l6-2l3-3v-10l5-9l7,1l6-2l25-3l3-4l5-1l7-6v-5l6-1l15-8l10,11l13,10l13,20l13,1l30-3l5,2
        l19,15l-8,29l-2,14l2,6v18l6,18h-13l1,15l-5,34l5,2l-1,13l4,58l18,25l3,3h5l-4,2l2,8l1-1l1,2l-2,2l-1,11l-5,5v7l-2,2v9l-2,4l1,9
        l-4,8l3,6l2-1l3,12l-2,1l1,3l-16,1v47l-8-1l-9,4l-8,15l22,21l-5,6l10,7l2-4l5,4l19,8l2-3l42,3l2-3l7-28l33-3l1,8l10,17l6,20
        l-10,54l11,11l8,4l-19,26l9,49l-25-3l1,2l-2,9l6,4l-7,6l-7,22l-7,4v2h-4l-4,3l-1,6l-6,8l-7-2l-4-5l-3-1l-10,4l-3,16l-4,6l-6,1
        l-3-2l-8-12h-2l-3-6l-6-3l-7-1l-1-3l-10-9l-5-2l-3-5h-2l-4-4h-3l-2-5l-7-4l-16-2l-14-9l-1,2l-3-1l-1,2l2,3l-4,4l3,3l-2,8l-15,19
        l-10,10l-10,1l-14-3l-12-7l-5-5l-4-1l-2,5l-10-6h-2l-6,5l-3-2l-7-15l-32,20l-2-6l-8,4l-19,21l-1,5l-5,1l-2,2l-5,9l-4-4v-4l2-2
        l-3-5l-11,7l-2-6l-14-7l-2-9l-19-16l-9,7l-16,9h-7l-4-6l-19-13l-2-10l2-1v-2l-3-2l-6,1l-22,33l-5-4l-8,4h-6l-4-2l-7-28l-5-4
        l-59,1l-7,8l-7,5l-13,4l-17,9l-16,2l-6,8l-19,15l-4-4l-8-4l-3-4h-4l-8-6l-7,1l-9-4l-14-20l-5-4l-4,2l-7-3v-4l-2-3l-7-5l-5-6l-4-8
        l-7-23l-24-35L2576,2509z"/>
    </g>

  </g>

</g>

</svg>
